<?xml version="1.0" encoding="utf-8"?>
<!-- Generator: Adobe Illustrator 18.0.0, SVG Export Plug-In . SVG Version: 6.00 Build 0)  -->
<!DOCTYPE svg PUBLIC "-//W3C//DTD SVG 1.1//EN" "http://www.w3.org/Graphics/SVG/1.1/DTD/svg11.dtd">
<svg version="1.1" id="Layer_1" xmlns="http://www.w3.org/2000/svg" xmlns:xlink="http://www.w3.org/1999/xlink" x="0px" y="0px"
	 viewBox="0 0 290 176.7" enable-background="new 0 0 290 176.7" xml:space="preserve">
<g>
	<linearGradient id="SVGID_1_" gradientUnits="userSpaceOnUse" x1="125.9478" y1="14.515" x2="135.726" y2="58.6427">
		<stop  offset="5.349290e-02" style="stop-color:#BEC638"/>
		<stop  offset="0.1275" style="stop-color:#B1BD36"/>
		<stop  offset="0.3973" style="stop-color:#88A231"/>
		<stop  offset="0.642" style="stop-color:#6A8E2D"/>
		<stop  offset="0.8511" style="stop-color:#58812B"/>
		<stop  offset="1" style="stop-color:#517D2A"/>
	</linearGradient>
	<path fill="url(#SVGID_1_)" d="M154.7,48.6c0,1.1-0.9,1.9-1.9,1.9h-42.6c-1.1,0-1.9-0.9-1.9-1.9V30.4c0-1.1,0.9-1.9,1.9-1.9h42.6
		c1.1,0,1.9,0.9,1.9,1.9V48.6z"/>
	<linearGradient id="SVGID_2_" gradientUnits="userSpaceOnUse" x1="118.2128" y1="-2.6732" x2="56.2332" y2="81.8616">
		<stop  offset="0" style="stop-color:#957932"/>
		<stop  offset="0.1516" style="stop-color:#9C7E32"/>
		<stop  offset="0.3646" style="stop-color:#AE8B33"/>
		<stop  offset="0.6138" style="stop-color:#CCA135"/>
		<stop  offset="0.8886" style="stop-color:#F5BF37"/>
		<stop  offset="0.9465" style="stop-color:#FFC638"/>
	</linearGradient>
	<path fill="url(#SVGID_2_)" d="M108.7,49.1c0,0.8-0.7,1.5-1.5,1.5H74.1c-0.8,0-1.5-0.7-1.5-1.5V20.6c0-0.8,0.7-1.5,1.5-1.5h33.1
		c0.8,0,1.5,0.7,1.5,1.5V49.1z"/>
	<linearGradient id="SVGID_3_" gradientUnits="userSpaceOnUse" x1="112.0123" y1="26.9655" x2="133.3113" y2="9.0935">
		<stop  offset="5.263960e-02" style="stop-color:#FF6938"/>
		<stop  offset="0.2306" style="stop-color:#FB7D36"/>
		<stop  offset="0.5421" style="stop-color:#F49B34"/>
		<stop  offset="0.8095" style="stop-color:#F0AD33"/>
		<stop  offset="1" style="stop-color:#EFB432"/>
	</linearGradient>
	<path fill="url(#SVGID_3_)" d="M132.5,27.6c0,0.4-0.4,0.8-0.8,0.8h-18.1c-0.4,0-0.8-0.4-0.8-0.8V8.4c0-0.4,0.4-0.8,0.8-0.8h18.1
		c0.4,0,0.8,0.4,0.8,0.8V27.6z"/>
	<linearGradient id="SVGID_4_" gradientUnits="userSpaceOnUse" x1="79.3361" y1="50.9915" x2="128.2941" y2="9.9109">
		<stop  offset="5.305670e-02" style="stop-color:#FFB508"/>
		<stop  offset="0.1545" style="stop-color:#FCBC24"/>
		<stop  offset="0.3655" style="stop-color:#F8C859"/>
		<stop  offset="0.5627" style="stop-color:#F4D283"/>
		<stop  offset="0.7403" style="stop-color:#F1D9A1"/>
		<stop  offset="0.892" style="stop-color:#F0DDB3"/>
		<stop  offset="1" style="stop-color:#EFDFBA"/>
	</linearGradient>
	<polygon fill="url(#SVGID_4_)" points="79,50.6 124,7.6 126.4,7.6 86.9,50.6 	"/>
	<linearGradient id="SVGID_5_" gradientUnits="userSpaceOnUse" x1="104.2927" y1="54.7118" x2="140.5217" y2="24.312">
		<stop  offset="5.305670e-02" style="stop-color:#FFB508"/>
		<stop  offset="0.1545" style="stop-color:#FCBC24"/>
		<stop  offset="0.3655" style="stop-color:#F8C859"/>
		<stop  offset="0.5627" style="stop-color:#F4D283"/>
		<stop  offset="0.7403" style="stop-color:#F1D9A1"/>
		<stop  offset="0.892" style="stop-color:#F0DDB3"/>
		<stop  offset="1" style="stop-color:#EFDFBA"/>
	</linearGradient>
	<polygon fill="url(#SVGID_5_)" points="100.8,50.6 141.6,28.4 144,28.4 108.7,50.6 	"/>
	<linearGradient id="SVGID_6_" gradientUnits="userSpaceOnUse" x1="108.7965" y1="39.9694" x2="120.9788" y2="29.7473">
		<stop  offset="5.305670e-02" style="stop-color:#FFB508"/>
		<stop  offset="0.1545" style="stop-color:#FCBC24"/>
		<stop  offset="0.3655" style="stop-color:#F8C859"/>
		<stop  offset="0.5627" style="stop-color:#F4D283"/>
		<stop  offset="0.7403" style="stop-color:#F1D9A1"/>
		<stop  offset="0.892" style="stop-color:#F0DDB3"/>
		<stop  offset="1" style="stop-color:#EFDFBA"/>
	</linearGradient>
	<polygon fill="url(#SVGID_6_)" points="130.6,50.6 91.3,19.1 93.7,19.1 138.5,50.6 	"/>
	<g>
		
			<radialGradient id="SVGID_7_" cx="894.1316" cy="1420.4779" r="238.908" gradientTransform="matrix(0.2081 0 0 7.456945e-03 -115.7143 159.8294)" gradientUnits="userSpaceOnUse">
			<stop  offset="0" style="stop-color:#000000"/>
			<stop  offset="1" style="stop-color:#000000;stop-opacity:0"/>
		</radialGradient>
		<ellipse opacity="0.8" fill="url(#SVGID_7_)" cx="70.4" cy="170.4" rx="49.9" ry="1.9"/>
		
			<radialGradient id="SVGID_8_" cx="1400.0314" cy="1420.4779" r="238.9146" gradientTransform="matrix(0.2286 0 0 7.456945e-03 -104.4686 159.8294)" gradientUnits="userSpaceOnUse">
			<stop  offset="0" style="stop-color:#000000"/>
			<stop  offset="1" style="stop-color:#000000;stop-opacity:0"/>
		</radialGradient>
		<ellipse opacity="0.8" fill="url(#SVGID_8_)" cx="215.6" cy="170.4" rx="54.8" ry="1.9"/>
		
			<radialGradient id="SVGID_9_" cx="731.4724" cy="731.8887" r="238.9013" gradientTransform="matrix(0.4993 0 0 1.392615e-02 -217.6407 160.2289)" gradientUnits="userSpaceOnUse">
			<stop  offset="0" style="stop-color:#000000"/>
			<stop  offset="1" style="stop-color:#000000;stop-opacity:0"/>
		</radialGradient>
		<ellipse opacity="0.8" fill="url(#SVGID_9_)" cx="147.6" cy="170.4" rx="119.7" ry="3.5"/>
		<g>
			<g>
				<g>
					<linearGradient id="SVGID_10_" gradientUnits="userSpaceOnUse" x1="113.3632" y1="49.1722" x2="113.3632" y2="41.4036">
						<stop  offset="0" style="stop-color:#5E5E5E"/>
						<stop  offset="0.2517" style="stop-color:#616161"/>
						<stop  offset="0.3921" style="stop-color:#696969"/>
						<stop  offset="0.5051" style="stop-color:#777777"/>
						<stop  offset="0.6036" style="stop-color:#8A8A8A"/>
						<stop  offset="0.6925" style="stop-color:#A4A4A4"/>
						<stop  offset="0.7746" style="stop-color:#C3C3C3"/>
						<stop  offset="0.8499" style="stop-color:#E7E7E7"/>
						<stop  offset="0.8786" style="stop-color:#F7F7F7"/>
					</linearGradient>
					<rect x="65.6" y="43" fill="url(#SVGID_10_)" width="95.4" height="2"/>
					<linearGradient id="SVGID_11_" gradientUnits="userSpaceOnUse" x1="64.4179" y1="54.2363" x2="64.4179" y2="38.4778">
						<stop  offset="5.770250e-02" style="stop-color:#080808"/>
						<stop  offset="0.2298" style="stop-color:#0F0F0F"/>
						<stop  offset="0.4862" style="stop-color:#232323"/>
						<stop  offset="0.7937" style="stop-color:#444444"/>
						<stop  offset="1" style="stop-color:#5E5E5E"/>
					</linearGradient>
					<path fill="url(#SVGID_11_)" d="M66.9,50.6v-9.2c-2.7,0-5,2.2-5,5v4.3H66.9z"/>
					
						<linearGradient id="SVGID_12_" gradientUnits="userSpaceOnUse" x1="498.334" y1="54.2363" x2="498.334" y2="38.4778" gradientTransform="matrix(-1 0 0 1 660.2754 0)">
						<stop  offset="5.770250e-02" style="stop-color:#080808"/>
						<stop  offset="0.2298" style="stop-color:#0F0F0F"/>
						<stop  offset="0.4862" style="stop-color:#232323"/>
						<stop  offset="0.7937" style="stop-color:#444444"/>
						<stop  offset="1" style="stop-color:#5E5E5E"/>
					</linearGradient>
					<path fill="url(#SVGID_12_)" d="M159.5,50.6v-9.2c2.7,0,5,2.2,5,5v4.3H159.5z"/>
				</g>
				<linearGradient id="SVGID_13_" gradientUnits="userSpaceOnUse" x1="164.8126" y1="102.7646" x2="201.6984" y2="71.8138">
					<stop  offset="0.3709" style="stop-color:#FFFFFF"/>
					<stop  offset="0.5601" style="stop-color:#CAE1F9"/>
					<stop  offset="0.5691" style="stop-color:#CEE3F9"/>
					<stop  offset="0.6368" style="stop-color:#E3EFFC"/>
					<stop  offset="0.7111" style="stop-color:#F3F8FE"/>
					<stop  offset="0.7963" style="stop-color:#FCFDFF"/>
					<stop  offset="0.917" style="stop-color:#FFFFFF"/>
				</linearGradient>
				<path fill="url(#SVGID_13_)" d="M183.6,54.9c0,0,18.5,23.9,34.3,45.8h-46.6V54.9H183.6z"/>
				<linearGradient id="SVGID_14_" gradientUnits="userSpaceOnUse" x1="145.7207" y1="150.6918" x2="145.7207" y2="48.6991">
					<stop  offset="0" style="stop-color:#0082D9"/>
					<stop  offset="0.9968" style="stop-color:#00A6FF"/>
				</linearGradient>
				<path fill="url(#SVGID_14_)" d="M40.2,150.7l3.8-12.2H92l2.9,12.2h98l4.2-12.2h46.6l4,12.2h16.1c0,0,0-30.3,0-32
					c0-3-1-3.5-6-5.1c-2.9-0.9-41.6-15.6-41.6-15.6l-17.7,0L176,55h7.6c0,0-3.7-6.3-10.8-6.3c-7.1,0-112.7,0-114.5,0
					c-3,0-4,0.6-5.3,2.4c-1.2,1.6-22.2,41.9-23.6,45c-1.1,2.5-1.6,3.2-1.6,7.2c0,1.6,0,47.4,0,47.4H40.2z"/>
				<linearGradient id="SVGID_15_" gradientUnits="userSpaceOnUse" x1="145.7207" y1="131.5795" x2="145.7207" y2="98.9673">
					<stop  offset="3.738390e-02" style="stop-color:#F7F7F7"/>
					<stop  offset="0.8806" style="stop-color:#F7F7F7;stop-opacity:0"/>
				</linearGradient>
				<path opacity="0.2" fill="url(#SVGID_15_)" d="M257.6,113.6c-2.9-0.9-41.6-15.6-41.6-15.6l-17.7,0L176,55h7.6
					c0,0-3.7-6.3-10.8-6.3c-7.1,0-112.7,0-114.5,0c-3,0-4,0.6-5.3,2.4c-1.2,1.6-22.2,41.9-23.6,45c-1.1,2.5-1.6,3.2-1.6,7.2
					c0,0.9,0,15.5,0,28.3h235.9c0-6.4,0-12.2,0-12.9C263.7,115.7,262.7,115.3,257.6,113.6z"/>
				<linearGradient id="SVGID_16_" gradientUnits="userSpaceOnUse" x1="73.0311" y1="106.0164" x2="144.1262" y2="46.3605">
					<stop  offset="0.3709" style="stop-color:#FFFFFF"/>
					<stop  offset="0.5601" style="stop-color:#CAE1F9"/>
					<stop  offset="0.6227" style="stop-color:#EBF4FD"/>
					<stop  offset="0.6684" style="stop-color:#FFFFFF"/>
					<stop  offset="0.7624" style="stop-color:#FDFEFF"/>
					<stop  offset="0.7962" style="stop-color:#F6FAFD"/>
					<stop  offset="0.8203" style="stop-color:#EBF3FB"/>
					<stop  offset="0.8226" style="stop-color:#E9F2FB"/>
					<stop  offset="0.8826" style="stop-color:#F7FBFE"/>
					<stop  offset="0.9373" style="stop-color:#FFFFFF"/>
				</linearGradient>
				<path fill="url(#SVGID_16_)" d="M132.5,97.1c0,0.5-0.4,1-1,1H85c-0.5,0-1-0.4-1-1V55.8c0-0.5,0.4-1,1-1h46.5c0.5,0,1,0.4,1,1
					V97.1z"/>
				<linearGradient id="SVGID_17_" gradientUnits="userSpaceOnUse" x1="118.6018" y1="115.1637" x2="176.9098" y2="66.2374">
					<stop  offset="0.3709" style="stop-color:#FFFFFF"/>
					<stop  offset="0.5601" style="stop-color:#CAE1F9"/>
					<stop  offset="0.6847" style="stop-color:#EBF4FD"/>
					<stop  offset="0.7757" style="stop-color:#FFFFFF"/>
					<stop  offset="0.8043" style="stop-color:#FDFEFF"/>
					<stop  offset="0.8146" style="stop-color:#F6FAFD"/>
					<stop  offset="0.8219" style="stop-color:#EBF3FB"/>
					<stop  offset="0.8226" style="stop-color:#E9F2FB"/>
					<stop  offset="0.8826" style="stop-color:#F7FBFE"/>
					<stop  offset="0.9373" style="stop-color:#FFFFFF"/>
				</linearGradient>
				<path fill="url(#SVGID_17_)" d="M189.1,98.1h-48.5c-0.5,0-1-0.4-1-1V55.8c0-0.5,0.4-1,1-1h26.8c2.3,0,2.9,0,4.1,2.1L189.1,98.1z
					"/>
				<linearGradient id="SVGID_18_" gradientUnits="userSpaceOnUse" x1="27.7252" y1="108.595" x2="69.3407" y2="73.6754">
					<stop  offset="0.3709" style="stop-color:#FFFFFF"/>
					<stop  offset="0.5601" style="stop-color:#CAE1F9"/>
					<stop  offset="0.6847" style="stop-color:#EBF4FD"/>
					<stop  offset="0.7757" style="stop-color:#FFFFFF"/>
					<stop  offset="0.8043" style="stop-color:#FDFEFF"/>
					<stop  offset="0.8146" style="stop-color:#F6FAFD"/>
					<stop  offset="0.8219" style="stop-color:#EBF3FB"/>
					<stop  offset="0.8226" style="stop-color:#E9F2FB"/>
					<stop  offset="0.8826" style="stop-color:#F7FBFE"/>
					<stop  offset="0.9373" style="stop-color:#FFFFFF"/>
				</linearGradient>
				<path fill="url(#SVGID_18_)" d="M74.6,60.3c0,0,0,29.3,0,32.9c0,3.7-0.5,4.8-4.6,4.8c-4.2,0-27.7,0-30.1,0c-2.9,0-2.1-1.7,0-5.1
					c2.2-3.7,16.5-38.1,19.8-38.1c7.7,0,9.9,0,12.2,0C74.1,54.9,74.6,55.8,74.6,60.3z"/>
				
					<linearGradient id="SVGID_19_" gradientUnits="userSpaceOnUse" x1="664.29" y1="163.9127" x2="664.29" y2="124.4102" gradientTransform="matrix(-1 0 0 1 918.625 0)">
					<stop  offset="5.770250e-02" style="stop-color:#080808"/>
					<stop  offset="0.2298" style="stop-color:#0F0F0F"/>
					<stop  offset="0.4862" style="stop-color:#232323"/>
					<stop  offset="0.7937" style="stop-color:#444444"/>
					<stop  offset="1" style="stop-color:#5E5E5E"/>
				</linearGradient>
				<path fill="url(#SVGID_19_)" d="M248.7,154.7c0,0,9.2,0,13.4,0s5-1.8,5-5.8c0-4,0-17.4,0-17.4h-25.7L248.7,154.7z"/>
				<g>
					<g>
						<linearGradient id="SVGID_20_" gradientUnits="userSpaceOnUse" x1="219.9218" y1="169.6713" x2="219.9218" y2="122.6281">
							<stop  offset="3.185680e-03" style="stop-color:#00A6FF"/>
							<stop  offset="4.316046e-02" style="stop-color:#00A1F8"/>
							<stop  offset="0.3555" style="stop-color:#007EC8"/>
							<stop  offset="0.6303" style="stop-color:#0065A4"/>
							<stop  offset="0.8545" style="stop-color:#00568F"/>
							<stop  offset="1" style="stop-color:#005087"/>
						</linearGradient>
						<path fill="url(#SVGID_20_)" d="M219.9,123.4c-15,0-27.1,11.6-27.1,25.7H247C247,135,234.9,123.4,219.9,123.4z"/>
						<linearGradient id="SVGID_21_" gradientUnits="userSpaceOnUse" x1="219.9218" y1="120.9367" x2="219.9218" y2="156.7833">
							<stop  offset="3.185680e-03" style="stop-color:#00D5FF"/>
							<stop  offset="0.1926" style="stop-color:#00CFFC"/>
							<stop  offset="0.4441" style="stop-color:#00BEF5"/>
							<stop  offset="0.729" style="stop-color:#00A3E8"/>
							<stop  offset="1" style="stop-color:#0082D9"/>
						</linearGradient>
						<path fill="url(#SVGID_21_)" d="M193.3,150.7c1.4-14.1,12.7-25.1,26.6-25.1c13.8,0,25.2,11,26.6,25.1h1.4c0,0,0,0,0,0
							c0-15.4-12.5-28-27.9-28c-15.4,0-27.9,12.6-27.9,28c0,0,0,0,0,0H193.3z"/>
					</g>
					
						<radialGradient id="SVGID_22_" cx="223.4064" cy="143.448" r="24.2203" gradientTransform="matrix(0.9997 2.370000e-02 -2.370000e-02 0.9997 -1.780461e-02 1.2626)" gradientUnits="userSpaceOnUse">
						<stop  offset="0" style="stop-color:#000000"/>
						<stop  offset="0.4223" style="stop-color:#020202"/>
						<stop  offset="0.637" style="stop-color:#0A0A0A"/>
						<stop  offset="0.8049" style="stop-color:#171717"/>
						<stop  offset="0.9477" style="stop-color:#2A2A2A"/>
						<stop  offset="1" style="stop-color:#333333"/>
					</radialGradient>
					<circle fill="url(#SVGID_22_)" cx="219.9" cy="150" r="20.5"/>
					
						<radialGradient id="SVGID_23_" cx="223.4069" cy="143.4475" r="13.2964" gradientTransform="matrix(0.9997 2.370000e-02 -2.370000e-02 0.9997 -1.780461e-02 1.2626)" gradientUnits="userSpaceOnUse">
						<stop  offset="0.2973" style="stop-color:#333333"/>
						<stop  offset="0.5033" style="stop-color:#757575"/>
						<stop  offset="0.7397" style="stop-color:#BBBBBB"/>
						<stop  offset="0.9105" style="stop-color:#E7E7E7"/>
						<stop  offset="0.997" style="stop-color:#F7F7F7"/>
					</radialGradient>
					<circle fill="url(#SVGID_23_)" cx="219.9" cy="150" r="13.3"/>
					
						<radialGradient id="SVGID_24_" cx="223.4069" cy="143.448" r="14.0483" gradientTransform="matrix(0.9997 2.370000e-02 -2.370000e-02 0.9997 -1.780461e-02 1.2626)" gradientUnits="userSpaceOnUse">
						<stop  offset="0" style="stop-color:#0D0D0D"/>
						<stop  offset="0.3937" style="stop-color:#191919"/>
						<stop  offset="1" style="stop-color:#333333"/>
					</radialGradient>
					<circle fill="url(#SVGID_24_)" cx="219.9" cy="150" r="12.2"/>
					
						<radialGradient id="SVGID_25_" cx="223.4044" cy="143.3425" r="14.0483" gradientTransform="matrix(0.9997 2.370000e-02 -2.370000e-02 0.9997 -1.780461e-02 1.2626)" gradientUnits="userSpaceOnUse">
						<stop  offset="0" style="stop-color:#0D0D0D"/>
						<stop  offset="0.3937" style="stop-color:#191919"/>
						<stop  offset="1" style="stop-color:#333333"/>
					</radialGradient>
					<circle fill="url(#SVGID_25_)" cx="219.9" cy="149.9" r="12.2"/>
					<radialGradient id="SVGID_26_" cx="219.9345" cy="149.9623" r="7.6624" gradientUnits="userSpaceOnUse">
						<stop  offset="0.2973" style="stop-color:#333333"/>
						<stop  offset="0.5033" style="stop-color:#757575"/>
						<stop  offset="0.7397" style="stop-color:#BBBBBB"/>
						<stop  offset="0.9105" style="stop-color:#E7E7E7"/>
						<stop  offset="0.997" style="stop-color:#F7F7F7"/>
					</radialGradient>
					<circle fill="url(#SVGID_26_)" cx="219.9" cy="150" r="7.7"/>
					<g>
						
							<radialGradient id="SVGID_27_" cx="219.3824" cy="149.9623" r="9.336" gradientTransform="matrix(0.9166 0 0 1 18.8359 0)" gradientUnits="userSpaceOnUse">
							<stop  offset="0" style="stop-color:#333333"/>
							<stop  offset="0.2936" style="stop-color:#757575"/>
							<stop  offset="0.6303" style="stop-color:#BBBBBB"/>
							<stop  offset="0.8738" style="stop-color:#E7E7E7"/>
							<stop  offset="0.997" style="stop-color:#F7F7F7"/>
						</radialGradient>
						<path fill="url(#SVGID_27_)" d="M221.9,160.9c0,1.2-0.9,2.1-1.9,2.1l0,0c-1.1,0-1.9-0.9-1.9-2.1V139c0-1.2,0.9-2.1,1.9-2.1
							l0,0c1.1,0,1.9,0.9,1.9,2.1V160.9z"/>
						
							<radialGradient id="SVGID_28_" cx="240.5302" cy="154.5722" r="9.336" gradientTransform="matrix(0 -0.9166 1 0 65.3497 370.4323)" gradientUnits="userSpaceOnUse">
							<stop  offset="0" style="stop-color:#333333"/>
							<stop  offset="0.2936" style="stop-color:#757575"/>
							<stop  offset="0.6303" style="stop-color:#BBBBBB"/>
							<stop  offset="0.8738" style="stop-color:#E7E7E7"/>
							<stop  offset="0.997" style="stop-color:#F7F7F7"/>
						</radialGradient>
						<path fill="url(#SVGID_28_)" d="M230.8,148c1.2,0,2.1,0.9,2.1,1.9l0,0c0,1.1-0.9,1.9-2.1,1.9H209c-1.2,0-2.1-0.9-2.1-1.9l0,0
							c0-1.1,0.9-1.9,2.1-1.9H230.8z"/>
					</g>
					<g>
						
							<radialGradient id="SVGID_29_" cx="231.4341" cy="148.3317" r="9.3361" gradientTransform="matrix(0.6481 -0.6481 0.7071 0.7071 -34.9554 195.0689)" gradientUnits="userSpaceOnUse">
							<stop  offset="0" style="stop-color:#333333"/>
							<stop  offset="0.2936" style="stop-color:#757575"/>
							<stop  offset="0.6303" style="stop-color:#BBBBBB"/>
							<stop  offset="0.8738" style="stop-color:#E7E7E7"/>
							<stop  offset="0.997" style="stop-color:#F7F7F7"/>
						</radialGradient>
						<path fill="url(#SVGID_29_)" d="M229,156.3c0.8,0.8,0.9,2.1,0.1,2.9l0,0c-0.8,0.8-2,0.7-2.9-0.1l-15.4-15.4
							c-0.8-0.8-0.9-2.1-0.1-2.9l0,0c0.8-0.8,2-0.7,2.9,0.1L229,156.3z"/>
						
							<radialGradient id="SVGID_30_" cx="242.8311" cy="165.2979" r="9.3361" gradientTransform="matrix(-0.6481 -0.6481 0.7071 -0.7071 260.4185 424.2234)" gradientUnits="userSpaceOnUse">
							<stop  offset="0" style="stop-color:#333333"/>
							<stop  offset="0.2936" style="stop-color:#757575"/>
							<stop  offset="0.6303" style="stop-color:#BBBBBB"/>
							<stop  offset="0.8738" style="stop-color:#E7E7E7"/>
							<stop  offset="0.997" style="stop-color:#F7F7F7"/>
						</radialGradient>
						<path fill="url(#SVGID_30_)" d="M226.3,140.9c0.8-0.8,2.1-0.9,2.9-0.1l0,0c0.8,0.8,0.7,2-0.1,2.9l-15.4,15.4
							c-0.8,0.8-2.1,0.9-2.9,0.1l0,0c-0.8-0.8-0.7-2,0.1-2.9L226.3,140.9z"/>
					</g>
					
						<radialGradient id="SVGID_31_" cx="223.4191" cy="143.4477" r="3.6893" gradientTransform="matrix(0.9997 2.370000e-02 -2.370000e-02 0.9997 -1.780461e-02 1.2626)" gradientUnits="userSpaceOnUse">
						<stop  offset="8.442810e-02" style="stop-color:#333333"/>
						<stop  offset="0.6731" style="stop-color:#0F0F0F"/>
						<stop  offset="1" style="stop-color:#000000"/>
					</radialGradient>
					<circle opacity="0.6" fill="url(#SVGID_31_)" cx="219.9" cy="150" r="4.9"/>
				</g>
				<linearGradient id="SVGID_32_" gradientUnits="userSpaceOnUse" x1="31.6875" y1="157.0975" x2="31.6875" y2="106.1458">
					<stop  offset="7.642040e-02" style="stop-color:#333333"/>
					<stop  offset="0.172" style="stop-color:#3B3B3B"/>
					<stop  offset="0.3177" style="stop-color:#505050"/>
					<stop  offset="0.4954" style="stop-color:#727272"/>
					<stop  offset="0.6984" style="stop-color:#A3A3A3"/>
					<stop  offset="0.9198" style="stop-color:#DFDFDF"/>
					<stop  offset="1" style="stop-color:#F7F7F7"/>
				</linearGradient>
				<path fill="url(#SVGID_32_)" d="M38.1,134.3c0,1.1-0.9,1.9-1.9,1.9h-8.9c-1.1,0-1.9-0.9-1.9-1.9v-22.2c0-1.1,0.9-1.9,1.9-1.9
					h8.9c1.1,0,1.9,0.9,1.9,1.9V134.3z"/>
				<linearGradient id="SVGID_33_" gradientUnits="userSpaceOnUse" x1="35.7578" y1="163.9127" x2="35.7578" y2="124.4102">
					<stop  offset="5.770250e-02" style="stop-color:#080808"/>
					<stop  offset="0.2298" style="stop-color:#0F0F0F"/>
					<stop  offset="0.4862" style="stop-color:#232323"/>
					<stop  offset="0.7937" style="stop-color:#444444"/>
					<stop  offset="1" style="stop-color:#5E5E5E"/>
				</linearGradient>
				<path fill="url(#SVGID_33_)" d="M39,154.7c0,0-4.5,0-8.7,0c-4.2,0-5-1.8-5-5.8c0-4,0-17.4,0-17.4h21L39,154.7z"/>
				<g>
					<g>
						<linearGradient id="SVGID_34_" gradientUnits="userSpaceOnUse" x1="67.79" y1="169.6713" x2="67.79" y2="122.6281">
							<stop  offset="3.185680e-03" style="stop-color:#00A6FF"/>
							<stop  offset="4.316046e-02" style="stop-color:#00A1F8"/>
							<stop  offset="0.3555" style="stop-color:#007EC8"/>
							<stop  offset="0.6303" style="stop-color:#0065A4"/>
							<stop  offset="0.8545" style="stop-color:#00568F"/>
							<stop  offset="1" style="stop-color:#005087"/>
						</linearGradient>
						<path fill="url(#SVGID_34_)" d="M67.8,123.4c-15,0-27.1,11.6-27.1,25.7h54.2C94.9,135,82.8,123.4,67.8,123.4z"/>
						<linearGradient id="SVGID_35_" gradientUnits="userSpaceOnUse" x1="67.79" y1="120.9367" x2="67.79" y2="156.7833">
							<stop  offset="3.185680e-03" style="stop-color:#00D5FF"/>
							<stop  offset="0.1926" style="stop-color:#00CFFC"/>
							<stop  offset="0.4441" style="stop-color:#00BEF5"/>
							<stop  offset="0.729" style="stop-color:#00A3E8"/>
							<stop  offset="1" style="stop-color:#0082D9"/>
						</linearGradient>
						<path fill="url(#SVGID_35_)" d="M41.2,150.7c1.4-14.1,12.7-25.1,26.6-25.1c13.8,0,25.2,11,26.6,25.1h1.4c0,0,0,0,0,0
							c0-15.4-12.5-28-27.9-28c-15.4,0-27.9,12.6-27.9,28c0,0,0,0,0,0H41.2z"/>
					</g>
					
						<radialGradient id="SVGID_36_" cx="71.3144" cy="147.0537" r="24.2203" gradientTransform="matrix(0.9997 2.370000e-02 -2.370000e-02 0.9997 -1.780461e-02 1.2626)" gradientUnits="userSpaceOnUse">
						<stop  offset="0" style="stop-color:#000000"/>
						<stop  offset="0.4223" style="stop-color:#020202"/>
						<stop  offset="0.637" style="stop-color:#0A0A0A"/>
						<stop  offset="0.8049" style="stop-color:#171717"/>
						<stop  offset="0.9477" style="stop-color:#2A2A2A"/>
						<stop  offset="1" style="stop-color:#333333"/>
					</radialGradient>
					<circle fill="url(#SVGID_36_)" cx="67.8" cy="150" r="20.5"/>
					
						<radialGradient id="SVGID_37_" cx="71.3144" cy="147.0532" r="13.2967" gradientTransform="matrix(0.9997 2.370000e-02 -2.370000e-02 0.9997 -1.780461e-02 1.2626)" gradientUnits="userSpaceOnUse">
						<stop  offset="0.2973" style="stop-color:#333333"/>
						<stop  offset="0.5033" style="stop-color:#757575"/>
						<stop  offset="0.7397" style="stop-color:#BBBBBB"/>
						<stop  offset="0.9105" style="stop-color:#E7E7E7"/>
						<stop  offset="0.997" style="stop-color:#F7F7F7"/>
					</radialGradient>
					<circle fill="url(#SVGID_37_)" cx="67.8" cy="150" r="13.3"/>
					
						<radialGradient id="SVGID_38_" cx="71.3144" cy="147.0537" r="14.0486" gradientTransform="matrix(0.9997 2.370000e-02 -2.370000e-02 0.9997 -1.780461e-02 1.2626)" gradientUnits="userSpaceOnUse">
						<stop  offset="0" style="stop-color:#0D0D0D"/>
						<stop  offset="0.3937" style="stop-color:#191919"/>
						<stop  offset="1" style="stop-color:#333333"/>
					</radialGradient>
					<circle fill="url(#SVGID_38_)" cx="67.8" cy="150" r="12.2"/>
					
						<radialGradient id="SVGID_39_" cx="71.3119" cy="146.9482" r="14.0486" gradientTransform="matrix(0.9997 2.370000e-02 -2.370000e-02 0.9997 -1.780461e-02 1.2626)" gradientUnits="userSpaceOnUse">
						<stop  offset="0" style="stop-color:#0D0D0D"/>
						<stop  offset="0.3937" style="stop-color:#191919"/>
						<stop  offset="1" style="stop-color:#333333"/>
					</radialGradient>
					<circle fill="url(#SVGID_39_)" cx="67.8" cy="149.9" r="12.2"/>
					<radialGradient id="SVGID_40_" cx="67.8022" cy="149.9623" r="7.6626" gradientUnits="userSpaceOnUse">
						<stop  offset="0.2973" style="stop-color:#333333"/>
						<stop  offset="0.5033" style="stop-color:#757575"/>
						<stop  offset="0.7397" style="stop-color:#BBBBBB"/>
						<stop  offset="0.9105" style="stop-color:#E7E7E7"/>
						<stop  offset="0.997" style="stop-color:#F7F7F7"/>
					</radialGradient>
					<circle fill="url(#SVGID_40_)" cx="67.8" cy="150" r="7.7"/>
					<g>
						
							<radialGradient id="SVGID_41_" cx="53.4084" cy="149.9623" r="9.336" gradientTransform="matrix(0.9166 0 0 1 18.8359 0)" gradientUnits="userSpaceOnUse">
							<stop  offset="0" style="stop-color:#333333"/>
							<stop  offset="0.2936" style="stop-color:#757575"/>
							<stop  offset="0.6303" style="stop-color:#BBBBBB"/>
							<stop  offset="0.8738" style="stop-color:#E7E7E7"/>
							<stop  offset="0.997" style="stop-color:#F7F7F7"/>
						</radialGradient>
						<path fill="url(#SVGID_41_)" d="M69.7,160.9c0,1.2-0.9,2.1-1.9,2.1l0,0c-1.1,0-1.9-0.9-1.9-2.1V139c0-1.2,0.9-2.1,1.9-2.1l0,0
							c1.1,0,1.9,0.9,1.9,2.1V160.9z"/>
						
							<radialGradient id="SVGID_42_" cx="240.5302" cy="2.4403" r="9.336" gradientTransform="matrix(0 -0.9166 1 0 65.3497 370.4323)" gradientUnits="userSpaceOnUse">
							<stop  offset="0" style="stop-color:#333333"/>
							<stop  offset="0.2936" style="stop-color:#757575"/>
							<stop  offset="0.6303" style="stop-color:#BBBBBB"/>
							<stop  offset="0.8738" style="stop-color:#E7E7E7"/>
							<stop  offset="0.997" style="stop-color:#F7F7F7"/>
						</radialGradient>
						<path fill="url(#SVGID_42_)" d="M78.7,148c1.2,0,2.1,0.9,2.1,1.9l0,0c0,1.1-0.9,1.9-2.1,1.9H56.9c-1.2,0-2.1-0.9-2.1-1.9l0,0
							c0-1.1,0.9-1.9,2.1-1.9H78.7z"/>
					</g>
					<g>
						
							<radialGradient id="SVGID_43_" cx="114.0657" cy="40.7572" r="9.3361" gradientTransform="matrix(0.6481 -0.6481 0.7071 0.7071 -34.9554 195.0689)" gradientUnits="userSpaceOnUse">
							<stop  offset="0" style="stop-color:#333333"/>
							<stop  offset="0.2936" style="stop-color:#757575"/>
							<stop  offset="0.6303" style="stop-color:#BBBBBB"/>
							<stop  offset="0.8738" style="stop-color:#E7E7E7"/>
							<stop  offset="0.997" style="stop-color:#F7F7F7"/>
						</radialGradient>
						<path fill="url(#SVGID_43_)" d="M76.9,156.3c0.8,0.8,0.9,2.1,0.1,2.9l0,0c-0.8,0.8-2,0.7-2.9-0.1l-15.4-15.4
							c-0.8-0.8-0.9-2.1-0.1-2.9l0,0c0.8-0.8,2-0.7,2.9,0.1L76.9,156.3z"/>
						
							<radialGradient id="SVGID_44_" cx="360.1991" cy="57.7235" r="9.3361" gradientTransform="matrix(-0.6481 -0.6481 0.7071 -0.7071 260.4185 424.2234)" gradientUnits="userSpaceOnUse">
							<stop  offset="0" style="stop-color:#333333"/>
							<stop  offset="0.2936" style="stop-color:#757575"/>
							<stop  offset="0.6303" style="stop-color:#BBBBBB"/>
							<stop  offset="0.8738" style="stop-color:#E7E7E7"/>
							<stop  offset="0.997" style="stop-color:#F7F7F7"/>
						</radialGradient>
						<path fill="url(#SVGID_44_)" d="M74.1,140.9c0.8-0.8,2.1-0.9,2.9-0.1l0,0c0.8,0.8,0.7,2-0.1,2.9l-15.4,15.4
							c-0.8,0.8-2.1,0.9-2.9,0.1l0,0c-0.8-0.8-0.7-2,0.1-2.9L74.1,140.9z"/>
					</g>
					
						<radialGradient id="SVGID_45_" cx="71.3266" cy="147.0533" r="3.6891" gradientTransform="matrix(0.9997 2.370000e-02 -2.370000e-02 0.9997 -1.780461e-02 1.2626)" gradientUnits="userSpaceOnUse">
						<stop  offset="8.442810e-02" style="stop-color:#333333"/>
						<stop  offset="0.6731" style="stop-color:#0F0F0F"/>
						<stop  offset="1" style="stop-color:#000000"/>
					</radialGradient>
					<circle opacity="0.6" fill="url(#SVGID_45_)" cx="67.8" cy="150" r="4.9"/>
				</g>
				<linearGradient id="SVGID_46_" gradientUnits="userSpaceOnUse" x1="29.9014" y1="123.5464" x2="29.9014" y2="112.161">
					<stop  offset="0" style="stop-color:#910009"/>
					<stop  offset="7.598370e-02" style="stop-color:#AA0609"/>
					<stop  offset="0.168" style="stop-color:#C10C08"/>
					<stop  offset="0.275" style="stop-color:#D21008"/>
					<stop  offset="0.4045" style="stop-color:#DF1308"/>
					<stop  offset="0.5796" style="stop-color:#E61508"/>
					<stop  offset="1" style="stop-color:#E81508"/>
				</linearGradient>
				<path fill="url(#SVGID_46_)" d="M32.6,113.2h-7.3v9.4h7.3c1.1,0,1.9-0.9,1.9-1.9v-5.5C34.5,114,33.7,113.2,32.6,113.2z"/>
				<linearGradient id="SVGID_47_" gradientUnits="userSpaceOnUse" x1="29.9014" y1="134.5188" x2="29.9014" y2="123.2601">
					<stop  offset="0" style="stop-color:#E69409"/>
					<stop  offset="4.354796e-02" style="stop-color:#E79A08"/>
					<stop  offset="0.2914" style="stop-color:#EEB805"/>
					<stop  offset="0.536" style="stop-color:#F3CD02"/>
					<stop  offset="0.7738" style="stop-color:#F6DA01"/>
					<stop  offset="0.997" style="stop-color:#F7DE00"/>
				</linearGradient>
				<path fill="url(#SVGID_47_)" d="M32.6,124.2h-7.3v5.8h7.3c1.1,0,1.9-0.9,1.9-1.9v-1.9C34.5,125,33.7,124.2,32.6,124.2z"/>
				<g>
					<linearGradient id="SVGID_48_" gradientUnits="userSpaceOnUse" x1="253.9896" y1="135.0855" x2="267.1318" y2="113.8943">
						<stop  offset="0.181" style="stop-color:#333333"/>
						<stop  offset="0.3883" style="stop-color:#737373"/>
						<stop  offset="0.5957" style="stop-color:#ACACAC"/>
						<stop  offset="0.7734" style="stop-color:#D5D5D5"/>
						<stop  offset="0.9129" style="stop-color:#EEEEEE"/>
						<stop  offset="0.997" style="stop-color:#F7F7F7"/>
					</linearGradient>
					<ellipse fill="url(#SVGID_48_)" cx="262.5" cy="121.4" rx="4.8" ry="8.6"/>
					<linearGradient id="SVGID_49_" gradientUnits="userSpaceOnUse" x1="259.6585" y1="125.059" x2="272.0704" y2="114.6441">
						<stop  offset="3.015020e-03" style="stop-color:#F7F7F7"/>
						<stop  offset="0.1055" style="stop-color:#F8F3DD"/>
						<stop  offset="1" style="stop-color:#FFD500"/>
					</linearGradient>
					<ellipse fill="url(#SVGID_49_)" cx="264" cy="121.4" rx="3.3" ry="7.3"/>
				</g>
			</g>
			<g opacity="0.16">
				<path fill="#1D1D1B" d="M135.9,103.2c0,0,0,0.7,0.1,2c0,1.3,0.1,3.1,0.2,5.3c0,2.2,0.1,4.8,0.2,7.5c0,2.7,0,5.7,0.1,8.6
					c0,2.9,0,5.9-0.1,8.6c0,2.7-0.1,5.3-0.2,7.5c0,2.2-0.1,4-0.2,5.3c-0.1,1.3-0.1,2-0.1,2s0-0.7-0.1-2c0-1.3-0.1-3.1-0.2-5.3
					c0-2.2-0.1-4.8-0.2-7.5c0-2.7,0-5.7-0.1-8.6c0-2.9,0-5.9,0.1-8.6c0-2.7,0.1-5.3,0.2-7.5c0-2.2,0.1-4,0.2-5.3
					C135.9,103.9,135.9,103.2,135.9,103.2z"/>
			</g>
			<g opacity="0.16">
				<path fill="#1D1D1B" d="M189.1,103.2c0,0,0,0.7,0.1,2c0,1.3,0.1,3.1,0.2,5.3c0,2.2,0.1,4.8,0.2,7.5c0,2.7,0,5.7,0.1,8.6
					c0,2.9,0,5.9-0.1,8.6c0,2.7-0.1,5.3-0.2,7.5c0,2.2-0.1,4-0.2,5.3c-0.1,1.3-0.1,2-0.1,2s0-0.7-0.1-2c0-1.3-0.1-3.1-0.2-5.3
					c0-2.2-0.1-4.8-0.2-7.5c0-2.7,0-5.7-0.1-8.6c0-2.9,0-5.9,0.1-8.6c0-2.7,0.1-5.3,0.2-7.5c0-2.2,0.1-4,0.2-5.3
					C189.1,103.9,189.1,103.2,189.1,103.2z"/>
			</g>
			<g opacity="0.16">
				<path fill="#1D1D1B" d="M80,103.2c0,0,0,0.9,0.1,2.5c0,1.6,0.1,3.8,0.2,6.5c0,1.3,0,2.8,0.1,4.3c0,0.8,0,1.6,0,2.4l0,0.3l0,0.1
					l0,0c0,0,0-0.2,0-0.1l0,0c0,0,0-0.1-0.1-0.1c0,0,0,0,0,0c0.1,0.1,0.3,0.1,0.5,0.2c0.4,0.1,0.8,0.2,1.2,0.3
					c3.3,0.8,6.7,2.1,9.8,4c3.1,1.9,5.8,4.5,7.7,7.3c1,1.4,1.8,2.8,2.5,4.2c0.7,1.4,1.2,2.8,1.6,4.1c0.8,2.6,1.1,4.8,1.3,6.4
					c0.1,0.8,0.1,1.4,0.2,1.8c0,0.4,0,0.6,0,0.6s-0.1-0.9-0.4-2.4c-0.3-1.5-0.8-3.7-1.7-6.2c-0.9-2.5-2.2-5.3-4.2-8
					c-1-1.3-2.1-2.6-3.4-3.8c-1.3-1.2-2.7-2.2-4.2-3.2c-1.5-0.9-3.1-1.8-4.7-2.4c-1.6-0.7-3.2-1.2-4.8-1.7c-0.4-0.1-0.8-0.2-1.2-0.4
					c-0.2-0.1-0.4-0.1-0.6-0.3c0,0-0.1,0-0.1-0.1c-0.1-0.1-0.2-0.2-0.2-0.2l0,0c0,0.1,0-0.2,0-0.1l0,0l0-0.1l0-0.3
					c0-0.8,0-1.6,0-2.4c0-1.5,0-3,0.1-4.3c0.1-2.7,0.1-4.9,0.2-6.5C79.9,104.1,80,103.2,80,103.2z"/>
			</g>
			<g>
				<linearGradient id="SVGID_50_" gradientUnits="userSpaceOnUse" x1="94.8964" y1="113.1551" x2="94.8964" y2="107.6388">
					<stop  offset="0.2973" style="stop-color:#333333"/>
					<stop  offset="0.4749" style="stop-color:#787878"/>
					<stop  offset="0.6358" style="stop-color:#AFAFAF"/>
					<stop  offset="0.7736" style="stop-color:#D6D6D6"/>
					<stop  offset="0.8828" style="stop-color:#EEEEEE"/>
					<stop  offset="0.9499" style="stop-color:#F7F7F7"/>
				</linearGradient>
				<path fill="url(#SVGID_50_)" d="M101.5,109.7v-0.5c0-1-0.8-1.7-1.7-1.7h-9.7c-1,0-1.7,0.8-1.7,1.7v0.5H101.5z"/>
				<linearGradient id="SVGID_51_" gradientUnits="userSpaceOnUse" x1="94.8964" y1="112.9272" x2="94.8964" y2="109.6586">
					<stop  offset="0" style="stop-color:#000000;stop-opacity:0"/>
					<stop  offset="0.8581" style="stop-color:#000000;stop-opacity:0.8581"/>
					<stop  offset="1" style="stop-color:#000000"/>
				</linearGradient>
				<rect x="88.3" y="109.7" opacity="0.2" fill="url(#SVGID_51_)" width="13.1" height="3.3"/>
			</g>
			<g>
				<linearGradient id="SVGID_52_" gradientUnits="userSpaceOnUse" x1="148.1489" y1="113.1551" x2="148.1489" y2="107.6388">
					<stop  offset="0.2973" style="stop-color:#333333"/>
					<stop  offset="0.4749" style="stop-color:#787878"/>
					<stop  offset="0.6358" style="stop-color:#AFAFAF"/>
					<stop  offset="0.7736" style="stop-color:#D6D6D6"/>
					<stop  offset="0.8828" style="stop-color:#EEEEEE"/>
					<stop  offset="0.9499" style="stop-color:#F7F7F7"/>
				</linearGradient>
				<path fill="url(#SVGID_52_)" d="M154.7,109.7v-0.5c0-1-0.8-1.7-1.7-1.7h-9.7c-1,0-1.7,0.8-1.7,1.7v0.5H154.7z"/>
				<linearGradient id="SVGID_53_" gradientUnits="userSpaceOnUse" x1="148.1489" y1="112.9272" x2="148.1489" y2="109.6586">
					<stop  offset="0" style="stop-color:#000000;stop-opacity:0"/>
					<stop  offset="0.8581" style="stop-color:#000000;stop-opacity:0.8581"/>
					<stop  offset="1" style="stop-color:#000000"/>
				</linearGradient>
				<rect x="141.6" y="109.7" opacity="0.2" fill="url(#SVGID_53_)" width="13.1" height="3.3"/>
			</g>
			<g>
				<linearGradient id="SVGID_54_" gradientUnits="userSpaceOnUse" x1="186.995" y1="105.138" x2="183.499" y2="76.9245">
					<stop  offset="0" style="stop-color:#F7F7F7"/>
					<stop  offset="0.3212" style="stop-color:#B0B0B0"/>
					<stop  offset="0.6423" style="stop-color:#6F6F6F"/>
					<stop  offset="0.875" style="stop-color:#474747"/>
					<stop  offset="0.9953" style="stop-color:#383838"/>
				</linearGradient>
				<path fill="url(#SVGID_54_)" d="M180.7,90.4l6.8,10c0,0,2.5,0,3-3.1l-9.7-8V90.4z"/>
				<linearGradient id="SVGID_55_" gradientUnits="userSpaceOnUse" x1="178.5678" y1="102.6001" x2="181.1839" y2="74.8037">
					<stop  offset="0" style="stop-color:#8C8C8C"/>
					<stop  offset="0.1747" style="stop-color:#919191"/>
					<stop  offset="0.3758" style="stop-color:#9F9F9F"/>
					<stop  offset="0.5899" style="stop-color:#B6B6B6"/>
					<stop  offset="0.8116" style="stop-color:#D6D6D6"/>
					<stop  offset="1" style="stop-color:#F7F7F7"/>
				</linearGradient>
				<path fill="url(#SVGID_55_)" d="M178.1,96.2h0.8c1.7,0,3-0.9,3-2V82.8c0-1.1-1.4-2-3-2h-0.8V96.2z"/>
			</g>
		</g>
	</g>
</g>
</svg>
