<?xml version="1.0" encoding="utf-8"?>
<!-- Generator: Adobe Illustrator 21.1.0, SVG Export Plug-In . SVG Version: 6.00 Build 0)  -->
<svg version="1.1" xmlns="http://www.w3.org/2000/svg" xmlns:xlink="http://www.w3.org/1999/xlink" x="0px" y="0px"
	 viewBox="0 0 1200 800" style="enable-background:new 0 0 1200 800;" xml:space="preserve">
<style type="text/css">
	.st0{fill:#536869;}
	.st1{fill:#7C9294;}
	.st2{fill:#D6CE64;}
	.st3{opacity:0.4;}
	.st4{fill:#73888A;}
	.st5{fill:#F7F0DF;}
	.st6{fill:#02B3CC;}
	.st7{opacity:0.6;fill:#02C4E0;}
	.st8{fill:#02BED9;}
	.st9{fill:#02C7E3;}
	.st10{opacity:0.6;fill:#02CFED;}
	.st11{opacity:0.6;fill:#02CCEB;}
	.st12{opacity:0.6;}
	.st13{fill:#02C4E0;}
	.st14{fill:#875C3A;}
	.st15{fill:#946540;}
	.st16{fill:#60B000;}
	.st17{opacity:0.1;fill:#FFFFFF;}
	.st18{fill:#1E750B;}
	.st19{fill:#84BD40;}
	.st20{fill:#6FB021;}
	.st21{fill:#9C9C9C;}
	.st22{opacity:0.6;fill:#8A8A8A;}
	.st23{fill:#5BA600;}
	.st24{fill:#4D6061;}
	.st25{fill:#455657;}
	.st26{opacity:0.6;fill:#62B300;}
	.st27{fill:#72B522;}
	.st28{fill:#89C442;}
	.st29{fill:#77AB3A;}
	.st30{fill:#6E9E36;}
	.st31{fill:#67A31F;}
	.st32{fill:#578A1A;}
	.st33{fill:#529600;}
	.st34{fill:#4B8A00;}
	.st35{fill:#248C0E;}
	.st36{fill:#207D0C;}
	.st37{fill:#25910F;}
	.st38{fill:#22850D;}
	.st39{opacity:0.28;fill:#165408;}
	.st40{opacity:0.2;fill:#165408;}
	.st41{clip-path:url(#SVGID_2_);fill:#248C0E;}
	.st42{clip-path:url(#SVGID_2_);fill:#207D0C;}
	.st43{opacity:0.28;clip-path:url(#SVGID_2_);fill:#165408;}
	.st44{clip-path:url(#SVGID_2_);}
	.st45{clip-path:url(#SVGID_4_);fill:#248C0E;}
	.st46{clip-path:url(#SVGID_4_);fill:#207D0C;}
	.st47{opacity:0.28;clip-path:url(#SVGID_4_);fill:#165408;}
	.st48{clip-path:url(#SVGID_4_);}
	.st49{fill:#FFD129;}
	.st50{fill:#FFF98A;}
	.st51{opacity:0.2;fill:#632704;}
</style>
<g id="_x31_200x800">
	<rect y="666.7" class="st0" width="1200" height="133.3"/>
	<g>
		<rect y="648.8" class="st1" width="1200" height="18"/>
		<rect y="640.5" class="st2" width="1200" height="8.3"/>
		<g class="st3">
			<rect x="76.5" y="648.8" class="st4" width="17.4" height="18"/>
			<rect x="205.2" y="648.8" class="st4" width="17.4" height="18"/>
			<rect x="333.9" y="648.8" class="st4" width="17.4" height="18"/>
			<rect x="462.6" y="648.8" class="st4" width="17.4" height="18"/>
			<rect x="591.3" y="648.8" class="st4" width="17.4" height="18"/>
			<rect x="720" y="648.8" class="st4" width="17.4" height="18"/>
			<rect x="848.7" y="648.8" class="st4" width="17.4" height="18"/>
			<rect x="977.4" y="648.8" class="st4" width="17.4" height="18"/>
			<rect x="1106.1" y="648.8" class="st4" width="17.4" height="18"/>
		</g>
	</g>
	<path class="st5" d="M889.3,742.2c0,0.6-0.4,1-1,1H713.5c-0.6,0-1-0.4-1-1v-11.6c0-0.6,0.4-1,1-1h174.8c0.6,0,1,0.4,1,1V742.2z"/>
	<path class="st5" d="M492.5,742.2c0,0.6-0.4,1-1,1H316.7c-0.6,0-1-0.4-1-1v-11.6c0-0.6,0.4-1,1-1h174.8c0.6,0,1,0.4,1,1V742.2z"/>
	<path class="st5" d="M1200,729.6h-129.8c-0.6,0-1,0.4-1,1v11.6c0,0.6,0.4,1,1,1H1200V729.6z"/>
	<path class="st5" d="M0,729.6h129.8c0.6,0,1,0.4,1,1v11.6c0,0.6-0.4,1-1,1H0V729.6z"/>
	<rect x="188" y="250.3" class="st6" width="107.6" height="321.5"/>
	<rect x="203.5" y="279.9" class="st7" width="8.4" height="6.1"/>
	<rect x="233.4" y="279.9" class="st7" width="8.4" height="6.1"/>
	<rect x="246.4" y="279.9" class="st7" width="8.4" height="6.1"/>
	<rect x="220" y="305" class="st7" width="8.4" height="6.1"/>
	<rect x="250.6" y="310.1" class="st7" width="8.4" height="6.1"/>
	<rect x="215.8" y="351.7" class="st7" width="8.4" height="6.1"/>
	<rect x="263.3" y="279.9" class="st7" width="8.4" height="6.1"/>
	<rect x="263.3" y="262.8" class="st7" width="8.4" height="6.1"/>
	<rect x="250.6" y="262.8" class="st7" width="8.4" height="6.1"/>
	<rect x="820.5" y="326.1" class="st6" width="116.3" height="232.9"/>
	<polygon class="st8" points="848.3,255.9 848.3,245.5 796,245.5 796,268.5 785.4,271 785.4,559 858.9,559 858.9,253.3 	"/>
	<polygon class="st9" points="585.7,194.4 572.1,194.4 572.1,182 477.3,182 477.3,194.4 463.6,194.4 463.6,220.6 473.4,220.6 
		473.4,527 576,527 576,220.6 585.7,220.6 	"/>
	<rect x="620.3" y="254.1" class="st6" width="141.2" height="308.9"/>
	<polygon class="st6" points="535.4,289.4 417.8,323.9 417.8,563 535.4,563 	"/>
	<rect x="499.1" y="279.7" class="st6" width="4.8" height="29.9"/>
	<rect x="487.3" y="278.4" class="st6" width="4.8" height="36.1"/>
	<rect x="314.6" y="232.3" class="st8" width="117.6" height="330.7"/>
	<polygon class="st8" points="594.8,266.1 546.3,315.2 546.3,554.2 594.8,554.2 643.2,554.2 643.2,315.2 	"/>
	<polygon class="st9" points="378.9,351.5 225.1,351.5 225.1,377.6 242.4,377.6 242.4,546 361.6,546 361.6,377.6 378.9,377.6 	"/>
	<polygon class="st9" points="285.2,358.8 241.8,358.8 241.8,332.1 285.2,345.4 	"/>
	<polygon class="st8" points="416.2,242.9 333.8,242.9 333.8,218.6 416.2,206 	"/>
	<polygon class="st9" points="556.6,369.9 556.6,354.5 507.5,354.5 507.5,369.9 497.3,369.9 497.3,538.7 566.9,538.7 566.9,369.9 	
		"/>
	<polygon class="st9" points="812.6,559 707.4,559 707.4,337.8 812.6,358.8 	"/>
	<rect x="744.1" y="332.1" class="st9" width="53.6" height="39.2"/>
	<rect x="725.9" y="374.7" class="st10" width="8.7" height="7.7"/>
	<rect x="725.9" y="389.9" class="st10" width="8.7" height="7.7"/>
	<rect x="740.7" y="374.7" class="st10" width="8.7" height="7.7"/>
	<rect x="740.7" y="405.1" class="st10" width="8.7" height="7.7"/>
	<rect x="755.7" y="434.5" class="st10" width="8.7" height="7.7"/>
	<rect x="770.6" y="434.5" class="st10" width="8.7" height="7.7"/>
	<rect x="770.6" y="449.7" class="st10" width="8.7" height="7.7"/>
	<rect x="785.4" y="419.3" class="st10" width="8.7" height="7.7"/>
	<rect x="794.8" y="281.7" class="st10" width="6.7" height="4"/>
	<rect x="810.5" y="281.7" class="st10" width="6.7" height="4"/>
	<rect x="810.5" y="294.5" class="st10" width="6.7" height="4"/>
	<rect x="640.7" y="282.6" class="st7" width="11" height="5.9"/>
	<rect x="679.9" y="282.6" class="st7" width="11" height="5.9"/>
	<rect x="697" y="282.6" class="st7" width="11" height="5.9"/>
	<rect x="662.3" y="306.7" class="st7" width="11" height="5.9"/>
	<rect x="448.1" y="339.7" class="st7" width="11" height="5.9"/>
	<rect x="448.1" y="423.3" class="st7" width="11" height="5.9"/>
	<rect x="466.9" y="339.7" class="st7" width="11" height="5.9"/>
	<rect x="448.1" y="354.5" class="st7" width="11" height="5.9"/>
	<rect x="466.9" y="354.5" class="st7" width="11" height="5.9"/>
	<rect x="448.1" y="369.3" class="st7" width="11" height="5.9"/>
	<rect x="466.9" y="397.1" class="st7" width="11" height="5.9"/>
	<rect x="466.9" y="410.3" class="st7" width="11" height="5.9"/>
	<rect x="466.9" y="452.8" class="st7" width="11" height="5.9"/>
	<rect x="485.6" y="339.7" class="st7" width="11" height="5.9"/>
	<rect x="504.4" y="339.7" class="st7" width="11" height="5.9"/>
	<rect x="702.5" y="311.6" class="st7" width="11" height="5.9"/>
	<rect x="656.8" y="351.6" class="st7" width="11" height="5.9"/>
	<rect x="719.2" y="282.6" class="st7" width="11" height="5.9"/>
	<rect x="719.2" y="266.1" class="st7" width="11" height="5.9"/>
	<rect x="702.5" y="266.1" class="st7" width="11" height="5.9"/>
	<rect x="810.5" y="346.5" class="st10" width="6.7" height="4"/>
	<rect x="826.1" y="281.7" class="st10" width="6.7" height="4"/>
	<rect x="824.1" y="332.1" class="st10" width="6.7" height="4"/>
	<rect x="824.1" y="320.4" class="st10" width="6.7" height="4"/>
	<rect x="839.1" y="320.4" class="st10" width="6.7" height="4"/>
	<rect x="755.6" y="389.9" class="st10" width="8.7" height="7.7"/>
	<rect x="934.6" y="288.6" class="st9" width="77.4" height="268.9"/>
	<rect x="948.3" y="352" class="st10" width="6.4" height="9.3"/>
	<rect x="959.2" y="333.5" class="st10" width="6.4" height="9.3"/>
	<rect x="988.8" y="305" class="st10" width="6.4" height="9.3"/>
	<rect x="962.4" y="309.6" class="st10" width="6.4" height="9.3"/>
	<rect x="959.2" y="370.5" class="st10" width="6.4" height="9.3"/>
	<rect x="981.1" y="406.2" class="st10" width="6.4" height="9.3"/>
	<rect x="992" y="387.7" class="st10" width="6.4" height="9.3"/>
	<rect x="970.1" y="352" class="st10" width="6.4" height="9.3"/>
	<rect x="557.3" y="328.2" class="st11" width="9.6" height="7.7"/>
	<rect x="571.5" y="328.2" class="st11" width="9.6" height="7.7"/>
	<rect x="571.5" y="342.7" class="st11" width="9.6" height="7.7"/>
	<rect x="585.7" y="328.2" class="st11" width="9.6" height="7.7"/>
	<rect x="339.3" y="265.2" class="st11" width="9.6" height="7.7"/>
	<rect x="333.5" y="313.6" class="st11" width="9.6" height="7.7"/>
	<rect x="362.3" y="265.2" class="st11" width="9.6" height="7.7"/>
	<rect x="362.3" y="281.8" class="st11" width="9.6" height="7.7"/>
	<rect x="394.6" y="333.9" class="st11" width="9.6" height="7.7"/>
	<rect x="362.3" y="298.3" class="st11" width="9.6" height="7.7"/>
	<rect x="362.3" y="314.9" class="st11" width="9.6" height="7.7"/>
	<rect x="385.2" y="265.2" class="st11" width="9.6" height="7.7"/>
	<rect x="385.2" y="290.6" class="st11" width="9.6" height="7.7"/>
	<rect x="411.4" y="250.3" class="st11" width="9.6" height="7.7"/>
	<rect x="597" y="383.3" class="st11" width="9.6" height="7.7"/>
	<rect x="611.2" y="368.8" class="st11" width="9.6" height="7.7"/>
	<rect x="613.6" y="402.7" class="st11" width="9.6" height="7.7"/>
	<rect x="505.6" y="386.1" class="st10" width="12.1" height="7.7"/>
	<rect x="251.6" y="386" class="st10" width="10.5" height="5"/>
	<rect x="269.2" y="386" class="st10" width="10.5" height="5"/>
	<rect x="251.6" y="414.2" class="st10" width="10.5" height="5"/>
	<rect x="269.2" y="449.7" class="st10" width="10.5" height="5"/>
	<rect x="286.7" y="386" class="st10" width="10.5" height="5"/>
	<rect x="286.7" y="402.7" class="st10" width="10.5" height="5"/>
	<rect x="338.9" y="387.4" class="st10" width="10.5" height="5"/>
	<rect x="313.2" y="408" class="st10" width="10.5" height="5"/>
	<rect x="317.2" y="386" class="st10" width="10.5" height="5"/>
	<rect x="266.6" y="424.5" class="st10" width="10.5" height="5"/>
	<rect x="533.2" y="386.1" class="st10" width="12.1" height="7.7"/>
	<rect x="530.6" y="419.3" class="st10" width="12.1" height="7.7"/>
	<rect x="511.7" y="442.8" class="st10" width="12.1" height="7.7"/>
	<rect x="530.6" y="438.3" class="st10" width="12.1" height="7.7"/>
	<rect x="507.1" y="403.8" class="st10" width="12.1" height="7.7"/>
	<rect x="530.6" y="403.8" class="st10" width="12.1" height="7.7"/>
	<rect x="486" y="202.2" class="st10" width="18.4" height="7.7"/>
	<rect x="510" y="202.2" class="st10" width="18.4" height="7.7"/>
	<rect x="510" y="265.2" class="st10" width="18.4" height="7.7"/>
	<rect x="510" y="235" class="st10" width="18.4" height="7.7"/>
	<rect x="482.9" y="235" class="st10" width="18.4" height="7.7"/>
	<rect x="536.1" y="248.3" class="st10" width="18.4" height="7.7"/>
	<rect x="508.6" y="248.3" class="st10" width="18.4" height="7.7"/>
	<rect x="536.1" y="202.2" class="st10" width="18.4" height="7.7"/>
	<rect x="533.2" y="217.5" class="st10" width="18.4" height="7.7"/>
	<rect x="755.6" y="405.1" class="st10" width="8.7" height="7.7"/>
	<g class="st12">
		<rect x="871.3" y="343" class="st13" width="11" height="5.9"/>
		<rect x="890.7" y="343" class="st13" width="11" height="5.9"/>
		<rect x="890.7" y="357" class="st13" width="11" height="5.9"/>
		<rect x="910.1" y="343" class="st13" width="11" height="5.9"/>
		<rect x="910.1" y="376.7" class="st13" width="11" height="5.9"/>
		<rect x="910.1" y="389.5" class="st13" width="11" height="5.9"/>
		<rect x="869.4" y="380.2" class="st13" width="11" height="5.9"/>
	</g>
	<rect x="876.1" y="311.6" class="st6" width="49.4" height="19.7"/>
	<g>
		<g>
			<rect x="901.3" y="515.4" class="st14" width="8.9" height="27"/>
			<rect x="901.3" y="515.4" class="st15" width="4.5" height="27"/>
		</g>
		<path class="st16" d="M905.8,378.1c0,0-36,80-34.3,110.1c1.8,30.1,34.3,34.1,34.3,34.1s32.5-4,34.3-34.1
			C941.8,458.2,905.8,378.1,905.8,378.1z"/>
		<path class="st17" d="M871.5,488.2c0.4,6.2,2,11.2,4.4,15.4c5.5,2.8,9.7,3.5,9.7,3.5s32.5-5.4,34.3-45.6
			c0.8-18.7-6.6-52-14.7-82.1C900.7,389.7,869.9,460.4,871.5,488.2z"/>
	</g>
	<g>
		<g>
			<rect x="866.8" y="527.8" class="st14" width="4.9" height="23.9"/>
			<rect x="866.8" y="527.8" class="st15" width="2.4" height="23.9"/>
		</g>
		<path class="st18" d="M869.2,452.8c0,0-19.7,43.7-18.7,60.2c1,16.4,18.7,18.6,18.7,18.6s17.7-2.2,18.7-18.6
			C888.9,496.5,869.2,452.8,869.2,452.8z"/>
		<path class="st17" d="M850.5,512.9c0.2,3.4,1.1,6.1,2.4,8.4c3,1.5,5.3,1.9,5.3,1.9s17.7-2.9,18.7-24.9c0.5-10.2-3.6-28.4-8-44.9
			C866.4,459.1,849.6,497.7,850.5,512.9z"/>
	</g>
	<g>
		<g>
			<rect x="1033.5" y="499.1" class="st14" width="7.3" height="35.6"/>
			<rect x="1033.5" y="499.1" class="st15" width="3.6" height="35.6"/>
		</g>
		<path class="st18" d="M1037.2,387.2c0,0-29.4,65.2-27.9,89.7s27.9,27.8,27.9,27.8s26.5-3.3,27.9-27.8S1037.2,387.2,1037.2,387.2z"
			/>
		<path class="st17" d="M1009.2,476.9c0.3,5,1.7,9.1,3.6,12.5c4.5,2.3,7.9,2.8,7.9,2.8s26.5-4.4,27.9-37.2
			c0.7-15.3-5.3-42.4-12-66.9C1033,396.6,1007.9,454.2,1009.2,476.9z"/>
	</g>
	<g>
		<g>
			<rect x="391.2" y="524.9" class="st14" width="6.2" height="30.3"/>
			<rect x="391.2" y="524.9" class="st15" width="3.1" height="30.3"/>
		</g>
		<path class="st18" d="M394.3,429.8c0,0-25,55.4-23.7,76.3c1.2,20.8,23.7,23.6,23.7,23.6s22.5-2.8,23.7-23.6
			C419.2,485.2,394.3,429.8,394.3,429.8z"/>
		<path class="st17" d="M370.5,506.1c0.3,4.3,1.4,7.8,3.1,10.7c3.8,1.9,6.7,2.4,6.7,2.4s22.5-3.7,23.7-31.6c0.6-13-4.5-36-10.2-56.9
			C390.7,437.8,369.4,486.8,370.5,506.1z"/>
	</g>
	<g>
		<g>
			<rect x="113.7" y="513.9" class="st14" width="8.4" height="41.3"/>
			<rect x="113.7" y="513.9" class="st15" width="4.2" height="41.3"/>
		</g>
		<path class="st18" d="M117.9,384.3c0,0-34,75.5-32.3,103.9c1.7,28.4,32.3,32.2,32.3,32.2s30.7-3.8,32.3-32.2
			C151.9,459.9,117.9,384.3,117.9,384.3z"/>
		<path class="st17" d="M85.6,488.3c0.3,5.8,1.9,10.6,4.2,14.5c5.2,2.6,9.1,3.3,9.1,3.3s30.7-5.1,32.3-43
			c0.8-17.7-6.2-49.1-13.9-77.5C113.1,395.2,84,462,85.6,488.3z"/>
	</g>
	<g>
		<g>
			<rect x="468.6" y="547" class="st14" width="5.6" height="27.7"/>
			<rect x="468.6" y="547" class="st15" width="2.8" height="27.7"/>
		</g>
		<path class="st16" d="M471.4,460.1c0,0-22.8,50.6-21.7,69.7c1.1,19,21.7,21.6,21.7,21.6s20.6-2.5,21.7-21.6
			C494.2,510.8,471.4,460.1,471.4,460.1z"/>
		<path class="st17" d="M449.8,529.8c0.2,3.9,1.3,7.1,2.8,9.7c3.5,1.8,6.1,2.2,6.1,2.2s20.5-3.4,21.7-28.8c0.5-11.9-4.1-32.9-9.3-52
			C468.2,467.4,448.7,512.2,449.8,529.8z"/>
	</g>
	<g>
		<g>
			<rect x="146.7" y="528.1" class="st14" width="4.4" height="21.6"/>
			<rect x="146.7" y="528.1" class="st15" width="2.2" height="21.6"/>
		</g>
		<path class="st16" d="M148.9,460.3c0,0-17.8,39.6-16.9,54.4c0.9,14.9,16.9,16.9,16.9,16.9s16.1-2,16.9-16.9
			C166.8,499.8,148.9,460.3,148.9,460.3z"/>
		<path class="st17" d="M132,514.7c0.2,3,1,5.5,2.2,7.6c2.7,1.4,4.8,1.7,4.8,1.7s16.1-2.7,16.9-22.5c0.4-9.3-3.2-25.7-7.3-40.6
			C146.4,466,131.2,500.9,132,514.7z"/>
	</g>
	<g>
		<g>
			<rect x="42.7" y="524.2" class="st14" width="4.7" height="23.7"/>
			<rect x="42.7" y="524.2" class="st15" width="2.3" height="23.7"/>
		</g>
		<path class="st16" d="M45,449.7c0,0-19,43.4-18,59.8c0.9,16.3,18,18.5,18,18.5s17.1-2.2,18-18.5C64,493.2,45,449.7,45,449.7z"/>
		<path class="st17" d="M27,509.5c0.2,3.3,1.1,6.1,2.3,8.4c2.9,1.5,5.1,1.9,5.1,1.9s17.1-2.9,18-24.7c0.4-10.2-3.4-28.2-7.7-44.6
			C42.3,456,26.1,494.4,27,509.5z"/>
	</g>
	<g>
		<g>
			<rect x="308" y="515.9" class="st14" width="8.9" height="27"/>
			<rect x="308" y="515.9" class="st15" width="4.5" height="27"/>
		</g>
		<path class="st16" d="M312.4,378.6c0,0-36,80-34.3,110.1c1.8,30.1,34.3,34.1,34.3,34.1s32.5-4,34.3-34.1
			C348.5,458.7,312.4,378.6,312.4,378.6z"/>
		<path class="st17" d="M278.2,488.8c0.4,6.2,2,11.2,4.4,15.4c5.5,2.8,9.7,3.5,9.7,3.5s32.5-5.4,34.3-45.6
			c0.8-18.7-6.6-52-14.7-82.1C307.3,390.2,276.5,460.9,278.2,488.8z"/>
	</g>
	<g>
		<g>
			<rect x="771.5" y="530.6" class="st14" width="5.2" height="29.7"/>
			<rect x="771.5" y="530.6" class="st15" width="2.6" height="29.7"/>
		</g>
		<path class="st16" d="M774.1,450.3c0,0-21.1,46.8-20,64.3c1,17.6,20,19.9,20,19.9s19-2.4,20-19.9
			C795.2,497.1,774.1,450.3,774.1,450.3z"/>
		<path class="st17" d="M754.1,514.7c0.2,3.6,1.2,6.6,2.6,9c3.2,1.6,5.7,2,5.7,2s19-3.1,20-26.6c0.5-10.9-3.8-30.4-8.6-48
			C771.1,457.1,753.1,498.4,754.1,514.7z"/>
	</g>
	<g>
		<g>
			<rect x="624.9" y="521.2" class="st14" width="7.4" height="31"/>
			<rect x="624.9" y="521.2" class="st15" width="3.7" height="31"/>
		</g>
		<path class="st16" d="M628.6,406.6c0,0-30.1,66.8-28.6,91.9c1.5,25.1,28.6,28.5,28.6,28.5s27.1-3.4,28.6-28.5
			C658.7,473.4,628.6,406.6,628.6,406.6z"/>
		<path class="st17" d="M600,498.5c0.3,5.1,1.7,9.4,3.7,12.8c4.6,2.3,8.1,2.9,8.1,2.9s27.1-4.5,28.6-38.1
			c0.7-15.6-5.5-43.4-12.2-68.5C624.4,416.2,598.7,475.2,600,498.5z"/>
	</g>
	<g>
		<g>
			<rect x="273.1" y="522.1" class="st14" width="5.6" height="27.7"/>
			<rect x="273.1" y="522.1" class="st15" width="2.8" height="27.7"/>
		</g>
		<path class="st18" d="M275.9,435.2c0,0-22.8,50.6-21.7,69.7c1.1,19,21.7,21.6,21.7,21.6s20.6-2.5,21.7-21.6
			C298.7,485.9,275.9,435.2,275.9,435.2z"/>
		<path class="st17" d="M254.2,504.9c0.2,3.9,1.3,7.1,2.8,9.7c3.5,1.8,6.1,2.2,6.1,2.2s20.5-3.4,21.7-28.8c0.5-11.9-4.1-32.9-9.3-52
			C272.6,442.5,253.2,487.3,254.2,504.9z"/>
	</g>
	<g>
		<g>
			<rect x="648.6" y="517.4" class="st14" width="5.1" height="29.3"/>
			<rect x="648.6" y="517.4" class="st15" width="2.6" height="29.3"/>
		</g>
		<path class="st18" d="M651.1,438.3c0,0-20.8,46.1-19.7,63.4c1,17.3,19.7,19.6,19.7,19.6s18.7-2.3,19.7-19.6
			C671.9,484.4,651.1,438.3,651.1,438.3z"/>
		<path class="st17" d="M631.4,501.8c0.2,3.6,1.2,6.5,2.6,8.9c3.2,1.6,5.6,2,5.6,2s18.7-3.1,19.7-26.3c0.5-10.8-3.8-29.9-8.5-47.3
			C648.2,445,630.4,485.7,631.4,501.8z"/>
	</g>
	<g>
		<g>
			<rect x="568.8" y="525.9" class="st14" width="3.8" height="21.5"/>
			<rect x="568.8" y="525.9" class="st15" width="1.9" height="21.5"/>
		</g>
		<path class="st18" d="M570.7,467.8c0,0-15.3,33.9-14.5,46.6c0.8,12.7,14.5,14.4,14.5,14.4s13.7-1.7,14.5-14.4
			C586,501.7,570.7,467.8,570.7,467.8z"/>
		<path class="st17" d="M556.2,514.4c0.2,2.6,0.9,4.7,1.9,6.5c2.3,1.2,4.1,1.5,4.1,1.5s13.7-2.3,14.5-19.3c0.4-7.9-2.8-22-6.2-34.8
			C568.5,472.7,555.5,502.6,556.2,514.4z"/>
	</g>
	<g>
		<g>
			<rect x="961.6" y="516.6" class="st14" width="3.8" height="21.5"/>
			<rect x="961.6" y="516.6" class="st15" width="1.9" height="21.5"/>
		</g>
		<path class="st16" d="M963.5,458.5c0,0-15.3,33.9-14.5,46.6c0.8,12.7,14.5,14.4,14.5,14.4s13.7-1.7,14.5-14.4
			C978.8,492.4,963.5,458.5,963.5,458.5z"/>
		<path class="st17" d="M949,505.1c0.2,2.6,0.9,4.7,1.9,6.5c2.3,1.2,4.1,1.5,4.1,1.5s13.7-2.3,14.5-19.3c0.4-7.9-2.8-22-6.2-34.7
			C961.4,463.4,948.3,493.3,949,505.1z"/>
	</g>
	<g>
		<g>
			<rect x="819.6" y="539" class="st14" width="2.9" height="16.6"/>
			<rect x="819.6" y="539" class="st15" width="1.5" height="16.6"/>
		</g>
		<path class="st18" d="M821.1,494.2c0,0-11.8,26.1-11.2,36c0.6,9.8,11.2,11.1,11.2,11.1s10.6-1.3,11.2-11.1
			C832.8,520.3,821.1,494.2,821.1,494.2z"/>
		<path class="st17" d="M809.9,530.1c0.1,2,0.7,3.7,1.4,5c1.8,0.9,3.2,1.1,3.2,1.1s10.6-1.8,11.2-14.9c0.3-6.1-2.1-17-4.8-26.8
			C819.4,497.9,809.3,521,809.9,530.1z"/>
	</g>
	<g>
		<g>
			<rect x="1071.4" y="501.6" class="st14" width="5.2" height="29.7"/>
			<rect x="1071.4" y="501.6" class="st15" width="2.6" height="29.7"/>
		</g>
		<path class="st16" d="M1074,421.4c0,0-21.1,46.8-20,64.3c1,17.6,20,19.9,20,19.9s19-2.4,20-19.9C1095,468.1,1074,421.4,1074,421.4
			z"/>
		<path class="st17" d="M1054,485.7c0.2,3.6,1.2,6.6,2.6,9c3.2,1.6,5.7,2,5.7,2s19-3.1,20-26.6c0.5-10.9-3.8-30.4-8.6-48
			C1071,428.1,1053,469.4,1054,485.7z"/>
	</g>
	<g>
		<g>
			<rect x="1119.5" y="510.1" class="st14" width="2.9" height="16.6"/>
			<rect x="1119.5" y="510.1" class="st15" width="1.5" height="16.6"/>
		</g>
		<path class="st18" d="M1121,465.2c0,0-11.8,26.1-11.2,36c0.6,9.8,11.2,11.1,11.2,11.1s10.6-1.3,11.2-11.1
			C1132.7,491.3,1121,465.2,1121,465.2z"/>
		<path class="st17" d="M1109.8,501.2c0.1,2,0.7,3.7,1.4,5c1.8,0.9,3.2,1.1,3.2,1.1s10.6-1.8,11.2-14.9c0.3-6.1-2.1-17-4.8-26.8
			C1119.3,469,1109.2,492.1,1109.8,501.2z"/>
	</g>
	<g>
		<g>
			<rect x="432.6" y="536.7" class="st14" width="3.2" height="18.2"/>
			<rect x="432.6" y="536.7" class="st15" width="1.6" height="18.2"/>
		</g>
		<path class="st18" d="M434.2,487.4c0,0-12.9,28.7-12.3,39.5c0.6,10.8,12.3,12.2,12.3,12.2s11.6-1.4,12.3-12.2
			C447.1,516.1,434.2,487.4,434.2,487.4z"/>
		<path class="st17" d="M421.9,526.9c0.1,2.2,0.7,4,1.6,5.5c2,1,3.5,1.2,3.5,1.2s11.6-1.9,12.3-16.4c0.3-6.7-2.3-18.6-5.3-29.4
			C432.4,491.6,421.3,516.9,421.9,526.9z"/>
	</g>
	<path class="st19" d="M367.7,610.7h464.5c0,0-111.7-77.5-200.9-77.5C542.1,533.2,367.7,610.7,367.7,610.7z"/>
	<path class="st20" d="M628.6,610.7H1200v-89.8C1200,520.9,756.3,526.5,628.6,610.7z"/>
	<rect y="610.7" class="st21" width="1200" height="29.8"/>
	<rect x="233" y="610.7" class="st22" width="2" height="29.8"/>
	<rect x="268.5" y="610.7" class="st22" width="2" height="29.8"/>
	<rect x="304" y="610.7" class="st22" width="2" height="29.8"/>
	<rect x="339.5" y="610.7" class="st22" width="2" height="29.8"/>
	<rect x="375" y="610.7" class="st22" width="2" height="29.8"/>
	<rect x="410.5" y="610.7" class="st22" width="2" height="29.8"/>
	<rect x="446" y="610.7" class="st22" width="2" height="29.8"/>
	<rect x="481.6" y="610.7" class="st22" width="2" height="29.8"/>
	<rect x="517.1" y="610.7" class="st22" width="2" height="29.8"/>
	<rect x="552.6" y="610.7" class="st22" width="2" height="29.8"/>
	<rect x="588.1" y="610.7" class="st22" width="2" height="29.8"/>
	<rect x="623.6" y="610.7" class="st22" width="2" height="29.8"/>
	<rect x="659.1" y="610.7" class="st22" width="2" height="29.8"/>
	<rect x="694.6" y="610.7" class="st22" width="2" height="29.8"/>
	<rect x="730.1" y="610.7" class="st22" width="2" height="29.8"/>
	<rect x="765.6" y="610.7" class="st22" width="2" height="29.8"/>
	<rect x="801.1" y="610.7" class="st22" width="2" height="29.8"/>
	<rect x="836.6" y="610.7" class="st22" width="2" height="29.8"/>
	<rect x="872.2" y="610.7" class="st22" width="2" height="29.8"/>
	<rect x="907.7" y="610.7" class="st22" width="2" height="29.8"/>
	<rect x="943.2" y="610.7" class="st22" width="2" height="29.8"/>
	<rect x="978.7" y="610.7" class="st22" width="2" height="29.8"/>
	<path class="st23" d="M646.4,610.7c0,0-198.2-72.9-310.4-72.9c-112.3,0-336,21-336,21v51.9h470.5H646.4z"/>
	<ellipse class="st24" cx="795.9" cy="771.5" rx="18.5" ry="5.4"/>
	<ellipse class="st24" cx="1020.6" cy="709.8" rx="18.5" ry="5.4"/>
	<ellipse class="st24" cx="310.8" cy="711.1" rx="11.8" ry="3.5"/>
	<ellipse class="st24" cx="63.1" cy="758.6" rx="11.8" ry="3.5"/>
	<ellipse class="st24" cx="158.5" cy="697" rx="21.4" ry="6.3"/>
	<ellipse class="st24" cx="234" cy="771.1" rx="16.6" ry="4.9"/>
	<ellipse class="st24" cx="46" cy="695.1" rx="10" ry="2.9"/>
	<ellipse class="st24" cx="871.5" cy="697.6" rx="8.3" ry="2.4"/>
	<ellipse class="st24" cx="1030.6" cy="765.7" rx="8.3" ry="2.4"/>
	<ellipse class="st25" cx="1152.5" cy="693.9" rx="4.1" ry="1.2"/>
	<ellipse class="st25" cx="283.7" cy="698.4" rx="4.5" ry="1.3"/>
	<ellipse class="st25" cx="101.2" cy="771.1" rx="4.5" ry="1.3"/>
	<ellipse class="st25" cx="431.7" cy="750" rx="4.5" ry="1.3"/>
	<ellipse class="st25" cx="943.2" cy="711.1" rx="4.5" ry="1.3"/>
	<ellipse class="st26" cx="306.3" cy="554.2" rx="33.6" ry="8"/>
	<ellipse class="st26" cx="351.3" cy="574.7" rx="20.5" ry="4.9"/>
	<ellipse class="st26" cx="474.3" cy="583.3" rx="28" ry="6.6"/>
	<ellipse class="st27" cx="818.9" cy="569.3" rx="28" ry="6.6"/>
	<ellipse class="st28" cx="644.4" cy="550.9" rx="25.7" ry="7.8"/>
	<ellipse class="st28" cx="545.1" cy="561.7" rx="22" ry="5.9"/>
	<ellipse class="st28" cx="692.8" cy="564.3" rx="7" ry="1.9"/>
	<ellipse class="st29" cx="667.4" cy="564.6" rx="5.8" ry="2"/>
	<ellipse class="st29" cx="570.9" cy="570.6" rx="4.2" ry="1.4"/>
	<ellipse class="st30" cx="608.6" cy="538.9" rx="3" ry="1"/>
	<ellipse class="st30" cx="644.4" cy="572" rx="3" ry="1"/>
	<ellipse class="st30" cx="692.8" cy="549.8" rx="3" ry="1"/>
	<ellipse class="st28" cx="569.8" cy="550.9" rx="12.3" ry="3.8"/>
	<ellipse class="st27" cx="857.4" cy="583.3" rx="14.1" ry="5.2"/>
	<ellipse class="st31" cx="879.7" cy="553.8" rx="6.6" ry="1.7"/>
	<ellipse class="st31" cx="1006.5" cy="553" rx="6.6" ry="1.7"/>
	<ellipse class="st31" cx="943.2" cy="566" rx="10.9" ry="1.7"/>
	<ellipse class="st31" cx="1164" cy="531.6" rx="10.9" ry="1.7"/>
	<ellipse class="st31" cx="760.7" cy="586.7" rx="10.9" ry="1.7"/>
	<ellipse class="st32" cx="800.9" cy="587.5" rx="3.2" ry="0.8"/>
	<ellipse class="st32" cx="932.3" cy="546" rx="3.2" ry="0.8"/>
	<ellipse class="st32" cx="1048.2" cy="553.8" rx="3.2" ry="0.8"/>
	<ellipse class="st32" cx="981.2" cy="594" rx="3.2" ry="0.8"/>
	<ellipse class="st32" cx="712.3" cy="594" rx="3.2" ry="0.8"/>
	<ellipse class="st27" cx="966.3" cy="545.2" rx="14.9" ry="3"/>
	<ellipse class="st27" cx="1097.9" cy="548.2" rx="14.9" ry="3"/>
	<ellipse class="st27" cx="937.2" cy="582.1" rx="35.8" ry="7.2"/>
	<ellipse class="st26" cx="426.1" cy="600.3" rx="12.5" ry="2.9"/>
	<ellipse class="st33" cx="237.8" cy="586.2" rx="12.3" ry="2.9"/>
	<ellipse class="st33" cx="376.4" cy="558.8" rx="8.6" ry="2"/>
	<ellipse class="st33" cx="190.5" cy="566" rx="8.6" ry="2"/>
	<ellipse class="st33" cx="324.6" cy="599.2" rx="6.6" ry="1.6"/>
	<ellipse class="st34" cx="289.9" cy="577.4" rx="5.1" ry="1.2"/>
	<ellipse class="st34" cx="400.5" cy="570" rx="2.2" ry="0.7"/>
	<ellipse class="st34" cx="237.8" cy="558.8" rx="2.2" ry="0.7"/>
	<ellipse class="st34" cx="151.2" cy="556.7" rx="2.2" ry="0.7"/>
	<ellipse class="st34" cx="465.1" cy="597.6" rx="2.2" ry="0.7"/>
	<ellipse class="st34" cx="520" cy="589.9" rx="3.1" ry="0.7"/>
	<g>
		<path class="st35" d="M491.1,610.9c0.8-2.2,1.2-4.6,1.2-7.1c0-9.7-6.4-17.9-15.1-20.7c-1.2-15-13.7-26.9-29-26.9
			c-10.7,0-20.1,5.8-25.1,14.4c-2.9-1.2-6-1.9-9.3-1.9c-13,0-23.5,10.5-23.5,23.5c0,0.3,0,0.6,0,0.8c-7.3,1.7-12.7,8.2-12.7,16
			c0,0.6,0,1.2,0.1,1.8H491.1z"/>
		<path class="st36" d="M479.8,610.9c0.7-2,1.1-4.1,1.1-6.4c0-8.7-5.7-16.1-13.6-18.7c-1-13.5-12.4-24.2-26.2-24.2
			c-9.7,0-18.1,5.2-22.7,13c-2.6-1.1-5.4-1.7-8.4-1.7c-11.7,0-21.2,9.5-21.2,21.2c0,0.3,0,0.5,0,0.8c-6.6,1.5-11.5,7.4-11.5,14.4
			c0,0.5,0,1.1,0.1,1.6H479.8z"/>
	</g>
	<path class="st35" d="M735.1,610.8c-0.9-2.7-1.5-5.7-1.5-8.7c0-11.9,7.8-22,18.6-25.4c1.4-18.4,16.8-33,35.6-33
		c13.2,0,24.6,7.1,30.8,17.7c3.5-1.5,7.4-2.3,11.4-2.3c15.9,0,28.9,12.9,28.9,28.9c0,0.3,0,0.7,0,1c8.9,2.1,15.6,10.1,15.6,19.6
		c0,0.7,0,1.5-0.1,2.2H735.1z"/>
	<path class="st36" d="M724.1,610.8c-0.9-2.7-1.5-5.7-1.5-8.7c0-11.9,7.8-22,18.6-25.4c1.4-18.4,16.8-33,35.6-33
		c13.2,0,24.6,7.1,30.8,17.7c3.5-1.5,7.4-2.3,11.4-2.3c15.9,0,28.9,12.9,28.9,28.9c0,0.3,0,0.7,0,1c8.9,2.1,15.6,10.1,15.6,19.6
		c0,0.7,0,1.5-0.1,2.2H724.1z"/>
	<path class="st37" d="M959.2,610.8c0.7-2.1,1.1-4.3,1.1-6.7c0-9.1-6-16.8-14.2-19.5c-1.1-14.1-12.9-25.3-27.3-25.3
		c-10.1,0-18.9,5.4-23.6,13.6c-2.7-1.2-5.6-1.8-8.7-1.8c-12.2,0-22.1,9.9-22.1,22.1c0,0.3,0,0.5,0,0.8c-6.9,1.6-12,7.7-12,15
		c0,0.6,0,1.1,0.1,1.7H959.2z"/>
	<path class="st38" d="M950.5,610.8c0.7-2.1,1.1-4.3,1.1-6.7c0-9.1-6-16.8-14.2-19.5c-1.1-14.1-12.9-25.3-27.3-25.3
		c-10.1,0-18.9,5.4-23.6,13.6c-2.7-1.2-5.6-1.8-8.7-1.8c-12.2,0-22.1,9.9-22.1,22.1c0,0.3,0,0.5,0,0.8c-6.9,1.6-12,7.7-12,15
		c0,0.6,0,1.1,0.1,1.7H950.5z"/>
	<g>
		<path class="st37" d="M283.7,610.8c-0.9-2.6-1.4-5.4-1.4-8.2c0-11.3,7.4-20.8,17.6-24.1c1.3-17.5,15.9-31.2,33.7-31.2
			c12.5,0,23.3,6.7,29.2,16.7c3.3-1.4,7-2.2,10.8-2.2c15.1,0,27.3,12.2,27.3,27.3c0,0.3,0,0.7,0,1c8.5,1.9,14.8,9.5,14.8,18.6
			c0,0.7,0,1.4-0.1,2.1H283.7z"/>
		<path class="st38" d="M273.4,610.8c-0.9-2.6-1.4-5.4-1.4-8.2c0-11.3,7.4-20.8,17.6-24.1c1.3-17.5,15.9-31.2,33.7-31.2
			c12.5,0,23.3,6.7,29.2,16.7c3.3-1.4,7-2.2,10.8-2.2c15.1,0,27.3,12.2,27.3,27.3c0,0.3,0,0.7,0,1c8.5,1.9,14.8,9.5,14.8,18.6
			c0,0.7,0,1.4-0.1,2.1H273.4z"/>
	</g>
	<circle class="st39" cx="759.3" cy="568.9" r="3.5"/>
	<circle class="st39" cx="783.7" cy="560.9" r="3.5"/>
	<circle class="st39" cx="798.8" cy="565.3" r="2.7"/>
	<circle class="st39" cx="798" cy="582.5" r="3.5"/>
	<circle class="st40" cx="900.3" cy="572.2" r="3.2"/>
	<circle class="st40" cx="924" cy="580.4" r="5.5"/>
	<circle class="st40" cx="884.2" cy="591.3" r="5.5"/>
	<circle class="st40" cx="903.5" cy="583.2" r="2.6"/>
	<circle class="st40" cx="879.1" cy="578.6" r="1.8"/>
	<circle class="st40" cx="917.8" cy="569" r="1.8"/>
	<g>
		<circle class="st40" cx="337" cy="569.7" r="3.7"/>
		<circle class="st40" cx="309.5" cy="579.3" r="6.4"/>
		<circle class="st40" cx="355.7" cy="591.9" r="6.4"/>
		<circle class="st40" cx="333.3" cy="582.5" r="3"/>
		<circle class="st40" cx="361.6" cy="577.1" r="2"/>
		<circle class="st40" cx="316.6" cy="566" r="2"/>
	</g>
	<g>
		<path class="st37" d="M684.8,610.8c-0.6-1.7-0.9-3.6-0.9-5.5c0-7.5,4.9-13.9,11.8-16.1c0.9-11.7,10.7-20.9,22.6-20.9
			c8.3,0,15.6,4.5,19.5,11.2c2.2-1,4.7-1.5,7.2-1.5c10.1,0,18.3,8.2,18.3,18.3c0,0.2,0,0.4,0,0.7c5.7,1.3,9.9,6.4,9.9,12.4
			c0,0.5,0,0.9-0.1,1.4H684.8z"/>
		<path class="st38" d="M677.9,610.8c-0.6-1.7-0.9-3.6-0.9-5.5c0-7.5,4.9-13.9,11.8-16.1c0.9-11.7,10.7-20.9,22.6-20.9
			c8.3,0,15.6,4.5,19.5,11.2c2.2-1,4.7-1.5,7.2-1.5c10.1,0,18.3,8.2,18.3,18.3c0,0.2,0,0.4,0,0.7c5.7,1.3,9.9,6.4,9.9,12.4
			c0,0.5,0,0.9-0.1,1.4H677.9z"/>
	</g>
	<g>
		<circle class="st40" cx="720.5" cy="583.3" r="2.5"/>
		<circle class="st40" cx="702.1" cy="589.7" r="4.3"/>
		<circle class="st40" cx="733" cy="598.2" r="4.3"/>
		<circle class="st40" cx="718" cy="591.8" r="2"/>
		<circle class="st40" cx="737" cy="588.3" r="1.4"/>
		<circle class="st40" cx="706.9" cy="580.8" r="1.4"/>
	</g>
	<circle class="st39" cx="826.5" cy="572" r="3.5"/>
	<circle class="st39" cx="778.8" cy="574.7" r="1.6"/>
	<circle class="st39" cx="436.6" cy="571.1" r="3.7"/>
	<circle class="st39" cx="452.5" cy="575.7" r="2.8"/>
	<circle class="st39" cx="451.6" cy="593.9" r="3.7"/>
	<circle class="st39" cx="431.5" cy="585.7" r="1.7"/>
	<circle class="st39" cx="769.3" cy="555.9" r="1.6"/>
	<g>
		<path class="st35" d="M214.6,610.8c-0.6-1.8-1-3.8-1-5.9c0-8,5.3-14.8,12.5-17.1c1-12.4,11.3-22.2,24-22.2
			c8.9,0,16.6,4.8,20.8,11.9c2.4-1,5-1.6,7.7-1.6c10.8,0,19.5,8.7,19.5,19.5c0,0.2,0,0.5,0,0.7c6,1.4,10.5,6.8,10.5,13.2
			c0,0.5,0,1-0.1,1.5H214.6z"/>
		<path class="st36" d="M207.2,610.8c-0.6-1.8-1-3.8-1-5.9c0-8,5.3-14.8,12.5-17.1c1-12.4,11.3-22.2,24-22.2
			c8.9,0,16.6,4.8,20.8,11.9c2.4-1,5-1.6,7.7-1.6c10.8,0,19.5,8.7,19.5,19.5c0,0.2,0,0.5,0,0.7c6,1.4,10.5,6.8,10.5,13.2
			c0,0.5,0,1-0.1,1.5H207.2z"/>
		<circle class="st39" cx="230.9" cy="582.6" r="2.4"/>
		<circle class="st39" cx="247.4" cy="577.1" r="2.4"/>
		<circle class="st39" cx="257.6" cy="580.1" r="1.8"/>
		<circle class="st39" cx="257" cy="591.7" r="2.4"/>
		<circle class="st39" cx="276.3" cy="584.6" r="2.4"/>
		<circle class="st39" cx="244.1" cy="586.4" r="1.1"/>
		<circle class="st39" cx="237.7" cy="573.8" r="1.1"/>
	</g>
	<g>
		<defs>
			<rect id="SVGID_1_" x="986.1" y="492.5" width="213.9" height="118.4"/>
		</defs>
		<clipPath id="SVGID_2_">
			<use xlink:href="#SVGID_1_"  style="overflow:visible;"/>
		</clipPath>
		<path class="st41" d="M1102.3,610.8c-0.9-2.7-1.5-5.7-1.5-8.7c0-11.9,7.8-22,18.6-25.4c1.4-18.4,16.8-33,35.6-33
			c13.2,0,24.6,7.1,30.8,17.7c3.5-1.5,7.4-2.3,11.4-2.3c15.9,0,28.9,12.9,28.9,28.9c0,0.3,0,0.7,0,1c8.9,2.1,15.6,10.1,15.6,19.6
			c0,0.7,0,1.5-0.1,2.2H1102.3z"/>
		<path class="st42" d="M1091.3,610.8c-0.9-2.7-1.5-5.7-1.5-8.7c0-11.9,7.8-22,18.6-25.4c1.4-18.4,16.8-33,35.6-33
			c13.2,0,24.6,7.1,30.8,17.7c3.5-1.5,7.4-2.3,11.4-2.3c15.9,0,28.9,12.9,28.9,28.9c0,0.3,0,0.7,0,1c8.9,2.1,15.6,10.1,15.6,19.6
			c0,0.7,0,1.5-0.1,2.2H1091.3z"/>
		<circle class="st43" cx="1126.5" cy="568.9" r="3.5"/>
		<circle class="st43" cx="1150.9" cy="560.9" r="3.5"/>
		<circle class="st43" cx="1166" cy="565.3" r="2.7"/>
		<circle class="st43" cx="1165.2" cy="582.5" r="3.5"/>
		<g class="st44">
			<path class="st37" d="M1052,610.8c-0.6-1.7-0.9-3.6-0.9-5.5c0-7.5,4.9-13.9,11.8-16.1c0.9-11.7,10.7-20.9,22.6-20.9
				c8.3,0,15.6,4.5,19.5,11.2c2.2-1,4.7-1.5,7.2-1.5c10.1,0,18.3,8.2,18.3,18.3c0,0.2,0,0.4,0,0.7c5.7,1.3,9.9,6.4,9.9,12.4
				c0,0.5,0,0.9-0.1,1.4H1052z"/>
			<path class="st38" d="M1045.1,610.8c-0.6-1.7-0.9-3.6-0.9-5.5c0-7.5,4.9-13.9,11.8-16.1c0.9-11.7,10.7-20.9,22.6-20.9
				c8.3,0,15.6,4.5,19.5,11.2c2.2-1,4.7-1.5,7.2-1.5c10.1,0,18.3,8.2,18.3,18.3c0,0.2,0,0.4,0,0.7c5.7,1.3,9.9,6.4,9.9,12.4
				c0,0.5,0,0.9-0.1,1.4H1045.1z"/>
		</g>
		<g class="st44">
			<circle class="st40" cx="1087.7" cy="583.3" r="2.5"/>
			<circle class="st40" cx="1069.3" cy="589.7" r="4.3"/>
			<circle class="st40" cx="1100.2" cy="598.2" r="4.3"/>
			<circle class="st40" cx="1085.2" cy="591.8" r="2"/>
			<circle class="st40" cx="1104.2" cy="588.3" r="1.4"/>
			<circle class="st40" cx="1074.1" cy="580.8" r="1.4"/>
		</g>
		<circle class="st43" cx="1193.7" cy="572" r="3.5"/>
		<circle class="st43" cx="1146" cy="574.7" r="1.6"/>
		<circle class="st43" cx="1136.5" cy="555.9" r="1.6"/>
	</g>
	<g>
		<defs>
			<rect id="SVGID_3_" y="478.7" width="238.8" height="132.2"/>
		</defs>
		<clipPath id="SVGID_4_">
			<use xlink:href="#SVGID_3_"  style="overflow:visible;"/>
		</clipPath>
		<path class="st45" d="M109.1,610.8c1.1-3,1.7-6.3,1.7-9.7c0-13.3-8.7-24.5-20.7-28.4c-1.6-20.6-18.8-36.8-39.8-36.8
			c-14.7,0-27.5,7.9-34.4,19.7C11.9,554,7.6,553,3.1,553c-17.8,0-32.2,14.4-32.2,32.2c0,0.4,0,0.8,0,1.2
			c-10,2.3-17.4,11.2-17.4,21.9c0,0.8,0.1,1.7,0.1,2.5H109.1z"/>
		<path class="st46" d="M121.3,610.8c1.1-3,1.7-6.3,1.7-9.7c0-13.3-8.7-24.5-20.7-28.4c-1.6-20.6-18.8-36.8-39.8-36.8
			c-14.7,0-27.5,7.9-34.4,19.7c-3.9-1.7-8.2-2.6-12.7-2.6c-17.8,0-32.2,14.4-32.2,32.2c0,0.4,0,0.8,0,1.2
			c-10,2.3-17.4,11.2-17.4,21.9c0,0.8,0.1,1.7,0.1,2.5H121.3z"/>
		<circle class="st47" cx="82" cy="564" r="3.9"/>
		<circle class="st47" cx="54.8" cy="555.1" r="3.9"/>
		<circle class="st47" cx="38" cy="559.9" r="3"/>
		<circle class="st47" cx="38.9" cy="579.2" r="3.9"/>
		<g class="st48">
			<path class="st37" d="M165.2,610.8c0.7-1.9,1-4,1-6.2c0-8.4-5.5-15.6-13.1-18c-1-13-11.9-23.3-25.2-23.3c-9.3,0-17.4,5-21.8,12.5
				c-2.5-1.1-5.2-1.7-8.1-1.7c-11.3,0-20.4,9.1-20.4,20.4c0,0.2,0,0.5,0,0.7c-6.3,1.5-11.1,7.1-11.1,13.9c0,0.5,0,1,0.1,1.6H165.2z"
				/>
			<path class="st38" d="M172.9,610.8c0.7-1.9,1-4,1-6.2c0-8.4-5.5-15.6-13.1-18c-1-13-11.9-23.3-25.2-23.3c-9.3,0-17.4,5-21.8,12.5
				c-2.5-1.1-5.2-1.7-8.1-1.7c-11.3,0-20.4,9.1-20.4,20.4c0,0.2,0,0.5,0,0.7c-6.3,1.5-11.1,7.1-11.1,13.9c0,0.5,0,1,0.1,1.6H172.9z"
				/>
		</g>
		<g class="st48">
			<circle class="st40" cx="125.4" cy="580.1" r="2.8"/>
			<circle class="st40" cx="145.9" cy="587.2" r="4.7"/>
			<circle class="st40" cx="111.4" cy="596.7" r="4.7"/>
			<circle class="st40" cx="128.2" cy="589.6" r="2.2"/>
			<circle class="st40" cx="107" cy="585.6" r="1.5"/>
			<circle class="st40" cx="140.6" cy="577.3" r="1.5"/>
		</g>
		<circle class="st47" cx="7" cy="567.4" r="3.9"/>
		<circle class="st47" cx="60.3" cy="570.5" r="1.8"/>
		<circle class="st47" cx="70.9" cy="549.5" r="1.8"/>
	</g>
	<rect y="587.5" class="st49" width="1200" height="2"/>
	<rect y="601.9" class="st49" width="1200" height="2"/>
	<g>
		<g>
			<rect x="12.8" y="580.5" class="st50" width="5.3" height="30.3"/>
			<circle class="st50" cx="15.5" cy="576.7" r="4.3"/>
			<path class="st49" d="M22.1,582.2c0,0.6-0.4,1-1,1H9.9c-0.6,0-1-0.4-1-1v-1.5c0-0.6,0.4-1,1-1h11.2c0.6,0,1,0.4,1,1V582.2z"/>
		</g>
		<g>
			<rect x="47.8" y="580.5" class="st50" width="5.3" height="30.3"/>
			<circle class="st50" cx="50.5" cy="576.7" r="4.3"/>
			<path class="st49" d="M57.1,582.2c0,0.6-0.4,1-1,1H44.9c-0.6,0-1-0.4-1-1v-1.5c0-0.6,0.4-1,1-1h11.2c0.6,0,1,0.4,1,1V582.2z"/>
		</g>
		<g>
			<rect x="82.8" y="580.5" class="st50" width="5.3" height="30.3"/>
			<circle class="st50" cx="85.5" cy="576.7" r="4.3"/>
			<path class="st49" d="M92.1,582.2c0,0.6-0.4,1-1,1H79.9c-0.6,0-1-0.4-1-1v-1.5c0-0.6,0.4-1,1-1h11.2c0.6,0,1,0.4,1,1V582.2z"/>
		</g>
		<g>
			<rect x="117.9" y="580.5" class="st50" width="5.3" height="30.3"/>
			<circle class="st50" cx="120.5" cy="576.7" r="4.3"/>
			<path class="st49" d="M127.1,582.2c0,0.6-0.4,1-1,1h-11.2c-0.6,0-1-0.4-1-1v-1.5c0-0.6,0.4-1,1-1h11.2c0.6,0,1,0.4,1,1V582.2z"/>
		</g>
		<g>
			<rect x="152.9" y="580.5" class="st50" width="5.3" height="30.3"/>
			<circle class="st50" cx="155.5" cy="576.7" r="4.3"/>
			<path class="st49" d="M162.1,582.2c0,0.6-0.4,1-1,1h-11.2c-0.6,0-1-0.4-1-1v-1.5c0-0.6,0.4-1,1-1h11.2c0.6,0,1,0.4,1,1V582.2z"/>
		</g>
		<g>
			<rect x="187.9" y="580.5" class="st50" width="5.3" height="30.3"/>
			<circle class="st50" cx="190.5" cy="576.7" r="4.3"/>
			<path class="st49" d="M197.1,582.2c0,0.6-0.4,1-1,1h-11.2c-0.6,0-1-0.4-1-1v-1.5c0-0.6,0.4-1,1-1h11.2c0.6,0,1,0.4,1,1V582.2z"/>
		</g>
		<g>
			<rect x="222.9" y="580.5" class="st50" width="5.3" height="30.3"/>
			<circle class="st50" cx="225.5" cy="576.7" r="4.3"/>
			<path class="st49" d="M232.1,582.2c0,0.6-0.4,1-1,1h-11.2c-0.6,0-1-0.4-1-1v-1.5c0-0.6,0.4-1,1-1h11.2c0.6,0,1,0.4,1,1V582.2z"/>
		</g>
		<g>
			<rect x="257.9" y="580.5" class="st50" width="5.3" height="30.3"/>
			<circle class="st50" cx="260.5" cy="576.7" r="4.3"/>
			<path class="st49" d="M267.1,582.2c0,0.6-0.4,1-1,1h-11.2c-0.6,0-1-0.4-1-1v-1.5c0-0.6,0.4-1,1-1h11.2c0.6,0,1,0.4,1,1V582.2z"/>
		</g>
		<g>
			<rect x="292.9" y="580.5" class="st50" width="5.3" height="30.3"/>
			<circle class="st50" cx="295.5" cy="576.7" r="4.3"/>
			<path class="st49" d="M302.1,582.2c0,0.6-0.4,1-1,1h-11.2c-0.6,0-1-0.4-1-1v-1.5c0-0.6,0.4-1,1-1h11.2c0.6,0,1,0.4,1,1V582.2z"/>
		</g>
		<g>
			<rect x="327.9" y="580.5" class="st50" width="5.3" height="30.3"/>
			<circle class="st50" cx="330.5" cy="576.7" r="4.3"/>
			<path class="st49" d="M337.1,582.2c0,0.6-0.4,1-1,1H325c-0.6,0-1-0.4-1-1v-1.5c0-0.6,0.4-1,1-1h11.2c0.6,0,1,0.4,1,1V582.2z"/>
		</g>
		<g>
			<rect x="362.9" y="580.5" class="st50" width="5.3" height="30.3"/>
			<circle class="st50" cx="365.5" cy="576.7" r="4.3"/>
			<path class="st49" d="M372.1,582.2c0,0.6-0.4,1-1,1H360c-0.6,0-1-0.4-1-1v-1.5c0-0.6,0.4-1,1-1h11.2c0.6,0,1,0.4,1,1V582.2z"/>
		</g>
		<g>
			<rect x="397.9" y="580.5" class="st50" width="5.3" height="30.3"/>
			<circle class="st50" cx="400.5" cy="576.7" r="4.3"/>
			<path class="st49" d="M407.1,582.2c0,0.6-0.4,1-1,1H395c-0.6,0-1-0.4-1-1v-1.5c0-0.6,0.4-1,1-1h11.2c0.6,0,1,0.4,1,1V582.2z"/>
		</g>
		<g>
			<rect x="432.9" y="580.5" class="st50" width="5.3" height="30.3"/>
			<circle class="st50" cx="435.5" cy="576.7" r="4.3"/>
			<path class="st49" d="M442.1,582.2c0,0.6-0.4,1-1,1H430c-0.6,0-1-0.4-1-1v-1.5c0-0.6,0.4-1,1-1h11.2c0.6,0,1,0.4,1,1V582.2z"/>
		</g>
		<g>
			<rect x="467.9" y="580.5" class="st50" width="5.3" height="30.3"/>
			<circle class="st50" cx="470.5" cy="576.7" r="4.3"/>
			<path class="st49" d="M477.1,582.2c0,0.6-0.4,1-1,1H465c-0.6,0-1-0.4-1-1v-1.5c0-0.6,0.4-1,1-1h11.2c0.6,0,1,0.4,1,1V582.2z"/>
		</g>
		<g>
			<rect x="502.9" y="580.5" class="st50" width="5.3" height="30.3"/>
			<circle class="st50" cx="505.5" cy="576.7" r="4.3"/>
			<path class="st49" d="M512.1,582.2c0,0.6-0.4,1-1,1H500c-0.6,0-1-0.4-1-1v-1.5c0-0.6,0.4-1,1-1h11.2c0.6,0,1,0.4,1,1V582.2z"/>
		</g>
		<g>
			<rect x="537.9" y="580.5" class="st50" width="5.3" height="30.3"/>
			<circle class="st50" cx="540.5" cy="576.7" r="4.3"/>
			<path class="st49" d="M547.1,582.2c0,0.6-0.4,1-1,1H535c-0.6,0-1-0.4-1-1v-1.5c0-0.6,0.4-1,1-1h11.2c0.6,0,1,0.4,1,1V582.2z"/>
		</g>
		<g>
			<rect x="572.9" y="580.5" class="st50" width="5.3" height="30.3"/>
			<circle class="st50" cx="575.5" cy="576.7" r="4.3"/>
			<path class="st49" d="M582.1,582.2c0,0.6-0.4,1-1,1H570c-0.6,0-1-0.4-1-1v-1.5c0-0.6,0.4-1,1-1h11.2c0.6,0,1,0.4,1,1V582.2z"/>
		</g>
		<g>
			<rect x="607.9" y="580.5" class="st50" width="5.3" height="30.3"/>
			<circle class="st50" cx="610.5" cy="576.7" r="4.3"/>
			<path class="st49" d="M617.1,582.2c0,0.6-0.4,1-1,1H605c-0.6,0-1-0.4-1-1v-1.5c0-0.6,0.4-1,1-1h11.2c0.6,0,1,0.4,1,1V582.2z"/>
		</g>
		<g>
			<rect x="642.9" y="580.5" class="st50" width="5.3" height="30.3"/>
			<circle class="st50" cx="645.6" cy="576.7" r="4.3"/>
			<path class="st49" d="M652.1,582.2c0,0.6-0.4,1-1,1H640c-0.6,0-1-0.4-1-1v-1.5c0-0.6,0.4-1,1-1h11.2c0.6,0,1,0.4,1,1V582.2z"/>
		</g>
		<g>
			<rect x="677.9" y="580.5" class="st50" width="5.3" height="30.3"/>
			<circle class="st50" cx="680.6" cy="576.7" r="4.3"/>
			<path class="st49" d="M687.1,582.2c0,0.6-0.4,1-1,1H675c-0.6,0-1-0.4-1-1v-1.5c0-0.6,0.4-1,1-1h11.2c0.6,0,1,0.4,1,1V582.2z"/>
		</g>
		<g>
			<rect x="712.9" y="580.5" class="st50" width="5.3" height="30.3"/>
			<circle class="st50" cx="715.6" cy="576.7" r="4.3"/>
			<path class="st49" d="M722.1,582.2c0,0.6-0.4,1-1,1H710c-0.6,0-1-0.4-1-1v-1.5c0-0.6,0.4-1,1-1h11.2c0.6,0,1,0.4,1,1V582.2z"/>
		</g>
		<g>
			<rect x="747.9" y="580.5" class="st50" width="5.3" height="30.3"/>
			<circle class="st50" cx="750.6" cy="576.7" r="4.3"/>
			<path class="st49" d="M757.1,582.2c0,0.6-0.4,1-1,1H745c-0.6,0-1-0.4-1-1v-1.5c0-0.6,0.4-1,1-1h11.2c0.6,0,1,0.4,1,1V582.2z"/>
		</g>
		<g>
			<rect x="782.9" y="580.5" class="st50" width="5.3" height="30.3"/>
			<circle class="st50" cx="785.6" cy="576.7" r="4.3"/>
			<path class="st49" d="M792.1,582.2c0,0.6-0.4,1-1,1H780c-0.6,0-1-0.4-1-1v-1.5c0-0.6,0.4-1,1-1h11.2c0.6,0,1,0.4,1,1V582.2z"/>
		</g>
	</g>
	<g>
		<g>
			<rect x="817.9" y="580.5" class="st50" width="5.3" height="30.3"/>
			<circle class="st50" cx="820.6" cy="576.7" r="4.3"/>
			<path class="st49" d="M827.1,582.2c0,0.6-0.4,1-1,1H815c-0.6,0-1-0.4-1-1v-1.5c0-0.6,0.4-1,1-1h11.2c0.6,0,1,0.4,1,1V582.2z"/>
		</g>
		<g>
			<rect x="852.9" y="580.5" class="st50" width="5.3" height="30.3"/>
			<circle class="st50" cx="855.6" cy="576.7" r="4.3"/>
			<path class="st49" d="M862.1,582.2c0,0.6-0.4,1-1,1H850c-0.6,0-1-0.4-1-1v-1.5c0-0.6,0.4-1,1-1h11.2c0.6,0,1,0.4,1,1V582.2z"/>
		</g>
		<g>
			<rect x="887.9" y="580.5" class="st50" width="5.3" height="30.3"/>
			<circle class="st50" cx="890.6" cy="576.7" r="4.3"/>
			<path class="st49" d="M897.1,582.2c0,0.6-0.4,1-1,1H885c-0.6,0-1-0.4-1-1v-1.5c0-0.6,0.4-1,1-1h11.2c0.6,0,1,0.4,1,1V582.2z"/>
		</g>
		<g>
			<rect x="922.9" y="580.5" class="st50" width="5.3" height="30.3"/>
			<circle class="st50" cx="925.6" cy="576.7" r="4.3"/>
			<path class="st49" d="M932.2,582.2c0,0.6-0.4,1-1,1H920c-0.6,0-1-0.4-1-1v-1.5c0-0.6,0.4-1,1-1h11.2c0.6,0,1,0.4,1,1V582.2z"/>
		</g>
		<g>
			<rect x="957.9" y="580.5" class="st50" width="5.3" height="30.3"/>
			<circle class="st50" cx="960.6" cy="576.7" r="4.3"/>
			<path class="st49" d="M967.2,582.2c0,0.6-0.4,1-1,1H955c-0.6,0-1-0.4-1-1v-1.5c0-0.6,0.4-1,1-1h11.2c0.6,0,1,0.4,1,1V582.2z"/>
		</g>
		<g>
			<rect x="992.9" y="580.5" class="st50" width="5.3" height="30.3"/>
			<circle class="st50" cx="995.6" cy="576.7" r="4.3"/>
			<path class="st49" d="M1002.2,582.2c0,0.6-0.4,1-1,1H990c-0.6,0-1-0.4-1-1v-1.5c0-0.6,0.4-1,1-1h11.2c0.6,0,1,0.4,1,1V582.2z"/>
		</g>
		<g>
			<rect x="1027.9" y="580.5" class="st50" width="5.3" height="30.3"/>
			<circle class="st50" cx="1030.6" cy="576.7" r="4.3"/>
			<path class="st49" d="M1037.2,582.2c0,0.6-0.4,1-1,1H1025c-0.6,0-1-0.4-1-1v-1.5c0-0.6,0.4-1,1-1h11.2c0.6,0,1,0.4,1,1V582.2z"/>
		</g>
		<g>
			<rect x="1062.9" y="580.5" class="st50" width="5.3" height="30.3"/>
			<circle class="st50" cx="1065.6" cy="576.7" r="4.3"/>
			<path class="st49" d="M1072.2,582.2c0,0.6-0.4,1-1,1H1060c-0.6,0-1-0.4-1-1v-1.5c0-0.6,0.4-1,1-1h11.2c0.6,0,1,0.4,1,1V582.2z"/>
		</g>
		<g>
			<rect x="1097.9" y="580.5" class="st50" width="5.3" height="30.3"/>
			<circle class="st50" cx="1100.6" cy="576.7" r="4.3"/>
			<path class="st49" d="M1107.2,582.2c0,0.6-0.4,1-1,1H1095c-0.6,0-1-0.4-1-1v-1.5c0-0.6,0.4-1,1-1h11.2c0.6,0,1,0.4,1,1V582.2z"/>
		</g>
		<g>
			<rect x="1132.9" y="580.5" class="st50" width="5.3" height="30.3"/>
			<circle class="st50" cx="1135.6" cy="576.7" r="4.3"/>
			<path class="st49" d="M1142.2,582.2c0,0.6-0.4,1-1,1H1130c-0.6,0-1-0.4-1-1v-1.5c0-0.6,0.4-1,1-1h11.2c0.6,0,1,0.4,1,1V582.2z"/>
		</g>
		<g>
			<rect x="1167.9" y="580.5" class="st50" width="5.3" height="30.3"/>
			<circle class="st50" cx="1170.6" cy="576.7" r="4.3"/>
			<path class="st49" d="M1177.2,582.2c0,0.6-0.4,1-1,1H1165c-0.6,0-1-0.4-1-1v-1.5c0-0.6,0.4-1,1-1h11.2c0.6,0,1,0.4,1,1V582.2z"/>
		</g>
	</g>
	<path class="st51" d="M649.9,318.2c3.4-2.5,9-1,9.4,4.8c0,0-1.8-4.3-5.4-5.1C651.6,317.3,649.9,318.2,649.9,318.2z"/>
</g>
<g id="_x38_00x800">
</g>
<g id="DESIGNED_BY_FREEPIK">
</g>
</svg>
