<?xml version="1.0" encoding="utf-8"?>
<!-- Generator: Adobe Illustrator 18.0.0, SVG Export Plug-In . SVG Version: 6.00 Build 0)  -->
<!DOCTYPE svg PUBLIC "-//W3C//DTD SVG 1.1//EN" "http://www.w3.org/Graphics/SVG/1.1/DTD/svg11.dtd">
<svg version="1.1" id="Layer_1" xmlns="http://www.w3.org/2000/svg" xmlns:xlink="http://www.w3.org/1999/xlink" x="0px" y="0px"
	 viewBox="0 0 290 155" enable-background="new 0 0 290 155" xml:space="preserve">
<g>
	
		<radialGradient id="SVGID_1_" cx="861.5466" cy="1257.0269" r="238.9059" gradientTransform="matrix(0.2081 0 0 7.456945e-03 -115.7143 124.4643)" gradientUnits="userSpaceOnUse">
		<stop  offset="0" style="stop-color:#000000"/>
		<stop  offset="1" style="stop-color:#000000;stop-opacity:0"/>
	</radialGradient>
	<ellipse opacity="0.8" fill="url(#SVGID_1_)" cx="63.6" cy="133.8" rx="49.9" ry="1.9"/>
	
		<radialGradient id="SVGID_2_" cx="1646.0345" cy="1257.0269" r="238.9056" gradientTransform="matrix(0.2081 0 0 7.456945e-03 -115.7143 124.4643)" gradientUnits="userSpaceOnUse">
		<stop  offset="0" style="stop-color:#000000"/>
		<stop  offset="1" style="stop-color:#000000;stop-opacity:0"/>
	</radialGradient>
	<ellipse opacity="0.8" fill="url(#SVGID_2_)" cx="226.8" cy="133.8" rx="49.9" ry="1.9"/>
	
		<radialGradient id="SVGID_3_" cx="630.3148" cy="637.9794" r="238.8733" gradientTransform="matrix(0.59 0 0 1.392615e-02 -225.9789 124.9536)" gradientUnits="userSpaceOnUse">
		<stop  offset="0" style="stop-color:#000000"/>
		<stop  offset="1" style="stop-color:#000000;stop-opacity:0"/>
	</radialGradient>
	<ellipse opacity="0.8" fill="url(#SVGID_3_)" cx="145.9" cy="133.8" rx="141.5" ry="3.5"/>
	<g>
		<linearGradient id="SVGID_4_" gradientUnits="userSpaceOnUse" x1="171.5341" y1="60.4927" x2="205.3644" y2="32.1056">
			<stop  offset="5.650790e-02" style="stop-color:#FFFFFF"/>
			<stop  offset="7.970560e-02" style="stop-color:#FAFDFE"/>
			<stop  offset="0.2282" style="stop-color:#DCF0FA"/>
			<stop  offset="0.3556" style="stop-color:#CAE8F8"/>
			<stop  offset="0.4463" style="stop-color:#C3E5F7"/>
			<stop  offset="0.4961" style="stop-color:#D9EEFA"/>
			<stop  offset="0.555" style="stop-color:#EAF6FC"/>
			<stop  offset="0.6273" style="stop-color:#F6FBFE"/>
			<stop  offset="0.7265" style="stop-color:#FDFEFF"/>
			<stop  offset="0.9779" style="stop-color:#FFFFFF"/>
		</linearGradient>
		<path fill="url(#SVGID_4_)" d="M176.1,20.5c0,0,23.1,28.8,30.3,47h-29L176.1,20.5z"/>
		<linearGradient id="SVGID_5_" gradientUnits="userSpaceOnUse" x1="142.5789" y1="114.1079" x2="142.5789" y2="19.294">
			<stop  offset="3.015020e-03" style="stop-color:#348223"/>
			<stop  offset="0.4847" style="stop-color:#78B92E"/>
			<stop  offset="0.997" style="stop-color:#C5F73B"/>
		</linearGradient>
		<path fill="url(#SVGID_5_)" d="M17.4,83c0-7.2,0.8-10.7,7.2-12.1c6.4-1.3,31.3-3.3,31.3-3.3s35.2-44.2,37.4-46.1
			c2.6-2.2,3-2.2,6.9-2.2c0,0,71.9,0,73.6,0c2.2,0,2.6,0.2,4,3.2c1.3,2.7,16.3,42.1,16.3,42.1s68.6,14.8,71.1,15.3
			c2.5,0.5,2.5,1.5,2.5,3.5c0,2,0,30.7,0,30.7h-13.1l-3.1-11.7h-48.8l-2.9,11.7H90.1l-3.2-10.6H38.5L35,114.1H17.4
			C17.4,114.1,17.4,90.2,17.4,83z"/>
		<linearGradient id="SVGID_6_" gradientUnits="userSpaceOnUse" x1="142.5789" y1="137.4764" x2="142.5789" y2="100.2994">
			<stop  offset="0.4088" style="stop-color:#000000"/>
			<stop  offset="0.4175" style="stop-color:#000000;stop-opacity:0.9842"/>
			<stop  offset="0.9578" style="stop-color:#000000;stop-opacity:0"/>
		</linearGradient>
		<path fill="url(#SVGID_6_)" d="M17.4,98.6c0,7.9,0,15.5,0,15.5H35l3.5-10.6h48.4l3.2,10.6h109.8l2.9-11.7h48.8l3.1,11.7h13.1
			c0,0,0-7.8,0-15.5H17.4z"/>
		<linearGradient id="SVGID_7_" gradientUnits="userSpaceOnUse" x1="142.5789" y1="98.521" x2="142.5789" y2="59.6468">
			<stop  offset="0" style="stop-color:#FFFFFF"/>
			<stop  offset="0.5574" style="stop-color:#F7F7F7;stop-opacity:0"/>
		</linearGradient>
		<path opacity="0.2" fill="url(#SVGID_7_)" d="M265.2,81.1c-2.5-0.5-71.1-15.3-71.1-15.3s-15-39.3-16.3-42.1
			c-1.4-3.1-1.8-3.2-4-3.2c-1.7,0-73.6,0-73.6,0c-4,0-4.4,0-6.9,2.2c-2.1,1.9-37.4,46.1-37.4,46.1s-24.8,1.9-31.3,3.3
			c-6.4,1.3-7.2,4.9-7.2,12.1c0,3.2,0,8,0,14.3h250.3c0-7.3,0-12.9,0-13.9C267.7,82.6,267.7,81.6,265.2,81.1z"/>
		<linearGradient id="SVGID_8_" gradientUnits="userSpaceOnUse" x1="24.6207" y1="122.0089" x2="24.6207" y2="93.3923">
			<stop  offset="0" style="stop-color:#5E5E5E"/>
			<stop  offset="0.2517" style="stop-color:#616161"/>
			<stop  offset="0.3921" style="stop-color:#696969"/>
			<stop  offset="0.5051" style="stop-color:#777777"/>
			<stop  offset="0.6036" style="stop-color:#8A8A8A"/>
			<stop  offset="0.6925" style="stop-color:#A4A4A4"/>
			<stop  offset="0.7746" style="stop-color:#C3C3C3"/>
			<stop  offset="0.8499" style="stop-color:#E7E7E7"/>
			<stop  offset="0.8786" style="stop-color:#F7F7F7"/>
		</linearGradient>
		<path fill="url(#SVGID_8_)" d="M28.8,115.4c0,0-5.4,0-9.6,0c-4.2,0-5-1.8-5-5.8c0-4,0-11,0-11H35C35,98.6,32.8,108.1,28.8,115.4z"
			/>
		<g>
			<linearGradient id="SVGID_9_" gradientUnits="userSpaceOnUse" x1="15.6395" y1="111.0094" x2="15.6395" y2="104.376">
				<stop  offset="0" style="stop-color:#910009"/>
				<stop  offset="2.716124e-02" style="stop-color:#970109"/>
				<stop  offset="0.1849" style="stop-color:#B40809"/>
				<stop  offset="0.3526" style="stop-color:#CB0E08"/>
				<stop  offset="0.5327" style="stop-color:#DB1208"/>
				<stop  offset="0.7341" style="stop-color:#E51408"/>
				<stop  offset="1" style="stop-color:#E81508"/>
			</linearGradient>
			<path fill="url(#SVGID_9_)" d="M17.7,104.4h-4.1c0,0,0,2.4,0,4.3c0,2.4,0.1,2.3,0.6,2.3c0.5,0,1.4,0,1.8,0c1.7,0,1.7-0.2,1.7-3.2
				C17.7,104.8,17.7,104.4,17.7,104.4z"/>
			<linearGradient id="SVGID_10_" gradientUnits="userSpaceOnUse" x1="15.6394" y1="104.376" x2="15.6394" y2="101.3423">
				<stop  offset="3.015020e-03" style="stop-color:#F7DE00"/>
				<stop  offset="0.2993" style="stop-color:#F6DB00"/>
				<stop  offset="0.51" style="stop-color:#F4D201"/>
				<stop  offset="0.6942" style="stop-color:#F1C203"/>
				<stop  offset="0.862" style="stop-color:#ECAC06"/>
				<stop  offset="1" style="stop-color:#E69409"/>
			</linearGradient>
			<path fill="url(#SVGID_10_)" d="M17.7,104.4c0-1.7,0-3,0-3h-4.1c0,0,0,1.4,0,3H17.7z"/>
		</g>
		<g>
			
				<linearGradient id="SVGID_11_" gradientUnits="userSpaceOnUse" x1="-403.3181" y1="-1014.4282" x2="-403.3181" y2="-1022.854" gradientTransform="matrix(-1 0 0 -1 -385.2373 -935.6982)">
				<stop  offset="0" style="stop-color:#E81508"/>
				<stop  offset="0.4625" style="stop-color:#E61508"/>
				<stop  offset="0.6291" style="stop-color:#DF1308"/>
				<stop  offset="0.7478" style="stop-color:#D41008"/>
				<stop  offset="0.8438" style="stop-color:#C30C08"/>
				<stop  offset="0.9251" style="stop-color:#AD0709"/>
				<stop  offset="0.9967" style="stop-color:#920009"/>
				<stop  offset="1" style="stop-color:#910009"/>
			</linearGradient>
			<path fill="url(#SVGID_11_)" d="M14.4,87.2h7.4c0,0,0-3.9,0-5.9c0-2.1-0.3-2.5-1.6-2.5c-1.3,0-1.9,0-3,0c-1.4,0-2.8,0.2-2.8,3.4
				C14.4,85.3,14.4,87.2,14.4,87.2z"/>
			
				<linearGradient id="SVGID_12_" gradientUnits="userSpaceOnUse" x1="-403.3181" y1="-1022.854" x2="-403.3181" y2="-1027.7437" gradientTransform="matrix(-1 0 0 -1 -385.2373 -935.6982)">
				<stop  offset="3.015020e-03" style="stop-color:#F7DE00"/>
				<stop  offset="1" style="stop-color:#E69409"/>
			</linearGradient>
			<path fill="url(#SVGID_12_)" d="M14.4,87.2c0,1.8,0,4.9,0,4.9h7.4c0,0,0-3.1,0-4.9H14.4z"/>
		</g>
		<g>
			<g>
				
					<linearGradient id="SVGID_13_" gradientUnits="userSpaceOnUse" x1="62.9579" y1="124.9591" x2="62.9579" y2="82.4438" gradientTransform="matrix(1 -1.800000e-03 1.800000e-03 1 -0.2021 0.14)">
					<stop  offset="3.015020e-03" style="stop-color:#348223"/>
					<stop  offset="0.3273" style="stop-color:#217212"/>
					<stop  offset="0.6955" style="stop-color:#126605"/>
					<stop  offset="1" style="stop-color:#0D6200"/>
				</linearGradient>
				<path fill="url(#SVGID_13_)" d="M62.9,86.8c-15,0-27.1,11.6-27.1,25.8l54.2-0.1C90,98.3,77.9,86.8,62.9,86.8z"/>
				
					<linearGradient id="SVGID_14_" gradientUnits="userSpaceOnUse" x1="62.958" y1="84.3265" x2="62.958" y2="120.1756" gradientTransform="matrix(1 -1.800000e-03 1.800000e-03 1 -0.2021 0.14)">
					<stop  offset="3.015020e-03" style="stop-color:#D4F774"/>
					<stop  offset="0.1513" style="stop-color:#AEDD61"/>
					<stop  offset="0.3394" style="stop-color:#84C04C"/>
					<stop  offset="0.523" style="stop-color:#63A93B"/>
					<stop  offset="0.698" style="stop-color:#4B9930"/>
					<stop  offset="0.861" style="stop-color:#3D8F28"/>
					<stop  offset="1" style="stop-color:#388C26"/>
				</linearGradient>
				<path fill="url(#SVGID_14_)" d="M36.4,114.2C37.7,100.1,49.1,89,62.9,89c13.8,0,25.2,10.9,26.6,25l1.4,0c0,0,0,0,0,0
					c0-15.4-12.6-28-28-27.9c-15.4,0-27.9,12.6-27.9,28c0,0,0,0,0,0L36.4,114.2z"/>
			</g>
			<g>
				
					<radialGradient id="SVGID_15_" cx="65.4709" cy="110.116" r="24.219" gradientTransform="matrix(0.9998 2.190000e-02 -2.190000e-02 0.9998 -8.650453e-02 1.8511)" gradientUnits="userSpaceOnUse">
					<stop  offset="0" style="stop-color:#000000"/>
					<stop  offset="0.4223" style="stop-color:#020202"/>
					<stop  offset="0.637" style="stop-color:#0A0A0A"/>
					<stop  offset="0.8049" style="stop-color:#171717"/>
					<stop  offset="0.9477" style="stop-color:#2A2A2A"/>
					<stop  offset="1" style="stop-color:#333333"/>
				</radialGradient>
				<circle fill="url(#SVGID_15_)" cx="63" cy="113.4" r="20.5"/>
				
					<radialGradient id="SVGID_16_" cx="65.4711" cy="110.116" r="13.2958" gradientTransform="matrix(0.9998 2.190000e-02 -2.190000e-02 0.9998 -8.650453e-02 1.8511)" gradientUnits="userSpaceOnUse">
					<stop  offset="3.015020e-03" style="stop-color:#3B3B3B"/>
					<stop  offset="1" style="stop-color:#333333"/>
				</radialGradient>
				<circle fill="url(#SVGID_16_)" cx="63" cy="113.4" r="13.3"/>
				
					<radialGradient id="SVGID_17_" cx="65.4711" cy="110.116" r="14.0476" gradientTransform="matrix(0.9998 2.190000e-02 -2.190000e-02 0.9998 -8.650453e-02 1.8511)" gradientUnits="userSpaceOnUse">
					<stop  offset="0.2973" style="stop-color:#333333"/>
					<stop  offset="0.5033" style="stop-color:#757575"/>
					<stop  offset="0.7397" style="stop-color:#BBBBBB"/>
					<stop  offset="0.9105" style="stop-color:#E7E7E7"/>
					<stop  offset="0.997" style="stop-color:#F7F7F7"/>
				</radialGradient>
				<circle fill="url(#SVGID_17_)" cx="63" cy="113.4" r="12.2"/>
				<circle fill="#CFCFCF" cx="63" cy="113.4" r="8.3"/>
				
					<radialGradient id="SVGID_18_" cx="65.4711" cy="110.1161" r="5.1784" gradientTransform="matrix(0.9998 2.190000e-02 -2.190000e-02 0.9998 -8.650453e-02 1.8511)" gradientUnits="userSpaceOnUse">
					<stop  offset="0.3884" style="stop-color:#333333"/>
					<stop  offset="0.5465" style="stop-color:#2D2D2D"/>
					<stop  offset="0.75" style="stop-color:#1D1D1D"/>
					<stop  offset="0.9775" style="stop-color:#030303"/>
					<stop  offset="1" style="stop-color:#000000"/>
				</radialGradient>
				<circle opacity="0.6" fill="url(#SVGID_18_)" cx="63" cy="113.4" r="5.2"/>
			</g>
		</g>
		<linearGradient id="SVGID_19_" gradientUnits="userSpaceOnUse" x1="138.0525" y1="65.4605" x2="180.4566" y2="29.8792">
			<stop  offset="5.650790e-02" style="stop-color:#FFFFFF"/>
			<stop  offset="8.364039e-02" style="stop-color:#F7FCFF"/>
			<stop  offset="0.1597" style="stop-color:#E5F7FF"/>
			<stop  offset="0.2139" style="stop-color:#DEF5FF"/>
			<stop  offset="0.2297" style="stop-color:#E3F7FF"/>
			<stop  offset="0.2928" style="stop-color:#F3FBFF"/>
			<stop  offset="0.3651" style="stop-color:#FCFEFF"/>
			<stop  offset="0.466" style="stop-color:#FFFFFF"/>
			<stop  offset="0.6863" style="stop-color:#CAE1F9"/>
			<stop  offset="0.7986" style="stop-color:#E4EFFC"/>
			<stop  offset="0.9363" style="stop-color:#FFFFFF"/>
		</linearGradient>
		<path fill="url(#SVGID_19_)" d="M137.4,22.5v42.1h53.5c0,0-13.1-37.1-14.8-39.7c-1.5-2.4-1.6-2.4-5.6-2.4
			C165.7,22.5,137.4,22.5,137.4,22.5z"/>
		<linearGradient id="SVGID_20_" gradientUnits="userSpaceOnUse" x1="79.4668" y1="72.8226" x2="132.4348" y2="28.3772">
			<stop  offset="0.3709" style="stop-color:#FFFFFF"/>
			<stop  offset="0.5601" style="stop-color:#CAE1F9"/>
			<stop  offset="0.6847" style="stop-color:#EBF4FD"/>
			<stop  offset="0.7757" style="stop-color:#FFFFFF"/>
			<stop  offset="0.8043" style="stop-color:#FDFEFF"/>
			<stop  offset="0.8146" style="stop-color:#F6FAFD"/>
			<stop  offset="0.8219" style="stop-color:#EBF3FB"/>
			<stop  offset="0.8226" style="stop-color:#E9F2FB"/>
			<stop  offset="0.8826" style="stop-color:#F7FBFE"/>
			<stop  offset="0.9373" style="stop-color:#FFFFFF"/>
		</linearGradient>
		<path fill="url(#SVGID_20_)" d="M127.8,22.5v42.1H72.9c0,0,21.5-35.4,24.7-39c2.8-3.1,2.8-3.1,7.2-3.1
			C107.3,22.5,127.8,22.5,127.8,22.5z"/>
		<g opacity="0.16">
			<path fill="#1D1D1B" d="M72.9,67.1c0,0,0,0.9,0.1,2.3c0,1.5,0.1,3.6,0.2,6.2c0,1.3,0.1,2.7,0.1,4.1c0,0.2,0-0.1,0-0.1
				c0,0,0.1,0.1,0.2,0.1c0.1,0.1,0.3,0.2,0.5,0.2c0.3,0.1,0.7,0.3,1,0.4c0.7,0.3,1.4,0.6,2.2,1c2.9,1.4,5.9,3.2,8.5,5.6
				c2.6,2.3,4.7,5.1,6.2,8c1.5,2.9,2.4,5.8,2.9,8.3c0.5,2.5,0.6,4.7,0.6,6.2c0,0.7,0,1.3,0,1.7c0,0.4,0,0.6,0,0.6s0-0.9-0.2-2.3
				c-0.1-1.5-0.4-3.6-1-6.1c-0.6-2.5-1.6-5.3-3.1-8c-1.5-2.8-3.6-5.4-6.1-7.7c-2.5-2.3-5.3-4.1-8.2-5.5c-0.7-0.4-1.4-0.7-2.1-1
				c-0.4-0.2-0.7-0.3-1-0.5c-0.2-0.1-0.3-0.2-0.5-0.3c-0.1-0.1-0.2-0.1-0.3-0.2c0,0-0.2-0.3-0.2-0.3l0,0c0,0,0-0.2,0-0.1l0,0l0-0.1
				c0-1.5,0.1-2.9,0.1-4.1c0-2.6,0.1-4.7,0.2-6.2C72.9,67.9,72.9,67.1,72.9,67.1z"/>
		</g>
		<g opacity="0.16">
			<path fill="#1D1D1B" d="M134,69c0,0,0,0.7,0.1,1.9c0,1.2,0.1,2.9,0.2,4.9c0,2,0.1,4.4,0.2,7c0,2.6,0,5.3,0.1,8c0,2.7,0,5.4-0.1,8
				c0,2.6-0.1,4.9-0.2,7c0,2-0.1,3.7-0.2,4.9c-0.1,1.2-0.1,1.9-0.1,1.9s0-0.7-0.1-1.9c0-1.2-0.1-2.9-0.2-4.9c0-2-0.1-4.4-0.2-7
				c0-2.6,0-5.3-0.1-8c0-2.7,0-5.4,0.1-8c0-2.6,0.1-4.9,0.2-7c0-2,0.1-3.7,0.2-4.9C134,69.7,134,69,134,69z"/>
		</g>
		<g opacity="0.16">
			<path fill="#1D1D1B" d="M190.9,69c0,0,0,0.7,0.1,1.9c0,1.2,0.1,2.9,0.2,4.9c0,2,0.1,4.4,0.2,7c0,2.6,0,5.3,0.1,8
				c0,2.7,0,5.4-0.1,8c0,2.6-0.1,4.9-0.2,7c0,2-0.1,3.7-0.2,4.9c-0.1,1.2-0.1,1.9-0.1,1.9s0-0.7-0.1-1.9c0-1.2-0.1-2.9-0.2-4.9
				c0-2-0.1-4.4-0.2-7c0-2.6,0-5.3-0.1-8c0-2.7,0-5.4,0.1-8c0-2.6,0.1-4.9,0.2-7c0-2,0.1-3.7,0.2-4.9C190.8,69.7,190.9,69,190.9,69z
				"/>
		</g>
		<linearGradient id="SVGID_21_" gradientUnits="userSpaceOnUse" x1="259.9263" y1="120.2746" x2="259.9263" y2="91.9572">
			<stop  offset="0" style="stop-color:#5E5E5E"/>
			<stop  offset="0.2517" style="stop-color:#616161"/>
			<stop  offset="0.3921" style="stop-color:#696969"/>
			<stop  offset="0.5051" style="stop-color:#777777"/>
			<stop  offset="0.6036" style="stop-color:#8A8A8A"/>
			<stop  offset="0.6925" style="stop-color:#A4A4A4"/>
			<stop  offset="0.7746" style="stop-color:#C3C3C3"/>
			<stop  offset="0.8499" style="stop-color:#E7E7E7"/>
			<stop  offset="0.8786" style="stop-color:#F7F7F7"/>
		</linearGradient>
		<path fill="url(#SVGID_21_)" d="M272.5,98.5c-0.1,0,0,5.8,0,10.3c0,2.5,0,6.7-3.5,6.7c-3.8,0-12.1,0-13.2,0c-1.1,0-8.6-17-8.6-17
			S272.6,98.5,272.5,98.5z"/>
		<g>
			<linearGradient id="SVGID_22_" gradientUnits="userSpaceOnUse" x1="196.9285" y1="78.3483" x2="178.7465" y2="53.2571">
				<stop  offset="0" style="stop-color:#F7F7F7"/>
				<stop  offset="0.3212" style="stop-color:#B0B0B0"/>
				<stop  offset="0.6423" style="stop-color:#6F6F6F"/>
				<stop  offset="0.875" style="stop-color:#474747"/>
				<stop  offset="0.9953" style="stop-color:#383838"/>
			</linearGradient>
			<path fill="url(#SVGID_22_)" d="M180.9,56.7l6.3,11.7c0,0,2.5,0,3-3.1l-9.3-9.7V56.7z"/>
			<linearGradient id="SVGID_23_" gradientUnits="userSpaceOnUse" x1="173.5969" y1="63.3173" x2="184.5156" y2="49.9873">
				<stop  offset="0.4291" style="stop-color:#8C8C8C"/>
				<stop  offset="0.5658" style="stop-color:#8F8F8F"/>
				<stop  offset="0.672" style="stop-color:#999999"/>
				<stop  offset="0.768" style="stop-color:#AAAAAA"/>
				<stop  offset="0.858" style="stop-color:#C1C1C1"/>
				<stop  offset="0.943" style="stop-color:#DFDFDF"/>
				<stop  offset="1" style="stop-color:#F7F7F7"/>
			</linearGradient>
			<path fill="url(#SVGID_23_)" d="M178.2,63.2h0.8c1.5,0,2.7-0.8,2.7-1.8V51.1c0-1-1.2-1.8-2.7-1.8h-0.8V63.2z"/>
		</g>
		<g>
			<linearGradient id="SVGID_24_" gradientUnits="userSpaceOnUse" x1="89.5274" y1="78.1613" x2="89.5274" y2="72.6447">
				<stop  offset="0.2973" style="stop-color:#333333"/>
				<stop  offset="0.4749" style="stop-color:#787878"/>
				<stop  offset="0.6358" style="stop-color:#AFAFAF"/>
				<stop  offset="0.7736" style="stop-color:#D6D6D6"/>
				<stop  offset="0.8828" style="stop-color:#EEEEEE"/>
				<stop  offset="0.9499" style="stop-color:#F7F7F7"/>
			</linearGradient>
			<path fill="url(#SVGID_24_)" d="M96.1,74.7v-0.5c0-1-0.8-1.7-1.7-1.7h-9.7c-1,0-1.7,0.8-1.7,1.7v0.5H96.1z"/>
			<linearGradient id="SVGID_25_" gradientUnits="userSpaceOnUse" x1="89.5274" y1="77.9331" x2="89.5274" y2="74.6646">
				<stop  offset="0" style="stop-color:#000000;stop-opacity:0"/>
				<stop  offset="0.8581" style="stop-color:#000000;stop-opacity:0.8581"/>
				<stop  offset="1" style="stop-color:#000000"/>
			</linearGradient>
			<rect x="83" y="74.7" opacity="0.2" fill="url(#SVGID_25_)" width="13.1" height="3.3"/>
		</g>
		<g>
			<linearGradient id="SVGID_26_" gradientUnits="userSpaceOnUse" x1="147.4273" y1="78.1613" x2="147.4273" y2="72.6447">
				<stop  offset="0.2973" style="stop-color:#333333"/>
				<stop  offset="0.4749" style="stop-color:#787878"/>
				<stop  offset="0.6358" style="stop-color:#AFAFAF"/>
				<stop  offset="0.7736" style="stop-color:#D6D6D6"/>
				<stop  offset="0.8828" style="stop-color:#EEEEEE"/>
				<stop  offset="0.9499" style="stop-color:#F7F7F7"/>
			</linearGradient>
			<path fill="url(#SVGID_26_)" d="M154,74.7v-0.5c0-1-0.8-1.7-1.7-1.7h-9.7c-1,0-1.7,0.8-1.7,1.7v0.5H154z"/>
			<linearGradient id="SVGID_27_" gradientUnits="userSpaceOnUse" x1="147.4273" y1="77.9331" x2="147.4273" y2="74.6646">
				<stop  offset="0" style="stop-color:#000000;stop-opacity:0"/>
				<stop  offset="0.8581" style="stop-color:#000000;stop-opacity:0.8581"/>
				<stop  offset="1" style="stop-color:#000000"/>
			</linearGradient>
			<rect x="140.9" y="74.7" opacity="0.2" fill="url(#SVGID_27_)" width="13.1" height="3.3"/>
		</g>
		<linearGradient id="SVGID_28_" gradientUnits="userSpaceOnUse" x1="263.7552" y1="100.6625" x2="263.7552" y2="77.3909">
			<stop  offset="0" style="stop-color:#333333"/>
			<stop  offset="0.154" style="stop-color:#555555"/>
			<stop  offset="0.5661" style="stop-color:#ACACAC"/>
			<stop  offset="0.8566" style="stop-color:#E2E2E2"/>
			<stop  offset="0.997" style="stop-color:#F7F7F7"/>
		</linearGradient>
		<path fill="url(#SVGID_28_)" d="M269.2,84.7h-10.9c0,0,2.5,6.7,3.2,8.1c0.6,1.4,1.3,1.9,3.1,1.9c1.8,0,1.8,0,2.8,0
			c1,0,1.8-0.7,1.8-2.7S269.2,84.7,269.2,84.7z"/>
		<linearGradient id="SVGID_29_" gradientUnits="userSpaceOnUse" x1="265.0711" y1="93.6841" x2="265.0711" y2="85.8237">
			<stop  offset="3.015020e-03" style="stop-color:#F7DE00"/>
			<stop  offset="0.1671" style="stop-color:#F9E641"/>
			<stop  offset="0.3313" style="stop-color:#FBEE7A"/>
			<stop  offset="0.4907" style="stop-color:#FCF4AA"/>
			<stop  offset="0.641" style="stop-color:#FDF9CF"/>
			<stop  offset="0.7802" style="stop-color:#FEFCE9"/>
			<stop  offset="0.904" style="stop-color:#FFFEF9"/>
			<stop  offset="1" style="stop-color:#FFFFFF"/>
		</linearGradient>
		<path fill="url(#SVGID_29_)" d="M268.9,85.8c-1,0-8.6,0-8.6,0s2.4,5.5,2.9,6.5c0.5,1,1,1.3,2.4,1.3c1.4,0,2.2,0,2.9,0
			c0.8,0,1.4-0.5,1.4-1.9c0-1,0-3.3,0-4.8C269.9,86.3,269.8,85.8,268.9,85.8z"/>
		<g>
			<g>
				<linearGradient id="SVGID_30_" gradientUnits="userSpaceOnUse" x1="226.8255" y1="124.9836" x2="226.8255" y2="82.4707">
					<stop  offset="3.015020e-03" style="stop-color:#348223"/>
					<stop  offset="0.3273" style="stop-color:#217212"/>
					<stop  offset="0.6955" style="stop-color:#126605"/>
					<stop  offset="1" style="stop-color:#0D6200"/>
				</linearGradient>
				<path fill="url(#SVGID_30_)" d="M226.8,86.8c-15,0-27.1,11.6-27.1,25.7h54.2C253.9,98.4,241.8,86.8,226.8,86.8z"/>
				<linearGradient id="SVGID_31_" gradientUnits="userSpaceOnUse" x1="226.8255" y1="84.3533" x2="226.8255" y2="120.2005">
					<stop  offset="3.015020e-03" style="stop-color:#D4F774"/>
					<stop  offset="0.1513" style="stop-color:#AEDD61"/>
					<stop  offset="0.3394" style="stop-color:#84C04C"/>
					<stop  offset="0.523" style="stop-color:#63A93B"/>
					<stop  offset="0.698" style="stop-color:#4B9930"/>
					<stop  offset="0.861" style="stop-color:#3D8F28"/>
					<stop  offset="1" style="stop-color:#388C26"/>
				</linearGradient>
				<path fill="url(#SVGID_31_)" d="M200.2,114.1C201.6,100,213,89,226.8,89c13.8,0,25.2,11,26.6,25.1h1.4c0,0,0,0,0,0
					c0-15.4-12.5-28-27.9-28c-15.4,0-27.9,12.6-27.9,28c0,0,0,0,0,0H200.2z"/>
			</g>
			<g>
				
					<radialGradient id="SVGID_32_" cx="229.7669" cy="106.7072" r="24.2206" gradientTransform="matrix(0.9997 2.370000e-02 -2.370000e-02 0.9997 -0.3438 1.2585)" gradientUnits="userSpaceOnUse">
					<stop  offset="0" style="stop-color:#000000"/>
					<stop  offset="0.4223" style="stop-color:#020202"/>
					<stop  offset="0.637" style="stop-color:#0A0A0A"/>
					<stop  offset="0.8049" style="stop-color:#171717"/>
					<stop  offset="0.9477" style="stop-color:#2A2A2A"/>
					<stop  offset="1" style="stop-color:#333333"/>
				</radialGradient>
				<circle fill="url(#SVGID_32_)" cx="226.8" cy="113.4" r="20.5"/>
				
					<radialGradient id="SVGID_33_" cx="229.7672" cy="106.7069" r="13.2965" gradientTransform="matrix(0.9997 2.370000e-02 -2.370000e-02 0.9997 -0.3438 1.2585)" gradientUnits="userSpaceOnUse">
					<stop  offset="3.015020e-03" style="stop-color:#3B3B3B"/>
					<stop  offset="1" style="stop-color:#333333"/>
				</radialGradient>
				<circle fill="url(#SVGID_33_)" cx="226.8" cy="113.4" r="13.3"/>
				
					<radialGradient id="SVGID_34_" cx="229.7669" cy="106.7072" r="14.0482" gradientTransform="matrix(0.9997 2.370000e-02 -2.370000e-02 0.9997 -0.3438 1.2585)" gradientUnits="userSpaceOnUse">
					<stop  offset="0.2973" style="stop-color:#333333"/>
					<stop  offset="0.5033" style="stop-color:#757575"/>
					<stop  offset="0.7397" style="stop-color:#BBBBBB"/>
					<stop  offset="0.9105" style="stop-color:#E7E7E7"/>
					<stop  offset="0.997" style="stop-color:#F7F7F7"/>
				</radialGradient>
				<circle fill="url(#SVGID_34_)" cx="226.8" cy="113.4" r="12.2"/>
				<circle fill="#CFCFCF" cx="226.8" cy="113.4" r="8.3"/>
				
					<radialGradient id="SVGID_35_" cx="229.7672" cy="106.707" r="5.1788" gradientTransform="matrix(0.9997 2.370000e-02 -2.370000e-02 0.9997 -0.3438 1.2585)" gradientUnits="userSpaceOnUse">
					<stop  offset="0.3884" style="stop-color:#333333"/>
					<stop  offset="0.5465" style="stop-color:#2D2D2D"/>
					<stop  offset="0.75" style="stop-color:#1D1D1D"/>
					<stop  offset="0.9775" style="stop-color:#030303"/>
					<stop  offset="1" style="stop-color:#000000"/>
				</radialGradient>
				<circle opacity="0.6" fill="url(#SVGID_35_)" cx="226.8" cy="113.4" r="5.2"/>
			</g>
		</g>
	</g>
</g>
</svg>
