<?xml version="1.0" encoding="utf-8"?>
<!-- Generator: Adobe Illustrator 18.0.0, SVG Export Plug-In . SVG Version: 6.00 Build 0)  -->
<!DOCTYPE svg PUBLIC "-//W3C//DTD SVG 1.1//EN" "http://www.w3.org/Graphics/SVG/1.1/DTD/svg11.dtd">
<svg version="1.1" id="Layer_1" xmlns="http://www.w3.org/2000/svg" xmlns:xlink="http://www.w3.org/1999/xlink" x="0px" y="0px"
	 viewBox="0 0 290 155" enable-background="new 0 0 290 155" xml:space="preserve">
<g>
	
		<radialGradient id="SVGID_1_" cx="836.467" cy="1307.4977" r="238.908" gradientTransform="matrix(0.2081 0 0 7.456945e-03 -115.7143 131.7848)" gradientUnits="userSpaceOnUse">
		<stop  offset="0" style="stop-color:#000000"/>
		<stop  offset="1" style="stop-color:#000000;stop-opacity:0"/>
	</radialGradient>
	<ellipse opacity="0.8" fill="url(#SVGID_1_)" cx="58.4" cy="141.5" rx="49.9" ry="1.9"/>
	
		<radialGradient id="SVGID_2_" cx="1468.9764" cy="1307.4977" r="238.8762" gradientTransform="matrix(0.2524 0 0 7.456945e-03 -149.1632 131.7848)" gradientUnits="userSpaceOnUse">
		<stop  offset="0" style="stop-color:#000000"/>
		<stop  offset="1" style="stop-color:#000000;stop-opacity:0"/>
	</radialGradient>
	<ellipse opacity="0.8" fill="url(#SVGID_2_)" cx="221.6" cy="141.5" rx="60.5" ry="1.9"/>
	
		<radialGradient id="SVGID_3_" cx="639.3682" cy="665.0037" r="238.9022" gradientTransform="matrix(0.5552 0 0 1.392615e-02 -205.9885 132.2737)" gradientUnits="userSpaceOnUse">
		<stop  offset="0" style="stop-color:#000000"/>
		<stop  offset="1" style="stop-color:#000000;stop-opacity:0"/>
	</radialGradient>
	<ellipse opacity="0.8" fill="url(#SVGID_3_)" cx="149" cy="141.5" rx="133.1" ry="3.5"/>
	<g>
		
			<linearGradient id="SVGID_4_" gradientUnits="userSpaceOnUse" x1="145.6994" y1="81.6424" x2="152.3462" y2="11.0205" gradientTransform="matrix(1 0 -0.6437 1 10.2081 0)">
			<stop  offset="0" style="stop-color:#F7F7F7"/>
			<stop  offset="0.27" style="stop-color:#D2D2D2"/>
			<stop  offset="0.586" style="stop-color:#ACACAC"/>
			<stop  offset="0.8406" style="stop-color:#959595"/>
			<stop  offset="1" style="stop-color:#8C8C8C"/>
		</linearGradient>
		<polygon fill="url(#SVGID_4_)" points="114.4,71.2 111.2,71.2 134.9,34.3 138.1,34.3 		"/>
		<linearGradient id="SVGID_5_" gradientUnits="userSpaceOnUse" x1="129.3675" y1="113.5728" x2="139.1712" y2="9.4083">
			<stop  offset="0" style="stop-color:#8C8C8C"/>
			<stop  offset="0.2828" style="stop-color:#A7A7A7"/>
			<stop  offset="0.8858" style="stop-color:#EAEAEA"/>
			<stop  offset="1" style="stop-color:#F7F7F7"/>
		</linearGradient>
		<path fill="url(#SVGID_5_)" d="M138.1,75.6c0,0.5-0.4,1-1,1h-2.9c-0.5,0-1-0.4-1-1V17.2c0-0.5,0.4-1,1-1h2.9c0.5,0,1,0.4,1,1V75.6
			z"/>
		<linearGradient id="SVGID_6_" gradientUnits="userSpaceOnUse" x1="182.4968" y1="65.7936" x2="222.0372" y2="32.6153">
			<stop  offset="0.3709" style="stop-color:#FFFFFF"/>
			<stop  offset="0.5601" style="stop-color:#CAE1F9"/>
			<stop  offset="0.5691" style="stop-color:#CEE3F9"/>
			<stop  offset="0.6368" style="stop-color:#E3EFFC"/>
			<stop  offset="0.7111" style="stop-color:#F3F8FE"/>
			<stop  offset="0.7963" style="stop-color:#FCFDFF"/>
			<stop  offset="0.917" style="stop-color:#FFFFFF"/>
		</linearGradient>
		<path fill="url(#SVGID_6_)" d="M204.1,16.2c0,0,9.6,22.6,24.8,51.8h-35.7V15.9L204.1,16.2z"/>
		<linearGradient id="SVGID_7_" gradientUnits="userSpaceOnUse" x1="145.8704" y1="121.7881" x2="145.8704" y2="10.7295">
			<stop  offset="3.868330e-03" style="stop-color:#EB4E1C"/>
			<stop  offset="2.227121e-02" style="stop-color:#EC501C"/>
			<stop  offset="0.2615" style="stop-color:#F46C1D"/>
			<stop  offset="0.5034" style="stop-color:#FA7F1E"/>
			<stop  offset="0.7478" style="stop-color:#FE8B1F"/>
			<stop  offset="0.9983" style="stop-color:#FF8F1F"/>
		</linearGradient>
		<path fill="url(#SVGID_7_)" d="M87.6,121.7l117.1,0.1l3.7-12.4h47l4,12.4h9.3V79.6c0-2.9-1-4.6-6.5-5.9
			c-6.1-1.3-48.4-10.1-48.4-10.1l-15.9-47.5h6.3c0,0-5.6-5.4-13.6-5.4c-8,0-39.1,0-40.8,0c-1.7,0-2.8,0.2-2.8,2.3
			c0,2-3.9,52.8-3.9,52.8s-112.4,0-116.2,0c-3.7,0-3.6,0.8-3.6,4.7c0,3.9,0,49.7,0,49.7h10.1l4-12.3h47.1L87.6,121.7z"/>
		<linearGradient id="SVGID_8_" gradientUnits="userSpaceOnUse" x1="145.8704" y1="121.7881" x2="145.8704" y2="10.7295">
			<stop  offset="3.868330e-03" style="stop-color:#EB4E1C"/>
			<stop  offset="2.227121e-02" style="stop-color:#EC501C"/>
			<stop  offset="0.2615" style="stop-color:#F46C1D"/>
			<stop  offset="0.5034" style="stop-color:#FA7F1E"/>
			<stop  offset="0.7478" style="stop-color:#FE8B1F"/>
			<stop  offset="0.9983" style="stop-color:#FF8F1F"/>
		</linearGradient>
		<path fill="url(#SVGID_8_)" d="M89.2,121.7l115.5,0.1l3.7-12.4h50.2l4,12.4h6.1V79.6c0-2.9-1-4.6-6.5-5.9
			c-6.1-1.3-48.4-10.1-48.4-10.1l-15.9-47.5h6.3c0,0-5.6-5.4-13.6-5.4c-8,0-39.1,0-40.8,0c-1.7,0-2.8,0.2-2.8,2.3
			c0,2-3.9,52.8-3.9,52.8s-112.4,0-116.2,0c-3.7,0-3.6,0.8-3.6,4.7c0,3.9,0,49.7,0,49.7h10.1l4-12.3H86L89.2,121.7z"/>
		<linearGradient id="SVGID_9_" gradientUnits="userSpaceOnUse" x1="145.8706" y1="121.7881" x2="145.8706" y2="99.5967">
			<stop  offset="4.918840e-02" style="stop-color:#BD3F16"/>
			<stop  offset="1" style="stop-color:#EB4E1C;stop-opacity:0"/>
		</linearGradient>
		<path fill="url(#SVGID_9_)" d="M23.1,99.6c0,10.9,0,22.2,0,22.2h10.1l4-13.9h47.1l3.2,13.9h117.1l3.7-12.4h47l4,12.4h9.3
			c0,0,0-12.3,0-22.2H23.1z"/>
		<linearGradient id="SVGID_10_" gradientUnits="userSpaceOnUse" x1="138.4213" y1="69.131" x2="198.0286" y2="29.0315">
			<stop  offset="0.3709" style="stop-color:#FFFFFF"/>
			<stop  offset="0.5601" style="stop-color:#CAE1F9"/>
			<stop  offset="0.6847" style="stop-color:#EBF4FD"/>
			<stop  offset="0.7757" style="stop-color:#FFFFFF"/>
			<stop  offset="0.8043" style="stop-color:#FDFEFF"/>
			<stop  offset="0.8146" style="stop-color:#F6FAFD"/>
			<stop  offset="0.8219" style="stop-color:#EBF3FB"/>
			<stop  offset="0.8226" style="stop-color:#E9F2FB"/>
			<stop  offset="0.8826" style="stop-color:#F7FBFE"/>
			<stop  offset="0.9373" style="stop-color:#FFFFFF"/>
		</linearGradient>
		<path fill="url(#SVGID_10_)" d="M192.5,19.2c-0.9-2.4-1.5-3-3.7-3c-2.2,0-33.3,0-33.3,0v49.5h49.6
			C205.1,65.7,193.4,21.6,192.5,19.2z"/>
		<linearGradient id="SVGID_11_" gradientUnits="userSpaceOnUse" x1="145.8704" y1="99.5967" x2="145.8704" y2="72.8791">
			<stop  offset="0" style="stop-color:#F7F7F7"/>
			<stop  offset="0.8806" style="stop-color:#F7F7F7;stop-opacity:0"/>
		</linearGradient>
		<path opacity="0.2" fill="url(#SVGID_11_)" d="M262.1,73.8c-6.1-1.3-48.4-10.1-48.4-10.1l-15.9-47.5h6.3c0,0-5.6-5.4-13.6-5.4
			c-8,0-39.1,0-40.8,0c-1.7,0-2.8,0.2-2.8,2.3c0,2-3.9,52.8-3.9,52.8s-112.4,0-116.2,0c-3.7,0-3.6,0.8-3.6,4.7c0,2.1,0,16.4,0,29.1
			h245.4c0-10,0-20,0-20C268.6,76.7,267.6,75,262.1,73.8z"/>
		<g>
			<linearGradient id="SVGID_12_" gradientUnits="userSpaceOnUse" x1="271.0698" y1="88.2081" x2="267.2469" y2="110.9719">
				<stop  offset="0.1268" style="stop-color:#F7F7F7"/>
				<stop  offset="0.196" style="stop-color:#DFDFDF"/>
				<stop  offset="0.387" style="stop-color:#A3A3A3"/>
				<stop  offset="0.5621" style="stop-color:#727272"/>
				<stop  offset="0.7154" style="stop-color:#505050"/>
				<stop  offset="0.8412" style="stop-color:#3B3B3B"/>
				<stop  offset="0.9236" style="stop-color:#333333"/>
			</linearGradient>
			<path fill="url(#SVGID_12_)" d="M273.2,109.7c0,0.5-0.4,1-1,1h-6.8c-0.5,0-1-0.4-1-1V93.9c0-0.5,0.4-1,1-1h6.8c0.5,0,1,0.4,1,1
				V109.7z"/>
			<linearGradient id="SVGID_13_" gradientUnits="userSpaceOnUse" x1="271.9403" y1="91.4013" x2="269.0785" y2="108.4422">
				<stop  offset="0.1804" style="stop-color:#F7F7F7"/>
				<stop  offset="0.2647" style="stop-color:#F8F3DD"/>
				<stop  offset="1" style="stop-color:#FFD500"/>
			</linearGradient>
			<path fill="url(#SVGID_13_)" d="M273.2,109.3c0,0.4-0.4,0.8-0.8,0.8h-4.6c-0.4,0-0.8-0.4-0.8-0.8V96c0-0.4,0.4-0.8,0.8-0.8h4.6
				c0.4,0,0.8,0.4,0.8,0.8V109.3z"/>
			<linearGradient id="SVGID_14_" gradientUnits="userSpaceOnUse" x1="266.6484" y1="128.9912" x2="266.6484" y2="100.6721">
				<stop  offset="0" style="stop-color:#5E5E5E"/>
				<stop  offset="0.2517" style="stop-color:#616161"/>
				<stop  offset="0.3921" style="stop-color:#696969"/>
				<stop  offset="0.5051" style="stop-color:#777777"/>
				<stop  offset="0.6036" style="stop-color:#8A8A8A"/>
				<stop  offset="0.6925" style="stop-color:#A4A4A4"/>
				<stop  offset="0.7746" style="stop-color:#C3C3C3"/>
				<stop  offset="0.8499" style="stop-color:#E7E7E7"/>
				<stop  offset="0.8786" style="stop-color:#F7F7F7"/>
			</linearGradient>
			<path fill="url(#SVGID_14_)" d="M273.2,107.2c0,0,0,5.8,0,10.3c0,2.5,0,6.7-3.5,6.7c-2.3,0-3.5,0-3.5,0
				c-4.3-7.2-6.1-17.1-6.1-17.1H273.2z"/>
		</g>
		
			<linearGradient id="SVGID_15_" gradientUnits="userSpaceOnUse" x1="-342.313" y1="87.3163" x2="-346.5672" y2="112.6481" gradientTransform="matrix(-1 0 0 1 -322.5596 0)">
			<stop  offset="0.1268" style="stop-color:#F7F7F7"/>
			<stop  offset="0.196" style="stop-color:#DFDFDF"/>
			<stop  offset="0.387" style="stop-color:#A3A3A3"/>
			<stop  offset="0.5621" style="stop-color:#727272"/>
			<stop  offset="0.7154" style="stop-color:#505050"/>
			<stop  offset="0.8412" style="stop-color:#3B3B3B"/>
			<stop  offset="0.9236" style="stop-color:#333333"/>
		</linearGradient>
		<path fill="url(#SVGID_15_)" d="M16.9,111c0,0.7,0.6,1.3,1.3,1.3h8.1c0.7,0,1.3-0.6,1.3-1.3V93.9c0-0.7-0.6-1.3-1.3-1.3h-8.1
			c-0.7,0-1.3,0.6-1.3,1.3V111z"/>
		
			<linearGradient id="SVGID_16_" gradientUnits="userSpaceOnUse" x1="-342.8015" y1="96.4494" x2="-343.5067" y2="100.6485" gradientTransform="matrix(-1 0 0 1 -322.5596 0)">
			<stop  offset="3.015020e-03" style="stop-color:#F7DE00"/>
			<stop  offset="0.2262" style="stop-color:#F6DA01"/>
			<stop  offset="0.464" style="stop-color:#F3CD02"/>
			<stop  offset="0.7086" style="stop-color:#EEB805"/>
			<stop  offset="0.9565" style="stop-color:#E79A08"/>
			<stop  offset="1" style="stop-color:#E69409"/>
		</linearGradient>
		<path fill="url(#SVGID_16_)" d="M16.9,106.8c0,0.6,0.5,1.1,1.1,1.1h6.1c0.6,0,1.1-0.5,1.1-1.1V96.3c0-0.6-0.5-1.1-1.1-1.1H18
			c-0.6,0-1.1,0.5-1.1,1.1V106.8z"/>
		<linearGradient id="SVGID_17_" gradientUnits="userSpaceOnUse" x1="22.1319" y1="97.0147" x2="20.5635" y2="107.3434">
			<stop  offset="0" style="stop-color:#E81508"/>
			<stop  offset="0.4625" style="stop-color:#E61508"/>
			<stop  offset="0.6291" style="stop-color:#DF1308"/>
			<stop  offset="0.7478" style="stop-color:#D41008"/>
			<stop  offset="0.8438" style="stop-color:#C30C08"/>
			<stop  offset="0.9251" style="stop-color:#AD0709"/>
			<stop  offset="0.9967" style="stop-color:#920009"/>
			<stop  offset="1" style="stop-color:#910009"/>
		</linearGradient>
		<rect x="16.9" y="99.7" fill="url(#SVGID_17_)" width="8.3" height="8.2"/>
		<linearGradient id="SVGID_18_" gradientUnits="userSpaceOnUse" x1="25.0942" y1="131.8183" x2="25.0942" y2="99.3805">
			<stop  offset="0" style="stop-color:#5E5E5E"/>
			<stop  offset="0.2517" style="stop-color:#616161"/>
			<stop  offset="0.3921" style="stop-color:#696969"/>
			<stop  offset="0.5051" style="stop-color:#777777"/>
			<stop  offset="0.6036" style="stop-color:#8A8A8A"/>
			<stop  offset="0.6925" style="stop-color:#A4A4A4"/>
			<stop  offset="0.7746" style="stop-color:#C3C3C3"/>
			<stop  offset="0.8499" style="stop-color:#E7E7E7"/>
			<stop  offset="0.8786" style="stop-color:#F7F7F7"/>
		</linearGradient>
		<path fill="url(#SVGID_18_)" d="M27.7,124.3c0,0-1.5,0-5.7,0s-5-1.8-5-5.8c0-4,0-13.2,0-13.2h16.3L27.7,124.3z"/>
		<g>
			<g>
				<linearGradient id="SVGID_19_" gradientUnits="userSpaceOnUse" x1="60.4785" y1="132.6814" x2="60.4785" y2="90.1668">
					<stop  offset="2.298240e-02" style="stop-color:#BD3F17"/>
					<stop  offset="1" style="stop-color:#7A412D"/>
				</linearGradient>
				<path fill="url(#SVGID_19_)" d="M60.5,94.5c-15,0-27.1,11.6-27.1,25.7h54.2C87.6,106.1,75.4,94.5,60.5,94.5z"/>
				<linearGradient id="SVGID_20_" gradientUnits="userSpaceOnUse" x1="60.4785" y1="92.0505" x2="60.4785" y2="127.8972">
					<stop  offset="8.627880e-03" style="stop-color:#FFC466"/>
					<stop  offset="1" style="stop-color:#FF8F1F"/>
				</linearGradient>
				<path fill="url(#SVGID_20_)" d="M33.9,121.8c1.4-14.1,12.7-25.1,26.6-25.1c13.8,0,25.2,11,26.6,25.1h1.4c0,0,0,0,0,0
					c0-15.4-12.5-28-27.9-28s-27.9,12.6-27.9,28c0,0,0,0,0,0H33.9z"/>
			</g>
			
				<radialGradient id="SVGID_21_" cx="63.6461" cy="118.3443" r="24.2206" gradientTransform="matrix(0.9997 2.370000e-02 -2.370000e-02 0.9997 -0.3438 1.2585)" gradientUnits="userSpaceOnUse">
				<stop  offset="0" style="stop-color:#000000"/>
				<stop  offset="0.4223" style="stop-color:#020202"/>
				<stop  offset="0.637" style="stop-color:#0A0A0A"/>
				<stop  offset="0.8049" style="stop-color:#171717"/>
				<stop  offset="0.9477" style="stop-color:#2A2A2A"/>
				<stop  offset="1" style="stop-color:#333333"/>
			</radialGradient>
			<circle fill="url(#SVGID_21_)" cx="60.5" cy="121.1" r="20.5"/>
			
				<radialGradient id="SVGID_22_" cx="63.6461" cy="118.3443" r="13.2968" gradientTransform="matrix(0.9997 2.370000e-02 -2.370000e-02 0.9997 -0.3438 1.2585)" gradientUnits="userSpaceOnUse">
				<stop  offset="0.2973" style="stop-color:#333333"/>
				<stop  offset="0.5033" style="stop-color:#757575"/>
				<stop  offset="0.7397" style="stop-color:#BBBBBB"/>
				<stop  offset="0.9105" style="stop-color:#E7E7E7"/>
				<stop  offset="0.997" style="stop-color:#F7F7F7"/>
			</radialGradient>
			<circle fill="url(#SVGID_22_)" cx="60.5" cy="121.1" r="13.3"/>
			
				<radialGradient id="SVGID_23_" cx="63.6462" cy="118.3442" r="14.0483" gradientTransform="matrix(0.9997 2.370000e-02 -2.370000e-02 0.9997 -0.3438 1.2585)" gradientUnits="userSpaceOnUse">
				<stop  offset="0" style="stop-color:#0D0D0D"/>
				<stop  offset="0.3937" style="stop-color:#191919"/>
				<stop  offset="1" style="stop-color:#333333"/>
			</radialGradient>
			<circle fill="url(#SVGID_23_)" cx="60.5" cy="121.1" r="12.2"/>
			<circle fill="#CFCFCF" cx="60.5" cy="121.1" r="7.7"/>
			
				<radialGradient id="SVGID_24_" cx="63.6584" cy="118.344" r="3.6889" gradientTransform="matrix(0.9997 2.370000e-02 -2.370000e-02 0.9997 -0.3438 1.2585)" gradientUnits="userSpaceOnUse">
				<stop  offset="8.442810e-02" style="stop-color:#333333"/>
				<stop  offset="0.6731" style="stop-color:#0F0F0F"/>
				<stop  offset="1" style="stop-color:#000000"/>
			</radialGradient>
			<circle opacity="0.6" fill="url(#SVGID_24_)" cx="60.5" cy="121.1" r="4.9"/>
			<circle fill="#CFCFCF" cx="60.5" cy="121.1" r="3"/>
			<g>
				<circle fill="#CFCFCF" cx="60.7" cy="113.3" r="1.5"/>
				<circle fill="#CFCFCF" cx="60.7" cy="128.9" r="1.5"/>
			</g>
			<g>
				<circle fill="#CFCFCF" cx="52.9" cy="121.1" r="1.5"/>
				<circle fill="#CFCFCF" cx="68.5" cy="121.1" r="1.5"/>
			</g>
			<g>
				<circle fill="#CFCFCF" cx="55.2" cy="115.6" r="1.5"/>
				<circle fill="#CFCFCF" cx="66.2" cy="126.6" r="1.5"/>
			</g>
			<g>
				<circle fill="#CFCFCF" cx="55.2" cy="126.6" r="1.5"/>
				<circle fill="#CFCFCF" cx="66.2" cy="115.6" r="1.5"/>
			</g>
		</g>
		<g>
			<g>
				<linearGradient id="SVGID_25_" gradientUnits="userSpaceOnUse" x1="231.8252" y1="132.6814" x2="231.8252" y2="90.1668">
					<stop  offset="2.298240e-02" style="stop-color:#BD3F17"/>
					<stop  offset="1" style="stop-color:#7A412D"/>
				</linearGradient>
				<path fill="url(#SVGID_25_)" d="M231.8,94.5c-15,0-27.1,11.6-27.1,25.7h54.2C258.9,106.1,246.8,94.5,231.8,94.5z"/>
				<linearGradient id="SVGID_26_" gradientUnits="userSpaceOnUse" x1="231.8251" y1="92.0505" x2="231.8251" y2="127.8972">
					<stop  offset="8.627880e-03" style="stop-color:#FFC466"/>
					<stop  offset="1" style="stop-color:#FF8F1F"/>
				</linearGradient>
				<path fill="url(#SVGID_26_)" d="M205.2,121.8c1.4-14.1,12.7-25.1,26.6-25.1c13.8,0,25.2,11,26.6,25.1h1.4c0,0,0,0,0,0
					c0-15.4-12.5-28-27.9-28s-27.9,12.6-27.9,28c0,0,0,0,0,0H205.2z"/>
			</g>
			
				<radialGradient id="SVGID_27_" cx="234.948" cy="114.2832" r="24.2206" gradientTransform="matrix(0.9997 2.370000e-02 -2.370000e-02 0.9997 -0.3438 1.2585)" gradientUnits="userSpaceOnUse">
				<stop  offset="0" style="stop-color:#000000"/>
				<stop  offset="0.4223" style="stop-color:#020202"/>
				<stop  offset="0.637" style="stop-color:#0A0A0A"/>
				<stop  offset="0.8049" style="stop-color:#171717"/>
				<stop  offset="0.9477" style="stop-color:#2A2A2A"/>
				<stop  offset="1" style="stop-color:#333333"/>
			</radialGradient>
			<circle fill="url(#SVGID_27_)" cx="231.8" cy="121.1" r="20.5"/>
			
				<radialGradient id="SVGID_28_" cx="234.948" cy="114.2832" r="13.2968" gradientTransform="matrix(0.9997 2.370000e-02 -2.370000e-02 0.9997 -0.3438 1.2585)" gradientUnits="userSpaceOnUse">
				<stop  offset="0.2973" style="stop-color:#333333"/>
				<stop  offset="0.5033" style="stop-color:#757575"/>
				<stop  offset="0.7397" style="stop-color:#BBBBBB"/>
				<stop  offset="0.9105" style="stop-color:#E7E7E7"/>
				<stop  offset="0.997" style="stop-color:#F7F7F7"/>
			</radialGradient>
			<circle fill="url(#SVGID_28_)" cx="231.8" cy="121.1" r="13.3"/>
			
				<radialGradient id="SVGID_29_" cx="234.948" cy="114.2832" r="14.0483" gradientTransform="matrix(0.9997 2.370000e-02 -2.370000e-02 0.9997 -0.3438 1.2585)" gradientUnits="userSpaceOnUse">
				<stop  offset="0" style="stop-color:#0D0D0D"/>
				<stop  offset="0.3937" style="stop-color:#191919"/>
				<stop  offset="1" style="stop-color:#333333"/>
			</radialGradient>
			<circle fill="url(#SVGID_29_)" cx="231.8" cy="121.1" r="12.2"/>
			<circle fill="#CFCFCF" cx="231.8" cy="121.1" r="7.7"/>
			
				<radialGradient id="SVGID_30_" cx="234.9602" cy="114.2829" r="3.6889" gradientTransform="matrix(0.9997 2.370000e-02 -2.370000e-02 0.9997 -0.3438 1.2585)" gradientUnits="userSpaceOnUse">
				<stop  offset="8.442810e-02" style="stop-color:#333333"/>
				<stop  offset="0.6731" style="stop-color:#0F0F0F"/>
				<stop  offset="1" style="stop-color:#000000"/>
			</radialGradient>
			<circle opacity="0.6" fill="url(#SVGID_30_)" cx="231.8" cy="121.1" r="4.9"/>
			<circle fill="#CFCFCF" cx="231.8" cy="121.1" r="3"/>
			<g>
				<circle fill="#CFCFCF" cx="232" cy="113.3" r="1.5"/>
				<circle fill="#CFCFCF" cx="232" cy="128.9" r="1.5"/>
			</g>
			<g>
				<circle fill="#CFCFCF" cx="224.2" cy="121.1" r="1.5"/>
				<circle fill="#CFCFCF" cx="239.8" cy="121.1" r="1.5"/>
			</g>
			<g>
				<circle fill="#CFCFCF" cx="226.5" cy="115.6" r="1.5"/>
				<circle fill="#CFCFCF" cx="237.5" cy="126.6" r="1.5"/>
			</g>
			<g>
				<circle fill="#CFCFCF" cx="226.5" cy="126.6" r="1.5"/>
				<circle fill="#CFCFCF" cx="237.5" cy="115.6" r="1.5"/>
			</g>
		</g>
		<g opacity="0.16">
			<path fill="#1D1D1B" d="M211,67.1c0,0,0.1,3.3,0.1,8.3c0.1,5,0.2,11.7,0.2,18.4c0,0.8,0,1.7,0,2.5l0,1.2c0,0.1,0,0,0,0.2l0,0
				c0,0,0,0.1-0.1,0.1c0,0.1-0.1,0.1-0.1,0.1c-0.1,0.1-0.2,0.2-0.3,0.3c-0.2,0.1-0.4,0.2-0.6,0.3c-1.4,0.8-2.8,1.6-3.9,2.6
				c-1.1,1-2.1,2.1-2.9,3.3c-0.8,1.2-1.3,2.4-1.8,3.5c-0.9,2.3-1.2,4.4-1.4,5.8c-0.2,1.4-0.2,2.3-0.2,2.3s0-0.2,0-0.6
				c0-0.4,0-1,0-1.7c0-1.5,0.2-3.6,0.9-6c0.4-1.2,1-2.5,1.8-3.7c0.8-1.3,1.8-2.5,3-3.5c1.2-1,2.7-1.9,4.2-2.6
				c0.2-0.1,0.4-0.2,0.5-0.3c0.1,0,0.2-0.1,0.2-0.1c0,0,0,0,0,0c0,0,0,0,0,0.1c0,0,0,0,0,0c0,0.1,0-0.1,0-0.1l0-1.2
				c0-0.8,0-1.7,0-2.5c0-6.7,0.1-13.4,0.2-18.4C210.9,70.5,211,67.1,211,67.1z"/>
		</g>
		<g opacity="0.16">
			<path fill="#1D1D1B" d="M150.5,44.3c0,0,0,1.2,0.1,3.2c0,2,0.1,4.9,0.2,8.4c0,3.5,0.1,7.6,0.2,11.9c0,4.4,0,9,0.1,13.7
				c0,4.7,0,9.3-0.1,13.7c0,4.4-0.1,8.4-0.2,11.9c0,3.5-0.1,6.4-0.2,8.4c-0.1,2-0.1,3.2-0.1,3.2s0-1.2-0.1-3.2c0-2-0.1-4.9-0.2-8.4
				c0-3.5-0.1-7.6-0.2-11.9c0-4.4,0-9-0.1-13.7c0-4.7,0-9.3,0.1-13.7c0-4.4,0.1-8.4,0.2-11.9c0-3.5,0.1-6.4,0.2-8.4
				C150.4,45.5,150.5,44.3,150.5,44.3z"/>
		</g>
		<g>
			<linearGradient id="SVGID_31_" gradientUnits="userSpaceOnUse" x1="164.4424" y1="82.8322" x2="164.4424" y2="75.3241">
				<stop  offset="0.2973" style="stop-color:#333333"/>
				<stop  offset="0.4749" style="stop-color:#787878"/>
				<stop  offset="0.6358" style="stop-color:#AFAFAF"/>
				<stop  offset="0.7736" style="stop-color:#D6D6D6"/>
				<stop  offset="0.8828" style="stop-color:#EEEEEE"/>
				<stop  offset="0.9499" style="stop-color:#F7F7F7"/>
			</linearGradient>
			<path fill="url(#SVGID_31_)" d="M173.4,78.1v-0.6c0-1.3-1.1-2.4-2.4-2.4h-13.2c-1.3,0-2.4,1.1-2.4,2.4v0.6H173.4z"/>
			<linearGradient id="SVGID_32_" gradientUnits="userSpaceOnUse" x1="164.4424" y1="82.5225" x2="164.4424" y2="78.0732">
				<stop  offset="0" style="stop-color:#000000;stop-opacity:0"/>
				<stop  offset="0.8581" style="stop-color:#000000;stop-opacity:0.8581"/>
				<stop  offset="1" style="stop-color:#000000"/>
			</linearGradient>
			<rect x="155.5" y="78.1" opacity="0.2" fill="url(#SVGID_32_)" width="17.9" height="4.4"/>
		</g>
		<g>
			<linearGradient id="SVGID_33_" gradientUnits="userSpaceOnUse" x1="203.795" y1="72.1204" x2="200.2987" y2="43.9054">
				<stop  offset="0" style="stop-color:#F7F7F7"/>
				<stop  offset="0.3212" style="stop-color:#B0B0B0"/>
				<stop  offset="0.6423" style="stop-color:#6F6F6F"/>
				<stop  offset="0.875" style="stop-color:#474747"/>
				<stop  offset="0.9953" style="stop-color:#383838"/>
			</linearGradient>
			<path fill="url(#SVGID_33_)" d="M197.5,57.4l6.8,10c0,0,2.5,0,3-3.1l-9.7-8V57.4z"/>
			<linearGradient id="SVGID_34_" gradientUnits="userSpaceOnUse" x1="195.3676" y1="69.581" x2="197.9837" y2="41.7855">
				<stop  offset="0" style="stop-color:#8C8C8C"/>
				<stop  offset="0.1747" style="stop-color:#919191"/>
				<stop  offset="0.3758" style="stop-color:#9F9F9F"/>
				<stop  offset="0.5899" style="stop-color:#B6B6B6"/>
				<stop  offset="0.8116" style="stop-color:#D6D6D6"/>
				<stop  offset="1" style="stop-color:#F7F7F7"/>
			</linearGradient>
			<path fill="url(#SVGID_34_)" d="M194.9,63.2h0.8c1.7,0,3-0.9,3-2V49.8c0-1.1-1.4-2-3-2h-0.8V63.2z"/>
		</g>
	</g>
</g>
</svg>
