<?xml version="1.0" encoding="utf-8"?>
<!-- Generator: Adobe Illustrator 18.0.0, SVG Export Plug-In . SVG Version: 6.00 Build 0)  -->
<!DOCTYPE svg PUBLIC "-//W3C//DTD SVG 1.1//EN" "http://www.w3.org/Graphics/SVG/1.1/DTD/svg11.dtd">
<svg version="1.1" id="Layer_1" xmlns="http://www.w3.org/2000/svg" xmlns:xlink="http://www.w3.org/1999/xlink" x="0px" y="0px"
	 viewBox="0 0 290 155" enable-background="new 0 0 290 155" xml:space="preserve">
<g>
	
		<radialGradient id="SVGID_1_" cx="600.0304" cy="1262.4603" r="238.9382" gradientTransform="matrix(0.1447 0 0 7.456945e-03 -8.5495 125.2524)" gradientUnits="userSpaceOnUse">
		<stop  offset="0" style="stop-color:#000000"/>
		<stop  offset="1" style="stop-color:#000000;stop-opacity:0"/>
	</radialGradient>
	<ellipse opacity="0.8" fill="url(#SVGID_1_)" cx="78.3" cy="134.7" rx="34.7" ry="1.9"/>
	
		<radialGradient id="SVGID_2_" cx="909.4667" cy="1262.4603" r="238.9832" gradientTransform="matrix(0.113 0 0 7.456945e-03 106.4993 125.2524)" gradientUnits="userSpaceOnUse">
		<stop  offset="0" style="stop-color:#000000"/>
		<stop  offset="1" style="stop-color:#000000;stop-opacity:0"/>
	</radialGradient>
	<ellipse opacity="0.8" fill="url(#SVGID_2_)" cx="209.3" cy="134.7" rx="27.1" ry="1.9"/>
	
		<radialGradient id="SVGID_3_" cx="589.6711" cy="640.8862" r="238.8815" gradientTransform="matrix(0.5319 0 0 1.392615e-02 -168.2327 125.7409)" gradientUnits="userSpaceOnUse">
		<stop  offset="0" style="stop-color:#000000"/>
		<stop  offset="1" style="stop-color:#000000;stop-opacity:0"/>
	</radialGradient>
	<ellipse opacity="0.8" fill="url(#SVGID_3_)" cx="145.4" cy="134.7" rx="127.5" ry="3.5"/>
	<g>
		<linearGradient id="SVGID_4_" gradientUnits="userSpaceOnUse" x1="162.6788" y1="59.5718" x2="199.6696" y2="28.5328">
			<stop  offset="5.650790e-02" style="stop-color:#FFFFFF"/>
			<stop  offset="7.970560e-02" style="stop-color:#FAFDFE"/>
			<stop  offset="0.2282" style="stop-color:#DCF0FA"/>
			<stop  offset="0.3556" style="stop-color:#CAE8F8"/>
			<stop  offset="0.4463" style="stop-color:#C3E5F7"/>
			<stop  offset="0.4961" style="stop-color:#D9EEFA"/>
			<stop  offset="0.555" style="stop-color:#EAF6FC"/>
			<stop  offset="0.6273" style="stop-color:#F6FBFE"/>
			<stop  offset="0.7265" style="stop-color:#FDFEFF"/>
			<stop  offset="0.9779" style="stop-color:#FFFFFF"/>
		</linearGradient>
		<path fill="url(#SVGID_4_)" d="M165.7,21.8l7.1,0.1c0,0,10.6,13.1,27.6,41.2h-34.7V21.8z"/>
		<linearGradient id="SVGID_5_" gradientUnits="userSpaceOnUse" x1="144.0149" y1="115.002" x2="144.0149" y2="17.146">
			<stop  offset="3.159130e-02" style="stop-color:#CC2424"/>
			<stop  offset="6.380518e-02" style="stop-color:#CE2525"/>
			<stop  offset="0.6393" style="stop-color:#E83434"/>
			<stop  offset="0.9802" style="stop-color:#F23A3A"/>
		</linearGradient>
		<path fill="url(#SVGID_5_)" d="M39.1,115h12.6l2.4-13.9h45.7l5.6,13.9h76.8l3.2-13.9H234l3,13.9h4l7.9-7.9c0,0,0-11.3,0-17.7
			c0-6.3-10.6-27.2-54.7-27.2h-9.9l-17.3-40.3h5.8c0,0-3-4.8-17.8-4.8c-20.3,0-37.3,0-44.5,0c-17.1,0-34.5,23.4-49.7,44.9
			c-2.3,3.3-21.6,7.8-21.6,35C39.1,105.7,39.1,115,39.1,115z"/>
		<linearGradient id="SVGID_6_" gradientUnits="userSpaceOnUse" x1="144.0149" y1="108.7211" x2="144.0149" y2="78.8085">
			<stop  offset="0" style="stop-color:#F7F7F7"/>
			<stop  offset="0.8806" style="stop-color:#F7F7F7;stop-opacity:0"/>
		</linearGradient>
		<path opacity="0.6" fill="url(#SVGID_6_)" d="M194.2,62.2h-9.9l-17.3-40.3h5.8c0,0-3-4.8-17.8-4.8c-20.3,0-37.3,0-44.5,0
			c-17.1,0-34.5,23.4-49.7,44.9c-2.3,3.3-21.6,7.8-21.6,35c0-0.7,0-1.4,0-2.1h209.7c0-2,0-3.9,0-5.5
			C248.9,83.1,238.3,62.2,194.2,62.2z"/>
		<linearGradient id="SVGID_7_" gradientUnits="userSpaceOnUse" x1="89.9641" y1="62.6459" x2="133.2604" y2="26.316">
			<stop  offset="5.650790e-02" style="stop-color:#FFFFFF"/>
			<stop  offset="8.364039e-02" style="stop-color:#F7FCFF"/>
			<stop  offset="0.1597" style="stop-color:#E5F7FF"/>
			<stop  offset="0.2139" style="stop-color:#DEF5FF"/>
			<stop  offset="0.2297" style="stop-color:#E3F7FF"/>
			<stop  offset="0.2928" style="stop-color:#F3FBFF"/>
			<stop  offset="0.3651" style="stop-color:#FCFEFF"/>
			<stop  offset="0.466" style="stop-color:#FFFFFF"/>
			<stop  offset="0.6863" style="stop-color:#CAE1F9"/>
			<stop  offset="0.7986" style="stop-color:#E4EFFC"/>
			<stop  offset="0.9363" style="stop-color:#FFFFFF"/>
		</linearGradient>
		<path fill="url(#SVGID_7_)" d="M118.7,62.1H76.6c0,0,22.3-38.8,37-38.8c2.1,0,1.3,0,2.9,0c1.7,0,2.1,0.6,2.1,2.2
			C118.7,27,118.7,62.1,118.7,62.1z"/>
		<linearGradient id="SVGID_8_" gradientUnits="userSpaceOnUse" x1="128.285" y1="63.8663" x2="168.1667" y2="30.4016">
			<stop  offset="5.650790e-02" style="stop-color:#FFFFFF"/>
			<stop  offset="8.364039e-02" style="stop-color:#F7FCFF"/>
			<stop  offset="0.1597" style="stop-color:#E5F7FF"/>
			<stop  offset="0.2139" style="stop-color:#DEF5FF"/>
			<stop  offset="0.2297" style="stop-color:#E3F7FF"/>
			<stop  offset="0.2928" style="stop-color:#F3FBFF"/>
			<stop  offset="0.3651" style="stop-color:#FCFEFF"/>
			<stop  offset="0.466" style="stop-color:#FFFFFF"/>
			<stop  offset="0.6863" style="stop-color:#CAE1F9"/>
			<stop  offset="0.7986" style="stop-color:#E4EFFC"/>
			<stop  offset="0.9363" style="stop-color:#FFFFFF"/>
		</linearGradient>
		<path fill="url(#SVGID_8_)" d="M126.8,62.1h52.4l-17.1-38.8c0,0-30.5,0-32.8,0c-2.3,0-2.6,0.7-2.6,2.2
			C126.8,26.9,126.8,62.1,126.8,62.1z"/>
		<linearGradient id="SVGID_9_" gradientUnits="userSpaceOnUse" x1="144.0149" y1="119.3075" x2="144.0149" y2="99.2098">
			<stop  offset="0.127" style="stop-color:#700707"/>
			<stop  offset="0.247" style="stop-color:#7D0808;stop-opacity:0.8622"/>
			<stop  offset="0.7505" style="stop-color:#B00B0B;stop-opacity:0.2841"/>
			<stop  offset="0.9978" style="stop-color:#C40C0C;stop-opacity:0"/>
		</linearGradient>
		<path fill="url(#SVGID_9_)" d="M39.2,94.9c0,0.7,0,1.4,0,2.1c0,8.7,0,18,0,18h12.6l2.4-13.9h45.7l5.6,13.9h76.8l3.2-13.9H234
			l3,13.9h4l7.9-7.9c0,0,0-6.4,0-12.2H39.2z"/>
		<g opacity="0.16">
			<path fill="#1D1D1B" d="M177.6,68.1c0,0,0,0.7,0.1,1.9c0,1.2,0.1,2.9,0.2,4.9c0,2,0.1,4.4,0.2,7c0,2.6,0,5.3,0.1,8
				c0,2.7,0,5.4-0.1,8c0,2.6-0.1,4.9-0.2,7c0,2-0.1,3.7-0.2,4.9c-0.1,1.2-0.1,1.9-0.1,1.9s0-0.7-0.1-1.9c0-1.2-0.1-2.9-0.2-4.9
				c0-2-0.1-4.4-0.2-7c0-2.6,0-5.3-0.1-8c0-2.7,0-5.4,0.1-8c0-2.6,0.1-4.9,0.2-7c0-2,0.1-3.7,0.2-4.9
				C177.6,68.8,177.6,68.1,177.6,68.1z"/>
		</g>
		<g opacity="0.16">
			<path fill="#1D1D1B" d="M122.6,68.1c0,0,0,0.7,0.1,1.9c0,1.2,0.1,2.9,0.2,4.9c0,2,0.1,4.4,0.2,7c0,2.6,0,5.3,0.1,8
				c0,2.7,0,5.4-0.1,8c0,2.6-0.1,4.9-0.2,7c0,2-0.1,3.7-0.2,4.9c-0.1,1.2-0.1,1.9-0.1,1.9s0-0.7-0.1-1.9c0-1.2-0.1-2.9-0.2-4.9
				c0-2-0.1-4.4-0.2-7c0-2.6,0-5.3-0.1-8c0-2.7,0-5.4,0.1-8c0-2.6,0.1-4.9,0.2-7c0-2,0.1-3.7,0.2-4.9
				C122.5,68.8,122.6,68.1,122.6,68.1z"/>
		</g>
		<g>
			<linearGradient id="SVGID_10_" gradientUnits="userSpaceOnUse" x1="182.6803" y1="76.6053" x2="164.4984" y2="51.5143">
				<stop  offset="0" style="stop-color:#F7F7F7"/>
				<stop  offset="0.3212" style="stop-color:#B0B0B0"/>
				<stop  offset="0.6423" style="stop-color:#6F6F6F"/>
				<stop  offset="0.875" style="stop-color:#474747"/>
				<stop  offset="0.9953" style="stop-color:#383838"/>
			</linearGradient>
			<path fill="url(#SVGID_10_)" d="M166.6,55l6.3,11.7c0,0,2.5,0,3-3.1l-9.3-9.7V55z"/>
			<linearGradient id="SVGID_11_" gradientUnits="userSpaceOnUse" x1="159.3483" y1="61.5746" x2="170.2674" y2="48.244">
				<stop  offset="0.4291" style="stop-color:#8C8C8C"/>
				<stop  offset="0.5658" style="stop-color:#8F8F8F"/>
				<stop  offset="0.672" style="stop-color:#999999"/>
				<stop  offset="0.768" style="stop-color:#AAAAAA"/>
				<stop  offset="0.858" style="stop-color:#C1C1C1"/>
				<stop  offset="0.943" style="stop-color:#DFDFDF"/>
				<stop  offset="1" style="stop-color:#F7F7F7"/>
			</linearGradient>
			<path fill="url(#SVGID_11_)" d="M164,61.5h0.8c1.5,0,2.7-0.8,2.7-1.8V49.3c0-1-1.2-1.8-2.7-1.8H164V61.5z"/>
		</g>
		<g>
			<linearGradient id="SVGID_12_" gradientUnits="userSpaceOnUse" x1="136.0017" y1="79.1625" x2="136.0017" y2="73.6462">
				<stop  offset="0.2973" style="stop-color:#333333"/>
				<stop  offset="0.4749" style="stop-color:#787878"/>
				<stop  offset="0.6358" style="stop-color:#AFAFAF"/>
				<stop  offset="0.7736" style="stop-color:#D6D6D6"/>
				<stop  offset="0.8828" style="stop-color:#EEEEEE"/>
				<stop  offset="0.9499" style="stop-color:#F7F7F7"/>
			</linearGradient>
			<path fill="url(#SVGID_12_)" d="M142.6,75.7v-0.5c0-1-0.8-1.7-1.7-1.7h-9.7c-1,0-1.7,0.8-1.7,1.7v0.5H142.6z"/>
			<linearGradient id="SVGID_13_" gradientUnits="userSpaceOnUse" x1="136.0017" y1="78.9336" x2="136.0017" y2="75.666">
				<stop  offset="0" style="stop-color:#000000;stop-opacity:0"/>
				<stop  offset="0.8581" style="stop-color:#000000;stop-opacity:0.8581"/>
				<stop  offset="1" style="stop-color:#000000"/>
			</linearGradient>
			<rect x="129.4" y="75.7" opacity="0.2" fill="url(#SVGID_13_)" width="13.1" height="3.3"/>
		</g>
		<g>
			<linearGradient id="SVGID_14_" gradientUnits="userSpaceOnUse" x1="235.5118" y1="66.9177" x2="252.7474" y2="103.0569">
				<stop  offset="3.015020e-03" style="stop-color:#F7F7F7"/>
				<stop  offset="8.712126e-02" style="stop-color:#EEEEEE"/>
				<stop  offset="0.2266" style="stop-color:#D5D5D5"/>
				<stop  offset="0.4043" style="stop-color:#ACACAC"/>
				<stop  offset="0.6117" style="stop-color:#737373"/>
				<stop  offset="0.819" style="stop-color:#333333"/>
			</linearGradient>
			<path fill="url(#SVGID_14_)" d="M248,81.4c2.6,4.6,2.7,9.4,0.3,10.7c-2.4,1.4-6.5-1.2-9-5.8c-2.6-4.6-2.7-9.4-0.3-10.7
				C241.4,74.2,245.4,76.8,248,81.4z"/>
			<linearGradient id="SVGID_15_" gradientUnits="userSpaceOnUse" x1="238.5921" y1="70.2726" x2="252.1554" y2="98.7118">
				<stop  offset="3.015020e-03" style="stop-color:#F7F7F7"/>
				<stop  offset="0.1055" style="stop-color:#F8F3DD"/>
				<stop  offset="1" style="stop-color:#FFD500"/>
			</linearGradient>
			<path fill="url(#SVGID_15_)" d="M248.4,81.7c2,3.6,2.1,7.4,0.2,8.4c-1.9,1.1-5.1-1-7.1-4.6c-2-3.6-2.1-7.4-0.2-8.4
				C243.2,76,246.4,78.1,248.4,81.7z"/>
		</g>
		<linearGradient id="SVGID_16_" gradientUnits="userSpaceOnUse" x1="42.5093" y1="98.6381" x2="42.5093" y2="78.1915">
			<stop  offset="7.642040e-02" style="stop-color:#333333"/>
			<stop  offset="0.172" style="stop-color:#3B3B3B"/>
			<stop  offset="0.3177" style="stop-color:#505050"/>
			<stop  offset="0.4954" style="stop-color:#727272"/>
			<stop  offset="0.6984" style="stop-color:#A3A3A3"/>
			<stop  offset="0.9198" style="stop-color:#DFDFDF"/>
			<stop  offset="1" style="stop-color:#F7F7F7"/>
		</linearGradient>
		<path fill="url(#SVGID_16_)" d="M38.1,96.5c0-7.8,1.9-12.7,2.5-14.4c0.6-1.7,1.1-2.2,2.2-2.2c1.1,0,0.6,0,2.1,0
			c1.5,0,1.9,0.5,1.9,1.6c0,1.1,0,15,0,15H38.1z"/>
		<linearGradient id="SVGID_17_" gradientUnits="userSpaceOnUse" x1="41.5273" y1="98.3335" x2="41.5273" y2="80.7635">
			<stop  offset="0" style="stop-color:#E69409"/>
			<stop  offset="4.354796e-02" style="stop-color:#E79A08"/>
			<stop  offset="0.2914" style="stop-color:#EEB805"/>
			<stop  offset="0.536" style="stop-color:#F3CD02"/>
			<stop  offset="0.7738" style="stop-color:#F6DA01"/>
			<stop  offset="0.997" style="stop-color:#F7DE00"/>
		</linearGradient>
		<path fill="url(#SVGID_17_)" d="M38.1,96.5c0-6.7,1.5-10.9,1.9-12.4c0.4-1.5,0.9-1.9,1.7-1.9s0.5,0,1.7,0c1.2,0,1.4,0.5,1.4,1.4
			c0,0.9,0,12.9,0,12.9H38.1z"/>
		<linearGradient id="SVGID_18_" gradientUnits="userSpaceOnUse" x1="41.5273" y1="97.8169" x2="41.5273" y2="85.1246">
			<stop  offset="0" style="stop-color:#910009"/>
			<stop  offset="3.302693e-03" style="stop-color:#920009"/>
			<stop  offset="7.491744e-02" style="stop-color:#AD0709"/>
			<stop  offset="0.1562" style="stop-color:#C30C08"/>
			<stop  offset="0.2522" style="stop-color:#D41008"/>
			<stop  offset="0.3709" style="stop-color:#DF1308"/>
			<stop  offset="0.5375" style="stop-color:#E61508"/>
			<stop  offset="1" style="stop-color:#E81508"/>
		</linearGradient>
		<path fill="url(#SVGID_18_)" d="M39.5,86.2c-0.6,2.2-1.3,5.6-1.3,10.3h6.8c0,0,0-6.5,0-10.3H39.5z"/>
		<g>
			<linearGradient id="SVGID_19_" gradientUnits="userSpaceOnUse" x1="48.4433" y1="114.9873" x2="48.4433" y2="94.9043">
				<stop  offset="5.770250e-02" style="stop-color:#080808"/>
				<stop  offset="0.2298" style="stop-color:#0F0F0F"/>
				<stop  offset="0.4862" style="stop-color:#232323"/>
				<stop  offset="0.7937" style="stop-color:#444444"/>
				<stop  offset="1" style="stop-color:#5E5E5E"/>
			</linearGradient>
			<path fill="url(#SVGID_19_)" d="M51.8,113c0,1.1-0.9,1.9-1.9,1.9H38c-1.1,0-1.9-0.9-1.9-1.9V96.8c0-1.1,0.9-1.9,1.9-1.9h21
				c1.1,0,1.9,0.9,1.9,1.9L51.8,113z"/>
			<linearGradient id="SVGID_20_" gradientUnits="userSpaceOnUse" x1="239.4165" y1="114.9873" x2="239.4165" y2="94.9043">
				<stop  offset="5.770250e-02" style="stop-color:#080808"/>
				<stop  offset="0.2298" style="stop-color:#0F0F0F"/>
				<stop  offset="0.4862" style="stop-color:#232323"/>
				<stop  offset="0.7937" style="stop-color:#444444"/>
				<stop  offset="1" style="stop-color:#5E5E5E"/>
			</linearGradient>
			<path fill="url(#SVGID_20_)" d="M237,115c0,0,5.4,0,5.7,0c2.3,0,8.9-1.5,8.9-11.8v-8.3h-24.5L237,115z"/>
			<g>
				<g>
					<g>
						
							<linearGradient id="SVGID_21_" gradientUnits="userSpaceOnUse" x1="78.2702" y1="125.814" x2="78.2702" y2="83.2995" gradientTransform="matrix(1 -1.800000e-03 1.800000e-03 1 -0.2021 0.14)">
							<stop  offset="0" style="stop-color:#C40C0C"/>
							<stop  offset="0.9421" style="stop-color:#700707"/>
						</linearGradient>
						<path fill="url(#SVGID_21_)" d="M78.2,87.7c-15,0-27.1,11.6-27.1,25.8l54.2-0.1C105.4,99.2,93.2,87.6,78.2,87.7z"/>
						
							<linearGradient id="SVGID_22_" gradientUnits="userSpaceOnUse" x1="78.27" y1="82.116" x2="78.27" y2="121.779" gradientTransform="matrix(1 -1.800000e-03 1.800000e-03 1 -0.2021 0.14)">
							<stop  offset="0" style="stop-color:#F26666"/>
							<stop  offset="0.9792" style="stop-color:#F23A3A"/>
						</linearGradient>
						<path fill="url(#SVGID_22_)" d="M51.7,115c1.3-14.1,12.7-25.1,26.5-25.1c13.8,0,25.2,11,26.6,25.1h1.4c0,0,0,0,0,0
							c0-15.4-12.6-31-28-30.9c-15.4,0-27.9,15.5-27.9,30.9c0,0,0,0,0,0H51.7z"/>
					</g>
					
						<radialGradient id="SVGID_23_" cx="80.7986" cy="110.6085" r="24.2192" gradientTransform="matrix(0.9998 2.190000e-02 -2.190000e-02 0.9998 -8.650453e-02 1.8511)" gradientUnits="userSpaceOnUse">
						<stop  offset="0" style="stop-color:#000000"/>
						<stop  offset="0.4223" style="stop-color:#020202"/>
						<stop  offset="0.637" style="stop-color:#0A0A0A"/>
						<stop  offset="0.8049" style="stop-color:#171717"/>
						<stop  offset="0.9477" style="stop-color:#2A2A2A"/>
						<stop  offset="1" style="stop-color:#333333"/>
					</radialGradient>
					<circle fill="url(#SVGID_23_)" cx="78.3" cy="114.2" r="20.5"/>
					
						<radialGradient id="SVGID_24_" cx="80.7987" cy="110.6086" r="14.1754" gradientTransform="matrix(0.9998 2.190000e-02 -2.190000e-02 0.9998 -8.650453e-02 1.8511)" gradientUnits="userSpaceOnUse">
						<stop  offset="0" style="stop-color:#333333"/>
						<stop  offset="0.2936" style="stop-color:#757575"/>
						<stop  offset="0.6303" style="stop-color:#BBBBBB"/>
						<stop  offset="0.8738" style="stop-color:#E7E7E7"/>
						<stop  offset="0.997" style="stop-color:#F7F7F7"/>
					</radialGradient>
					<circle fill="url(#SVGID_24_)" cx="78.3" cy="114.2" r="12.3"/>
					<g>
						<g>
							
								<radialGradient id="SVGID_25_" cx="343.7234" cy="407.2699" r="1.8781" gradientTransform="matrix(2.190000e-02 -0.9998 0.9998 2.190000e-02 -342.8483 448.9425)" gradientUnits="userSpaceOnUse">
								<stop  offset="0" style="stop-color:#000000"/>
								<stop  offset="0.4223" style="stop-color:#020202"/>
								<stop  offset="0.637" style="stop-color:#0A0A0A"/>
								<stop  offset="0.8049" style="stop-color:#171717"/>
								<stop  offset="0.9477" style="stop-color:#2A2A2A"/>
								<stop  offset="1" style="stop-color:#333333"/>
							</radialGradient>
							<circle fill="url(#SVGID_25_)" cx="71.9" cy="114.2" r="1.9"/>
							
								<radialGradient id="SVGID_26_" cx="344.0039" cy="420.0751" r="1.8782" gradientTransform="matrix(2.190000e-02 -0.9998 0.9998 2.190000e-02 -342.8483 448.9425)" gradientUnits="userSpaceOnUse">
								<stop  offset="0" style="stop-color:#000000"/>
								<stop  offset="0.4223" style="stop-color:#020202"/>
								<stop  offset="0.637" style="stop-color:#0A0A0A"/>
								<stop  offset="0.8049" style="stop-color:#171717"/>
								<stop  offset="0.9477" style="stop-color:#2A2A2A"/>
								<stop  offset="1" style="stop-color:#333333"/>
							</radialGradient>
							<circle fill="url(#SVGID_26_)" cx="84.7" cy="114.2" r="1.9"/>
							
								<radialGradient id="SVGID_27_" cx="-218.4637" cy="735.1158" r="1.8779" gradientTransform="matrix(-0.9998 -2.190000e-02 2.190000e-02 -0.9998 -156.2469 850.7963)" gradientUnits="userSpaceOnUse">
								<stop  offset="0" style="stop-color:#000000"/>
								<stop  offset="0.4223" style="stop-color:#020202"/>
								<stop  offset="0.637" style="stop-color:#0A0A0A"/>
								<stop  offset="0.8049" style="stop-color:#171717"/>
								<stop  offset="0.9477" style="stop-color:#2A2A2A"/>
								<stop  offset="1" style="stop-color:#333333"/>
							</radialGradient>
							<circle fill="url(#SVGID_27_)" cx="78.3" cy="120.6" r="1.9"/>
							
								<radialGradient id="SVGID_28_" cx="-218.1833" cy="747.9218" r="1.8779" gradientTransform="matrix(-0.9998 -2.190000e-02 2.190000e-02 -0.9998 -156.2469 850.7963)" gradientUnits="userSpaceOnUse">
								<stop  offset="0" style="stop-color:#000000"/>
								<stop  offset="0.4223" style="stop-color:#020202"/>
								<stop  offset="0.637" style="stop-color:#0A0A0A"/>
								<stop  offset="0.8049" style="stop-color:#171717"/>
								<stop  offset="0.9477" style="stop-color:#2A2A2A"/>
								<stop  offset="1" style="stop-color:#333333"/>
							</radialGradient>
							<circle fill="url(#SVGID_28_)" cx="78.3" cy="107.8" r="1.9"/>
						</g>
						<g>
							
								<radialGradient id="SVGID_29_" cx="389.4091" cy="623.4671" r="1.8778" gradientTransform="matrix(-0.6915 -0.7224 0.7224 -0.6915 -107.3731 831.1722)" gradientUnits="userSpaceOnUse">
								<stop  offset="0" style="stop-color:#000000"/>
								<stop  offset="0.4223" style="stop-color:#020202"/>
								<stop  offset="0.637" style="stop-color:#0A0A0A"/>
								<stop  offset="0.8049" style="stop-color:#171717"/>
								<stop  offset="0.9477" style="stop-color:#2A2A2A"/>
								<stop  offset="1" style="stop-color:#333333"/>
							</radialGradient>
							<circle fill="url(#SVGID_29_)" cx="73.7" cy="118.7" r="1.9"/>
							
								<radialGradient id="SVGID_30_" cx="389.6887" cy="636.2732" r="1.8781" gradientTransform="matrix(-0.6915 -0.7224 0.7224 -0.6915 -107.3731 831.1722)" gradientUnits="userSpaceOnUse">
								<stop  offset="0" style="stop-color:#000000"/>
								<stop  offset="0.4223" style="stop-color:#020202"/>
								<stop  offset="0.637" style="stop-color:#0A0A0A"/>
								<stop  offset="0.8049" style="stop-color:#171717"/>
								<stop  offset="0.9477" style="stop-color:#2A2A2A"/>
								<stop  offset="1" style="stop-color:#333333"/>
							</radialGradient>
							<circle fill="url(#SVGID_30_)" cx="82.8" cy="109.7" r="1.9"/>
							
								<radialGradient id="SVGID_31_" cx="-434.311" cy="781.6265" r="1.8779" gradientTransform="matrix(-0.7224 0.6915 -0.6915 -0.7224 309.5491 983.7085)" gradientUnits="userSpaceOnUse">
								<stop  offset="0" style="stop-color:#000000"/>
								<stop  offset="0.4223" style="stop-color:#020202"/>
								<stop  offset="0.637" style="stop-color:#0A0A0A"/>
								<stop  offset="0.8049" style="stop-color:#171717"/>
								<stop  offset="0.9477" style="stop-color:#2A2A2A"/>
								<stop  offset="1" style="stop-color:#333333"/>
							</radialGradient>
							<circle fill="url(#SVGID_31_)" cx="82.8" cy="118.7" r="1.9"/>
							
								<radialGradient id="SVGID_32_" cx="-434.0311" cy="794.4321" r="1.878" gradientTransform="matrix(-0.7224 0.6915 -0.6915 -0.7224 309.5491 983.7085)" gradientUnits="userSpaceOnUse">
								<stop  offset="0" style="stop-color:#000000"/>
								<stop  offset="0.4223" style="stop-color:#020202"/>
								<stop  offset="0.637" style="stop-color:#0A0A0A"/>
								<stop  offset="0.8049" style="stop-color:#171717"/>
								<stop  offset="0.9477" style="stop-color:#2A2A2A"/>
								<stop  offset="1" style="stop-color:#333333"/>
							</radialGradient>
							<circle fill="url(#SVGID_32_)" cx="73.7" cy="109.7" r="1.9"/>
						</g>
					</g>
					<circle fill="#CFCFCF" cx="78.3" cy="114.2" r="5.2"/>
				</g>
				<g>
					<g>
						
							<linearGradient id="SVGID_33_" gradientUnits="userSpaceOnUse" x1="209.2666" y1="126.0498" x2="209.2666" y2="83.5353" gradientTransform="matrix(1 -1.800000e-03 1.800000e-03 1 -0.2021 0.14)">
							<stop  offset="0" style="stop-color:#C40C0C"/>
							<stop  offset="0.9421" style="stop-color:#700707"/>
						</linearGradient>
						<path fill="url(#SVGID_33_)" d="M209.2,87.7c-15,0-27.1,11.6-27.1,25.8l54.2-0.1C236.3,99.2,224.2,87.6,209.2,87.7z"/>
						
							<linearGradient id="SVGID_34_" gradientUnits="userSpaceOnUse" x1="209.2666" y1="82.3517" x2="209.2666" y2="122.0148" gradientTransform="matrix(1 -1.800000e-03 1.800000e-03 1 -0.2021 0.14)">
							<stop  offset="0" style="stop-color:#F26666"/>
							<stop  offset="0.9792" style="stop-color:#F23A3A"/>
						</linearGradient>
						<path fill="url(#SVGID_34_)" d="M182.7,115c1.3-14.1,12.7-25.1,26.5-25.1c13.8,0,25.2,11,26.6,25.1h1.4c0,0,0,0,0,0
							c0-15.4-12.6-31-28-30.9c-15.4,0-27.9,15.5-27.9,30.9c0,0,0,0,0,0H182.7z"/>
					</g>
					
						<radialGradient id="SVGID_35_" cx="211.7589" cy="107.7399" r="24.219" gradientTransform="matrix(0.9998 2.190000e-02 -2.190000e-02 0.9998 -8.650453e-02 1.8511)" gradientUnits="userSpaceOnUse">
						<stop  offset="0" style="stop-color:#000000"/>
						<stop  offset="0.4223" style="stop-color:#020202"/>
						<stop  offset="0.637" style="stop-color:#0A0A0A"/>
						<stop  offset="0.8049" style="stop-color:#171717"/>
						<stop  offset="0.9477" style="stop-color:#2A2A2A"/>
						<stop  offset="1" style="stop-color:#333333"/>
					</radialGradient>
					<circle fill="url(#SVGID_35_)" cx="209.3" cy="114.2" r="20.5"/>
					
						<radialGradient id="SVGID_36_" cx="211.7589" cy="107.74" r="14.1756" gradientTransform="matrix(0.9998 2.190000e-02 -2.190000e-02 0.9998 -8.650453e-02 1.8511)" gradientUnits="userSpaceOnUse">
						<stop  offset="0" style="stop-color:#333333"/>
						<stop  offset="0.2936" style="stop-color:#757575"/>
						<stop  offset="0.6303" style="stop-color:#BBBBBB"/>
						<stop  offset="0.8738" style="stop-color:#E7E7E7"/>
						<stop  offset="0.997" style="stop-color:#F7F7F7"/>
					</radialGradient>
					<circle fill="url(#SVGID_36_)" cx="209.3" cy="114.2" r="12.3"/>
					<g>
						<g>
							
								<radialGradient id="SVGID_37_" cx="346.592" cy="538.2301" r="1.8782" gradientTransform="matrix(2.190000e-02 -0.9998 0.9998 2.190000e-02 -342.8483 448.9425)" gradientUnits="userSpaceOnUse">
								<stop  offset="0" style="stop-color:#000000"/>
								<stop  offset="0.4223" style="stop-color:#020202"/>
								<stop  offset="0.637" style="stop-color:#0A0A0A"/>
								<stop  offset="0.8049" style="stop-color:#171717"/>
								<stop  offset="0.9477" style="stop-color:#2A2A2A"/>
								<stop  offset="1" style="stop-color:#333333"/>
							</radialGradient>
							<circle fill="url(#SVGID_37_)" cx="202.9" cy="114.2" r="1.9"/>
							
								<radialGradient id="SVGID_38_" cx="346.8725" cy="551.0356" r="1.8782" gradientTransform="matrix(2.190000e-02 -0.9998 0.9998 2.190000e-02 -342.8483 448.9425)" gradientUnits="userSpaceOnUse">
								<stop  offset="0" style="stop-color:#000000"/>
								<stop  offset="0.4223" style="stop-color:#020202"/>
								<stop  offset="0.637" style="stop-color:#0A0A0A"/>
								<stop  offset="0.8049" style="stop-color:#171717"/>
								<stop  offset="0.9477" style="stop-color:#2A2A2A"/>
								<stop  offset="1" style="stop-color:#333333"/>
							</radialGradient>
							<circle fill="url(#SVGID_38_)" cx="215.7" cy="114.2" r="1.9"/>
							
								<radialGradient id="SVGID_39_" cx="-349.424" cy="737.9844" r="1.8778" gradientTransform="matrix(-0.9998 -2.190000e-02 2.190000e-02 -0.9998 -156.2469 850.7963)" gradientUnits="userSpaceOnUse">
								<stop  offset="0" style="stop-color:#000000"/>
								<stop  offset="0.4223" style="stop-color:#020202"/>
								<stop  offset="0.637" style="stop-color:#0A0A0A"/>
								<stop  offset="0.8049" style="stop-color:#171717"/>
								<stop  offset="0.9477" style="stop-color:#2A2A2A"/>
								<stop  offset="1" style="stop-color:#333333"/>
							</radialGradient>
							<circle fill="url(#SVGID_39_)" cx="209.3" cy="120.6" r="1.9"/>
							
								<radialGradient id="SVGID_40_" cx="-349.1435" cy="750.7905" r="1.8778" gradientTransform="matrix(-0.9998 -2.190000e-02 2.190000e-02 -0.9998 -156.2469 850.7963)" gradientUnits="userSpaceOnUse">
								<stop  offset="0" style="stop-color:#000000"/>
								<stop  offset="0.4223" style="stop-color:#020202"/>
								<stop  offset="0.637" style="stop-color:#0A0A0A"/>
								<stop  offset="0.8049" style="stop-color:#171717"/>
								<stop  offset="0.9477" style="stop-color:#2A2A2A"/>
								<stop  offset="1" style="stop-color:#333333"/>
							</radialGradient>
							<circle fill="url(#SVGID_40_)" cx="209.3" cy="107.8" r="1.9"/>
						</g>
						<g>
							
								<radialGradient id="SVGID_41_" cx="298.8277" cy="718.0962" r="1.8778" gradientTransform="matrix(-0.6915 -0.7224 0.7224 -0.6915 -107.3731 831.1722)" gradientUnits="userSpaceOnUse">
								<stop  offset="0" style="stop-color:#000000"/>
								<stop  offset="0.4223" style="stop-color:#020202"/>
								<stop  offset="0.637" style="stop-color:#0A0A0A"/>
								<stop  offset="0.8049" style="stop-color:#171717"/>
								<stop  offset="0.9477" style="stop-color:#2A2A2A"/>
								<stop  offset="1" style="stop-color:#333333"/>
							</radialGradient>
							<circle fill="url(#SVGID_41_)" cx="204.7" cy="118.7" r="1.9"/>
							
								<radialGradient id="SVGID_42_" cx="299.1075" cy="730.9019" r="1.878" gradientTransform="matrix(-0.6915 -0.7224 0.7224 -0.6915 -107.3731 831.1722)" gradientUnits="userSpaceOnUse">
								<stop  offset="0" style="stop-color:#000000"/>
								<stop  offset="0.4223" style="stop-color:#020202"/>
								<stop  offset="0.637" style="stop-color:#0A0A0A"/>
								<stop  offset="0.8049" style="stop-color:#171717"/>
								<stop  offset="0.9477" style="stop-color:#2A2A2A"/>
								<stop  offset="1" style="stop-color:#333333"/>
							</radialGradient>
							<circle fill="url(#SVGID_42_)" cx="213.8" cy="109.7" r="1.9"/>
							
								<radialGradient id="SVGID_43_" cx="-528.9397" cy="691.0453" r="1.8778" gradientTransform="matrix(-0.7224 0.6915 -0.6915 -0.7224 309.5491 983.7085)" gradientUnits="userSpaceOnUse">
								<stop  offset="0" style="stop-color:#000000"/>
								<stop  offset="0.4223" style="stop-color:#020202"/>
								<stop  offset="0.637" style="stop-color:#0A0A0A"/>
								<stop  offset="0.8049" style="stop-color:#171717"/>
								<stop  offset="0.9477" style="stop-color:#2A2A2A"/>
								<stop  offset="1" style="stop-color:#333333"/>
							</radialGradient>
							<circle fill="url(#SVGID_43_)" cx="213.8" cy="118.7" r="1.9"/>
							
								<radialGradient id="SVGID_44_" cx="-528.6602" cy="703.8506" r="1.878" gradientTransform="matrix(-0.7224 0.6915 -0.6915 -0.7224 309.5491 983.7085)" gradientUnits="userSpaceOnUse">
								<stop  offset="0" style="stop-color:#000000"/>
								<stop  offset="0.4223" style="stop-color:#020202"/>
								<stop  offset="0.637" style="stop-color:#0A0A0A"/>
								<stop  offset="0.8049" style="stop-color:#171717"/>
								<stop  offset="0.9477" style="stop-color:#2A2A2A"/>
								<stop  offset="1" style="stop-color:#333333"/>
							</radialGradient>
							<circle fill="url(#SVGID_44_)" cx="204.7" cy="109.7" r="1.9"/>
						</g>
					</g>
					<circle fill="#CFCFCF" cx="209.3" cy="114.2" r="5.2"/>
				</g>
			</g>
		</g>
	</g>
</g>
</svg>
