<?xml version="1.0" encoding="utf-8"?>
<!-- Generator: Adobe Illustrator 18.0.0, SVG Export Plug-In . SVG Version: 6.00 Build 0)  -->
<!DOCTYPE svg PUBLIC "-//W3C//DTD SVG 1.1//EN" "http://www.w3.org/Graphics/SVG/1.1/DTD/svg11.dtd">
<svg version="1.1" id="Layer_1" xmlns="http://www.w3.org/2000/svg" xmlns:xlink="http://www.w3.org/1999/xlink" x="0px" y="0px"
	 viewBox="0 0 290 155" enable-background="new 0 0 290 155" xml:space="preserve">
<g>
	
		<radialGradient id="SVGID_1_" cx="742.5985" cy="671.6568" r="238.8891" gradientTransform="matrix(0.5588 0 0 1.392615e-02 -269.5207 134.0759)" gradientUnits="userSpaceOnUse">
		<stop  offset="0" style="stop-color:#000000"/>
		<stop  offset="1" style="stop-color:#000000;stop-opacity:0"/>
	</radialGradient>
	<ellipse opacity="0.8" fill="url(#SVGID_1_)" cx="145.4" cy="143.4" rx="134" ry="3.5"/>
	
		<radialGradient id="SVGID_2_" cx="770.825" cy="1319.9207" r="238.9125" gradientTransform="matrix(0.1798 0 0 7.456945e-03 -70.8331 133.5866)" gradientUnits="userSpaceOnUse">
		<stop  offset="0" style="stop-color:#000000"/>
		<stop  offset="1" style="stop-color:#000000;stop-opacity:0"/>
	</radialGradient>
	<ellipse opacity="0.8" fill="url(#SVGID_2_)" cx="67.8" cy="143.4" rx="43.1" ry="1.9"/>
	
		<radialGradient id="SVGID_3_" cx="1629.8854" cy="1319.9207" r="238.9178" gradientTransform="matrix(0.1965 0 0 7.456945e-03 -87.9605 133.5866)" gradientUnits="userSpaceOnUse">
		<stop  offset="0" style="stop-color:#000000"/>
		<stop  offset="1" style="stop-color:#000000;stop-opacity:0"/>
	</radialGradient>
	<ellipse opacity="0.8" fill="url(#SVGID_3_)" cx="232.3" cy="143.4" rx="47.1" ry="1.9"/>
	<linearGradient id="SVGID_4_" gradientUnits="userSpaceOnUse" x1="149.2402" y1="129.9552" x2="149.2402" y2="112.4194">
		<stop  offset="0" style="stop-color:#6B6B6B"/>
		<stop  offset="0.8215" style="stop-color:#FFFCF5;stop-opacity:0"/>
	</linearGradient>
	<path fill="url(#SVGID_4_)" d="M28.7,124h13l2.1-9.1h50.8l1.6,9.1h107.7l1.7-10.1h-177C28.7,120.1,28.7,124,28.7,124z M255.4,113.9
		l2.8,10.1h11.6c0,0,0-4.7,0-10.1H255.4z"/>
	<linearGradient id="SVGID_5_" gradientUnits="userSpaceOnUse" x1="134.3476" y1="27.104" x2="134.3476" y2="-0.8655">
		<stop  offset="0" style="stop-color:#950109"/>
		<stop  offset="0.3805" style="stop-color:#C10C08"/>
		<stop  offset="0.7512" style="stop-color:#E81508"/>
	</linearGradient>
	<path fill="url(#SVGID_5_)" d="M142,23.8c0,1.5-1.2,2.7-2.7,2.7h-10c-1.5,0-2.7-1.2-2.7-2.7V10.7c0-1.5,1.2-2.7,2.7-2.7h10
		c1.5,0,2.7,1.2,2.7,2.7V23.8z"/>
	<linearGradient id="SVGID_6_" gradientUnits="userSpaceOnUse" x1="134.1938" y1="14.7481" x2="134.1938" y2="27.2882">
		<stop  offset="0" style="stop-color:#F7F7F7"/>
		<stop  offset="2.073914e-02" style="stop-color:#EEEEEE"/>
		<stop  offset="0.1154" style="stop-color:#C8C8C8"/>
		<stop  offset="0.2175" style="stop-color:#A7A7A7"/>
		<stop  offset="0.3267" style="stop-color:#8C8C8C"/>
		<stop  offset="0.4456" style="stop-color:#787878"/>
		<stop  offset="0.5794" style="stop-color:#696969"/>
		<stop  offset="0.7401" style="stop-color:#616161"/>
		<stop  offset="1" style="stop-color:#5E5E5E"/>
	</linearGradient>
	<path fill="url(#SVGID_6_)" d="M147.1,25.2c0,2.1-1.7,3.9-3.9,3.9h-18.1c-2.1,0-3.9-1.7-3.9-3.9V19c0-2.1,1.7-3.9,3.9-3.9h18.1
		c2.1,0,3.9,1.7,3.9,3.9V25.2z"/>
	<linearGradient id="SVGID_7_" gradientUnits="userSpaceOnUse" x1="170.3321" y1="75.6487" x2="221.7736" y2="32.4842">
		<stop  offset="5.650790e-02" style="stop-color:#FFFFFF"/>
		<stop  offset="7.970560e-02" style="stop-color:#FAFDFE"/>
		<stop  offset="0.2282" style="stop-color:#DCF0FA"/>
		<stop  offset="0.3556" style="stop-color:#CAE8F8"/>
		<stop  offset="0.4463" style="stop-color:#C3E5F7"/>
		<stop  offset="0.4961" style="stop-color:#D9EEFA"/>
		<stop  offset="0.555" style="stop-color:#EAF6FC"/>
		<stop  offset="0.6273" style="stop-color:#F6FBFE"/>
		<stop  offset="0.7265" style="stop-color:#FDFEFF"/>
		<stop  offset="0.9779" style="stop-color:#FFFFFF"/>
	</linearGradient>
	<path fill="url(#SVGID_7_)" d="M172.4,21c0,0,36.3,34.5,57.9,57.2h-57.9V21z"/>
	<linearGradient id="SVGID_8_" gradientUnits="userSpaceOnUse" x1="149.2402" y1="146.161" x2="149.2402" y2="27.6851">
		<stop  offset="0.1035" style="stop-color:#C9C9C9"/>
		<stop  offset="0.1629" style="stop-color:#D5D4D3"/>
		<stop  offset="0.2906" style="stop-color:#E8E6E2"/>
		<stop  offset="0.4403" style="stop-color:#F5F2ED"/>
		<stop  offset="0.6307" style="stop-color:#FDFAF3"/>
		<stop  offset="0.9991" style="stop-color:#FFFCF5"/>
	</linearGradient>
	<path fill="url(#SVGID_8_)" d="M43.8,114.9h50.8l1.6,9.1h107.7l1.7-10.1h49.7l2.8,10.1h11.6c0,0,0-12.2,0-20.3
		c0-7.6-39.6-27.6-41.5-27.6c-1.2,0-1.6,0-4.6,0c0,0-48.7-53.1-50.5-54.7c-2.9-2.5-3.4-2.5-8.9-2.5c-5.4,0-123.2,0-131.4,0
		c-4.4,0-4.3,1.6-4.3,6.5c0,10,0,98.8,0,98.8h13L43.8,114.9z"/>
	<linearGradient id="SVGID_9_" gradientUnits="userSpaceOnUse" x1="149.039" y1="102.209" x2="149.039" y2="70.6524">
		<stop  offset="0" style="stop-color:#FA2630"/>
		<stop  offset="0.193" style="stop-color:#FA2A34"/>
		<stop  offset="0.3814" style="stop-color:#FA363F"/>
		<stop  offset="0.5679" style="stop-color:#FA4951"/>
		<stop  offset="0.7533" style="stop-color:#FA656B"/>
		<stop  offset="0.9363" style="stop-color:#FA888D"/>
		<stop  offset="1" style="stop-color:#FA969A"/>
	</linearGradient>
	<path fill="url(#SVGID_9_)" d="M241.7,82.5h-213c0,7,0,13.8,0,19.8h240.7C266.9,97.1,252.7,88.4,241.7,82.5z"/>
	<g>
		<linearGradient id="SVGID_10_" gradientUnits="userSpaceOnUse" x1="113.4829" y1="93.5282" x2="113.4829" y2="88.0119">
			<stop  offset="0.2973" style="stop-color:#333333"/>
			<stop  offset="0.4749" style="stop-color:#787878"/>
			<stop  offset="0.6358" style="stop-color:#AFAFAF"/>
			<stop  offset="0.7736" style="stop-color:#D6D6D6"/>
			<stop  offset="0.8828" style="stop-color:#EEEEEE"/>
			<stop  offset="0.9499" style="stop-color:#F7F7F7"/>
		</linearGradient>
		<path fill="url(#SVGID_10_)" d="M120,90v-0.5c0-1-0.8-1.7-1.7-1.7h-9.7c-1,0-1.7,0.8-1.7,1.7V90H120z"/>
		<linearGradient id="SVGID_11_" gradientUnits="userSpaceOnUse" x1="113.4829" y1="93.3003" x2="113.4829" y2="90.0317">
			<stop  offset="0" style="stop-color:#000000;stop-opacity:0"/>
			<stop  offset="0.8581" style="stop-color:#000000;stop-opacity:0.8581"/>
			<stop  offset="1" style="stop-color:#000000"/>
		</linearGradient>
		<rect x="106.9" y="90" opacity="0.2" fill="url(#SVGID_11_)" width="13.1" height="3.3"/>
	</g>
	<g>
		<linearGradient id="SVGID_12_" gradientUnits="userSpaceOnUse" x1="161.2485" y1="93.5282" x2="161.2485" y2="88.0119">
			<stop  offset="0.2973" style="stop-color:#333333"/>
			<stop  offset="0.4749" style="stop-color:#787878"/>
			<stop  offset="0.6358" style="stop-color:#AFAFAF"/>
			<stop  offset="0.7736" style="stop-color:#D6D6D6"/>
			<stop  offset="0.8828" style="stop-color:#EEEEEE"/>
			<stop  offset="0.9499" style="stop-color:#F7F7F7"/>
		</linearGradient>
		<path fill="url(#SVGID_12_)" d="M167.8,90v-0.5c0-1-0.8-1.7-1.7-1.7h-9.7c-1,0-1.7,0.8-1.7,1.7V90H167.8z"/>
		<linearGradient id="SVGID_13_" gradientUnits="userSpaceOnUse" x1="161.2485" y1="93.3003" x2="161.2485" y2="90.0317">
			<stop  offset="0" style="stop-color:#000000;stop-opacity:0"/>
			<stop  offset="0.8581" style="stop-color:#000000;stop-opacity:0.8581"/>
			<stop  offset="1" style="stop-color:#000000"/>
		</linearGradient>
		<rect x="154.7" y="90" opacity="0.2" fill="url(#SVGID_13_)" width="13.1" height="3.3"/>
	</g>
	<path fill="none" stroke="#1D1D1B" stroke-width="0.5" stroke-miterlimit="10" d="M212.1,113.9"/>
	<linearGradient id="SVGID_14_" gradientUnits="userSpaceOnUse" x1="149.4767" y1="73.1689" x2="221.0114" y2="23.8895">
		<stop  offset="5.650790e-02" style="stop-color:#FFFFFF"/>
		<stop  offset="8.364039e-02" style="stop-color:#F7FCFF"/>
		<stop  offset="0.1597" style="stop-color:#E5F7FF"/>
		<stop  offset="0.2139" style="stop-color:#DEF5FF"/>
		<stop  offset="0.2231" style="stop-color:#E3F7FF"/>
		<stop  offset="0.2598" style="stop-color:#F3FBFF"/>
		<stop  offset="0.3018" style="stop-color:#FCFEFF"/>
		<stop  offset="0.3605" style="stop-color:#FFFFFF"/>
		<stop  offset="0.6301" style="stop-color:#CAE1F9"/>
		<stop  offset="0.6691" style="stop-color:#D4E7FA"/>
		<stop  offset="0.7352" style="stop-color:#EFF6FD"/>
		<stop  offset="0.7694" style="stop-color:#FFFFFF"/>
	</linearGradient>
	<path fill="url(#SVGID_14_)" stroke="#F0F0F0" stroke-miterlimit="10" d="M154.7,22.8v53.1h58.9c0,0-39.3-48.9-41.1-50.9
		c-2-2.2-3.4-2.2-6.6-2.2C162.7,22.8,154.7,22.8,154.7,22.8z"/>
	<linearGradient id="SVGID_15_" gradientUnits="userSpaceOnUse" x1="94.4655" y1="69.4525" x2="165.2782" y2="23.0442">
		<stop  offset="5.650790e-02" style="stop-color:#FFFFFF"/>
		<stop  offset="8.364039e-02" style="stop-color:#F7FCFF"/>
		<stop  offset="0.1597" style="stop-color:#E5F7FF"/>
		<stop  offset="0.2139" style="stop-color:#DEF5FF"/>
		<stop  offset="0.2242" style="stop-color:#E3F7FF"/>
		<stop  offset="0.2652" style="stop-color:#F3FBFF"/>
		<stop  offset="0.3121" style="stop-color:#FCFEFF"/>
		<stop  offset="0.3777" style="stop-color:#FFFFFF"/>
		<stop  offset="0.4308" style="stop-color:#FAFCFE"/>
		<stop  offset="0.4927" style="stop-color:#ECF4FD"/>
		<stop  offset="0.5587" style="stop-color:#D5E7FA"/>
		<stop  offset="0.5835" style="stop-color:#CAE1F9"/>
		<stop  offset="0.6091" style="stop-color:#D3E6FA"/>
		<stop  offset="0.7123" style="stop-color:#F3F8FE"/>
		<stop  offset="0.7694" style="stop-color:#FFFFFF"/>
	</linearGradient>
	<path fill="url(#SVGID_15_)" stroke="#F0F0F0" stroke-miterlimit="10" d="M143,74.9c0,0.5-0.4,1-1,1h-35.1c-0.5,0-1-0.4-1-1V24.7
		c0-0.5,0.4-1,1-1H142c0.5,0,1,0.4,1,1V74.9z"/>
	<linearGradient id="SVGID_16_" gradientUnits="userSpaceOnUse" x1="267.225" y1="127.1947" x2="267.225" y2="112.7126">
		<stop  offset="0" style="stop-color:#5E5E5E"/>
		<stop  offset="0.2599" style="stop-color:#616161"/>
		<stop  offset="0.4206" style="stop-color:#696969"/>
		<stop  offset="0.5544" style="stop-color:#787878"/>
		<stop  offset="0.6733" style="stop-color:#8C8C8C"/>
		<stop  offset="0.7825" style="stop-color:#A7A7A7"/>
		<stop  offset="0.8846" style="stop-color:#C8C8C8"/>
		<stop  offset="0.9793" style="stop-color:#EEEEEE"/>
		<stop  offset="1" style="stop-color:#F7F7F7"/>
	</linearGradient>
	<path fill="url(#SVGID_16_)" d="M260.2,114h14c0,0,0,4.4,0,7.8c0,3.3-1.5,3.3-4.4,3.3c-2.9,0-7.4,0-7.4,0L260.2,114z"/>
	
		<linearGradient id="SVGID_17_" gradientUnits="userSpaceOnUse" x1="259.7319" y1="-421.0159" x2="259.7463" y2="-427.5862" gradientTransform="matrix(-1 0 0 -1 299.3496 -398.2236)">
		<stop  offset="0" style="stop-color:#E81508"/>
		<stop  offset="0.4625" style="stop-color:#E61508"/>
		<stop  offset="0.6291" style="stop-color:#DF1308"/>
		<stop  offset="0.7478" style="stop-color:#D41008"/>
		<stop  offset="0.8438" style="stop-color:#C30C08"/>
		<stop  offset="0.9251" style="stop-color:#AD0709"/>
		<stop  offset="0.9967" style="stop-color:#920009"/>
		<stop  offset="1" style="stop-color:#910009"/>
	</linearGradient>
	<path fill="url(#SVGID_17_)" d="M34.7,23.9c0-0.6,0.5-1.1,1.1-1.1h7.5c0.6,0,1.1,0.5,1.1,1.1V28c0,0.6-0.5,1.1-1.1,1.1h-7.5
		c-0.6,0-1.1-0.5-1.1-1.1V23.9z"/>
	<linearGradient id="SVGID_18_" gradientUnits="userSpaceOnUse" x1="51.3915" y1="74.5424" x2="80.6663" y2="27.8355">
		<stop  offset="0" style="stop-color:#FA2630"/>
		<stop  offset="0.193" style="stop-color:#FA2A34"/>
		<stop  offset="0.3814" style="stop-color:#FA363F"/>
		<stop  offset="0.5679" style="stop-color:#FA4951"/>
		<stop  offset="0.7533" style="stop-color:#FA656B"/>
		<stop  offset="0.9363" style="stop-color:#FA888D"/>
		<stop  offset="1" style="stop-color:#FA969A"/>
	</linearGradient>
	<path fill="url(#SVGID_18_)" d="M80,47.3h-9.2V38c0-0.6-0.5-1.2-1.2-1.2H60c-0.6,0-1.2,0.5-1.2,1.2v9.2h-9.2
		c-0.6,0-1.2,0.5-1.2,1.2V58c0,0.6,0.5,1.2,1.2,1.2h9.2v9.2c0,0.6,0.5,1.2,1.2,1.2h9.6c0.6,0,1.2-0.5,1.2-1.2v-9.2H80
		c0.6,0,1.2-0.5,1.2-1.2v-9.6C81.1,47.8,80.6,47.3,80,47.3z"/>
	<g>
		<linearGradient id="SVGID_19_" gradientUnits="userSpaceOnUse" x1="212.6709" y1="81.6792" x2="209.9975" y2="60.1045">
			<stop  offset="0" style="stop-color:#F7F7F7"/>
			<stop  offset="0.3212" style="stop-color:#B0B0B0"/>
			<stop  offset="0.6423" style="stop-color:#6F6F6F"/>
			<stop  offset="0.875" style="stop-color:#474747"/>
			<stop  offset="0.9953" style="stop-color:#383838"/>
		</linearGradient>
		<path fill="url(#SVGID_19_)" d="M207.7,70.7l4.8,7.5c0,0,2.5,0,3-3.1l-7.8-5.4V70.7z"/>
		<linearGradient id="SVGID_20_" gradientUnits="userSpaceOnUse" x1="205.5112" y1="82.8741" x2="208.1273" y2="55.0777">
			<stop  offset="0" style="stop-color:#8C8C8C"/>
			<stop  offset="0.1747" style="stop-color:#919191"/>
			<stop  offset="0.3758" style="stop-color:#9F9F9F"/>
			<stop  offset="0.5899" style="stop-color:#B6B6B6"/>
			<stop  offset="0.8116" style="stop-color:#D6D6D6"/>
			<stop  offset="1" style="stop-color:#F7F7F7"/>
		</linearGradient>
		<path fill="url(#SVGID_20_)" d="M205,76.5h0.8c1.7,0,3-0.9,3-2V63.1c0-1.1-1.4-2-3-2H205V76.5z"/>
	</g>
	<linearGradient id="SVGID_21_" gradientUnits="userSpaceOnUse" x1="149.1918" y1="117.1064" x2="149.2252" y2="101.9004">
		<stop  offset="5.665960e-02" style="stop-color:#FFFFFF"/>
		<stop  offset="0.8973" style="stop-color:#F7F7F7;stop-opacity:0"/>
	</linearGradient>
	<path fill="url(#SVGID_21_)" d="M228.3,76c-1.2,0-1.6,0-4.6,0c0,0-0.1-0.1-0.2-0.2H28.7c0,14.5,0,28.8,0,38h177h49.7h14.4
		c0-3.4,0-7.1,0-10.2C269.8,96.1,230.2,76,228.3,76z"/>
	<g>
		<g>
			<linearGradient id="SVGID_22_" gradientUnits="userSpaceOnUse" x1="68.8398" y1="134.9016" x2="68.8398" y2="92.3887">
				<stop  offset="0" style="stop-color:#C9C9C9"/>
				<stop  offset="1" style="stop-color:#545454"/>
			</linearGradient>
			<path fill="url(#SVGID_22_)" d="M68.8,96.8c-15,0-27.1,11.6-27.1,25.7h54.2C95.9,108.3,83.8,96.8,68.8,96.8z"/>
			<linearGradient id="SVGID_23_" gradientUnits="userSpaceOnUse" x1="68.8398" y1="93.238" x2="68.8398" y2="130.3302">
				<stop  offset="0" style="stop-color:#FFFFFF"/>
				<stop  offset="0.9991" style="stop-color:#FFFCF5"/>
			</linearGradient>
			<path fill="url(#SVGID_23_)" d="M42.3,124c1.4-14.1,12.7-25.1,26.6-25.1c13.8,0,25.2,11,26.6,25.1h1.4c0,0,0,0,0,0
				c0-15.4-12.5-29-27.9-29c-15.4,0-27.9,13.5-27.9,29c0,0,0,0,0,0H42.3z"/>
		</g>
		<g>
			
				<radialGradient id="SVGID_24_" cx="72.0585" cy="120.3899" r="23.8065" gradientTransform="matrix(0.9997 2.370000e-02 -2.370000e-02 0.9997 -0.3438 1.2585)" gradientUnits="userSpaceOnUse">
				<stop  offset="0" style="stop-color:#000000"/>
				<stop  offset="0.4223" style="stop-color:#020202"/>
				<stop  offset="0.637" style="stop-color:#0A0A0A"/>
				<stop  offset="0.8049" style="stop-color:#171717"/>
				<stop  offset="0.9477" style="stop-color:#2A2A2A"/>
				<stop  offset="1" style="stop-color:#333333"/>
			</radialGradient>
			<circle fill="url(#SVGID_24_)" cx="68.8" cy="123.3" r="20.1"/>
			
				<radialGradient id="SVGID_25_" cx="72.0585" cy="120.3896" r="12.6542" gradientTransform="matrix(0.9997 2.370000e-02 -2.370000e-02 0.9997 -0.3438 1.2585)" gradientUnits="userSpaceOnUse">
				<stop  offset="3.015020e-03" style="stop-color:#3B3B3B"/>
				<stop  offset="1" style="stop-color:#333333"/>
			</radialGradient>
			<circle fill="url(#SVGID_25_)" cx="68.8" cy="123.3" r="12.7"/>
			
				<radialGradient id="SVGID_26_" cx="72.0585" cy="120.3897" r="11.6492" gradientTransform="matrix(0.9997 2.370000e-02 -2.370000e-02 0.9997 -0.3438 1.2585)" gradientUnits="userSpaceOnUse">
				<stop  offset="0.4788" style="stop-color:#333333"/>
				<stop  offset="0.6024" style="stop-color:#686868"/>
				<stop  offset="0.7932" style="stop-color:#B5B5B5"/>
				<stop  offset="0.9295" style="stop-color:#E5E5E5"/>
				<stop  offset="0.997" style="stop-color:#F7F7F7"/>
			</radialGradient>
			<circle fill="url(#SVGID_26_)" cx="68.8" cy="123.3" r="11.6"/>
			<g>
				<circle fill="#CFCFCF" cx="68.8" cy="123.3" r="6"/>
				<rect x="67.8" y="113.2" fill="#CFCFCF" width="2.2" height="20.2"/>
				<rect x="58.7" y="122.2" fill="#CFCFCF" width="20.2" height="2.2"/>
				
					<rect x="67.8" y="113.2" transform="matrix(0.7071 -0.7071 0.7071 0.7071 -67.0375 84.7967)" fill="#CFCFCF" width="2.2" height="20.2"/>
				
					<rect x="67.8" y="113.2" transform="matrix(-0.7071 -0.7071 0.7071 -0.7071 30.3167 259.1972)" fill="#CFCFCF" width="2.2" height="20.2"/>
			</g>
		</g>
	</g>
	<g>
		<g>
			<linearGradient id="SVGID_27_" gradientUnits="userSpaceOnUse" x1="231.2334" y1="134.9016" x2="231.2334" y2="92.3887">
				<stop  offset="0" style="stop-color:#C9C9C9"/>
				<stop  offset="1" style="stop-color:#545454"/>
			</linearGradient>
			<path fill="url(#SVGID_27_)" d="M231.2,96.8c-15,0-27.1,11.6-27.1,25.7h54.2C258.3,108.3,246.2,96.8,231.2,96.8z"/>
			<linearGradient id="SVGID_28_" gradientUnits="userSpaceOnUse" x1="231.2334" y1="93.238" x2="231.2334" y2="130.3302">
				<stop  offset="0" style="stop-color:#FFFFFF"/>
				<stop  offset="0.9991" style="stop-color:#FFFCF5"/>
			</linearGradient>
			<path fill="url(#SVGID_28_)" d="M204.7,124c1.4-14.1,12.7-25.1,26.6-25.1s25.2,11,26.6,25.1h1.4c0,0,0,0,0,0
				c0-15.4-12.5-29-27.9-29c-15.4,0-27.9,13.5-27.9,29c0,0,0,0,0,0H204.7z"/>
		</g>
		<g>
			
				<radialGradient id="SVGID_29_" cx="234.41" cy="116.541" r="23.8067" gradientTransform="matrix(0.9997 2.370000e-02 -2.370000e-02 0.9997 -0.3438 1.2585)" gradientUnits="userSpaceOnUse">
				<stop  offset="0" style="stop-color:#000000"/>
				<stop  offset="0.4223" style="stop-color:#020202"/>
				<stop  offset="0.637" style="stop-color:#0A0A0A"/>
				<stop  offset="0.8049" style="stop-color:#171717"/>
				<stop  offset="0.9477" style="stop-color:#2A2A2A"/>
				<stop  offset="1" style="stop-color:#333333"/>
			</radialGradient>
			<circle fill="url(#SVGID_29_)" cx="231.2" cy="123.3" r="20.1"/>
			
				<radialGradient id="SVGID_30_" cx="234.4095" cy="116.5407" r="12.6542" gradientTransform="matrix(0.9997 2.370000e-02 -2.370000e-02 0.9997 -0.3438 1.2585)" gradientUnits="userSpaceOnUse">
				<stop  offset="3.015020e-03" style="stop-color:#3B3B3B"/>
				<stop  offset="1" style="stop-color:#333333"/>
			</radialGradient>
			<circle fill="url(#SVGID_30_)" cx="231.2" cy="123.3" r="12.7"/>
			
				<radialGradient id="SVGID_31_" cx="234.4095" cy="116.5408" r="11.6492" gradientTransform="matrix(0.9997 2.370000e-02 -2.370000e-02 0.9997 -0.3438 1.2585)" gradientUnits="userSpaceOnUse">
				<stop  offset="0.4788" style="stop-color:#333333"/>
				<stop  offset="0.6024" style="stop-color:#686868"/>
				<stop  offset="0.7932" style="stop-color:#B5B5B5"/>
				<stop  offset="0.9295" style="stop-color:#E5E5E5"/>
				<stop  offset="0.997" style="stop-color:#F7F7F7"/>
			</radialGradient>
			<circle fill="url(#SVGID_31_)" cx="231.2" cy="123.3" r="11.6"/>
			<g>
				<circle fill="#CFCFCF" cx="231.2" cy="123.3" r="6"/>
				<rect x="230.2" y="113.2" fill="#CFCFCF" width="2.2" height="20.2"/>
				<rect x="221.1" y="122.2" fill="#CFCFCF" width="20.2" height="2.2"/>
				
					<rect x="230.2" y="113.2" transform="matrix(0.7071 -0.7071 0.7071 0.7071 -19.4736 199.6262)" fill="#CFCFCF" width="2.2" height="20.2"/>
				
					<rect x="230.2" y="113.2" transform="matrix(-0.7071 -0.7071 0.7071 -0.7071 307.5398 374.0268)" fill="#CFCFCF" width="2.2" height="20.2"/>
			</g>
		</g>
	</g>
	<linearGradient id="SVGID_32_" gradientUnits="userSpaceOnUse" x1="29.5185" y1="100.689" x2="29.5185" y2="115.9707">
		<stop  offset="0" style="stop-color:#F7F7F7"/>
		<stop  offset="0.1805" style="stop-color:#E1E1E1"/>
		<stop  offset="0.5568" style="stop-color:#A9A9A9"/>
		<stop  offset="1" style="stop-color:#5E5E5E"/>
	</linearGradient>
	<path fill="url(#SVGID_32_)" d="M33.1,114.9c0,0.6-0.5,1.1-1.1,1.1h-5c-0.6,0-1.1-0.5-1.1-1.1v-13.1c0-0.6,0.5-1.1,1.1-1.1h5
		c0.6,0,1.1,0.5,1.1,1.1V114.9z"/>
	<g>
		
			<linearGradient id="SVGID_33_" gradientUnits="userSpaceOnUse" x1="-413.082" y1="-1039.3114" x2="-413.082" y2="-1047.8933" gradientTransform="matrix(-1 0 0 -1 -385.2373 -935.6982)">
			<stop  offset="0" style="stop-color:#E81508"/>
			<stop  offset="0.4625" style="stop-color:#E61508"/>
			<stop  offset="0.6291" style="stop-color:#DF1308"/>
			<stop  offset="0.7478" style="stop-color:#D41008"/>
			<stop  offset="0.8438" style="stop-color:#C30C08"/>
			<stop  offset="0.9251" style="stop-color:#AD0709"/>
			<stop  offset="0.9967" style="stop-color:#920009"/>
			<stop  offset="1" style="stop-color:#910009"/>
		</linearGradient>
		<path fill="url(#SVGID_33_)" d="M24.1,110.8h7.4c0,0,0-4,0-6.1c0-2.1-0.3-2.5-1.6-2.5c-1.3,0-1.9,0-3,0c-1.4,0-2.8,0.2-2.8,3.4
			C24.1,108.8,24.1,110.8,24.1,110.8z"/>
		
			<linearGradient id="SVGID_34_" gradientUnits="userSpaceOnUse" x1="-413.082" y1="-1046.4893" x2="-413.082" y2="-1049.6512" gradientTransform="matrix(-1 0 0 -1 -385.2373 -935.6982)">
			<stop  offset="3.015020e-03" style="stop-color:#F7DE00"/>
			<stop  offset="1" style="stop-color:#E69409"/>
		</linearGradient>
		<path fill="url(#SVGID_34_)" d="M24.1,110.8c0,1.8,0,3.2,0,3.2h7.4c0,0,0-1.4,0-3.2H24.1z"/>
	</g>
	<linearGradient id="SVGID_35_" gradientUnits="userSpaceOnUse" x1="31.8682" y1="129.5435" x2="31.8682" y2="112.2597">
		<stop  offset="0" style="stop-color:#5E5E5E"/>
		<stop  offset="0.2865" style="stop-color:#616161"/>
		<stop  offset="0.4463" style="stop-color:#696969"/>
		<stop  offset="0.5749" style="stop-color:#777777"/>
		<stop  offset="0.687" style="stop-color:#8A8A8A"/>
		<stop  offset="0.7882" style="stop-color:#A4A4A4"/>
		<stop  offset="0.8816" style="stop-color:#C3C3C3"/>
		<stop  offset="0.9674" style="stop-color:#E7E7E7"/>
		<stop  offset="1" style="stop-color:#F7F7F7"/>
	</linearGradient>
	<path fill="url(#SVGID_35_)" d="M39.6,114H24.1c0,0,0,4.4,0,7.8c0,3.3,1.5,3.3,4.4,3.3c2.9,0,8.6,0,8.6,0L39.6,114z"/>
	<g opacity="0.1">
		<path fill="#1D1D1B" d="M149.1,22.8c0,0,0,1.6,0.1,4.3c0,2.7,0.1,6.6,0.2,11.3c0,4.7,0.1,10.1,0.2,16c0,5.8,0,12.1,0.1,18.3
			c0,6.2,0,12.5-0.1,18.3c-0.1,5.8-0.1,11.3-0.2,16c-0.1,4.7-0.1,8.6-0.2,11.3c-0.1,2.7-0.1,4.3-0.1,4.3s0-1.6-0.1-4.3
			c0-2.7-0.1-6.6-0.2-11.3c0-4.7-0.1-10.1-0.2-16c0-5.8,0-12.1-0.1-18.3c0-6.2,0-12.5,0.1-18.3c0.1-5.8,0.1-11.3,0.2-16
			c0.1-4.7,0.1-8.6,0.2-11.3C149,24.3,149.1,22.8,149.1,22.8z"/>
	</g>
	<g opacity="0.1">
		<path fill="#1D1D1B" d="M100.9,22.8c0,0,0,1.6,0.1,4.3c0,2.7,0.1,6.6,0.2,11.3c0,4.7,0.1,10.1,0.2,16c0,5.8,0,12.1,0.1,18.3
			c0,6.2,0,12.5-0.1,18.3c-0.1,5.8-0.1,11.3-0.2,16c-0.1,4.7-0.1,8.6-0.2,11.3c-0.1,2.7-0.1,4.3-0.1,4.3s0-1.6-0.1-4.3
			c0-2.7-0.1-6.6-0.2-11.3c0-4.7-0.1-10.1-0.2-16c0-5.8,0-12.1-0.1-18.3c0-6.2,0-12.5,0.1-18.3c0.1-5.8,0.1-11.3,0.2-16
			c0.1-4.7,0.1-8.6,0.2-11.3C100.8,24.3,100.9,22.8,100.9,22.8z"/>
	</g>
	<g opacity="0.1">
		<path fill="#1D1D1B" d="M215.2,78.2c0,0,0,0.8,0.1,2.2c0,1.4,0.1,3.4,0.1,5.8c0,2.4,0.1,5.2,0.1,8.2l0,0.6l0,0.1v0
			c0,0.2,0,0.1,0,0.1l0,0c0,0.1-0.1,0.2-0.1,0.2l-0.1,0.1c-0.1,0.1-0.2,0.2-0.3,0.2c-0.3,0.2-0.7,0.4-1,0.6c-0.7,0.4-1.3,0.8-2,1.2
			c-1.3,0.8-2.6,1.8-3.8,2.8c-2.4,2.1-4.4,4.6-5.8,7.2c-0.7,1.3-1.3,2.6-1.8,3.9c-0.5,1.3-0.8,2.5-1.1,3.7c-0.5,2.3-0.8,4.3-0.9,5.7
			c-0.1,1.4-0.2,2.2-0.2,2.2s0-0.2,0-0.6c0-0.4,0-0.9,0-1.6c0-1.4,0.1-3.4,0.5-5.8c0.2-1.2,0.5-2.5,1-3.8c0.4-1.3,1-2.7,1.7-4
			c0.7-1.4,1.6-2.7,2.6-4c1-1.3,2.1-2.4,3.4-3.5c1.2-1.1,2.6-2,3.9-2.8c0.7-0.4,1.4-0.8,2.1-1.2c0.3-0.2,0.7-0.4,1-0.5
			c0.1,0,0.1-0.1,0.2-0.1l0,0c0,0,0,0.1,0,0.1c0,0,0,0,0,0c0,0,0-0.1,0,0.1v0l0-0.1l0-0.6c0.1-3,0.1-5.8,0.1-8.2
			c0.1-2.4,0.1-4.4,0.1-5.8C215.2,79,215.2,78.2,215.2,78.2z"/>
	</g>
	<g>
		<linearGradient id="SVGID_36_" gradientUnits="userSpaceOnUse" x1="261.3568" y1="114.3781" x2="271.7081" y2="97.6871">
			<stop  offset="0.181" style="stop-color:#333333"/>
			<stop  offset="0.3883" style="stop-color:#737373"/>
			<stop  offset="0.5957" style="stop-color:#ACACAC"/>
			<stop  offset="0.7734" style="stop-color:#D5D5D5"/>
			<stop  offset="0.9129" style="stop-color:#EEEEEE"/>
			<stop  offset="0.997" style="stop-color:#F7F7F7"/>
		</linearGradient>
		<ellipse fill="url(#SVGID_36_)" cx="268" cy="103.6" rx="3.4" ry="6.8"/>
		<linearGradient id="SVGID_37_" gradientUnits="userSpaceOnUse" x1="265.7325" y1="106.4432" x2="275.3807" y2="98.3475">
			<stop  offset="3.015020e-03" style="stop-color:#F7F7F7"/>
			<stop  offset="0.1055" style="stop-color:#F8F3DD"/>
			<stop  offset="1" style="stop-color:#FFD500"/>
		</linearGradient>
		<ellipse fill="url(#SVGID_37_)" cx="269.1" cy="103.6" rx="2.3" ry="5.9"/>
	</g>
</g>
</svg>
