<?xml version="1.0" encoding="utf-8"?>
<!-- Generator: Adobe Illustrator 18.0.0, SVG Export Plug-In . SVG Version: 6.00 Build 0)  -->
<!DOCTYPE svg PUBLIC "-//W3C//DTD SVG 1.1//EN" "http://www.w3.org/Graphics/SVG/1.1/DTD/svg11.dtd">
<svg version="1.1" id="Layer_1" xmlns="http://www.w3.org/2000/svg" xmlns:xlink="http://www.w3.org/1999/xlink" x="0px" y="0px"
	 viewBox="0 0 290 155" enable-background="new 0 0 290 155" xml:space="preserve">
<g>
	
		<radialGradient id="SVGID_1_" cx="858.821" cy="1307.4977" r="238.9059" gradientTransform="matrix(0.2081 0 0 7.456945e-03 -115.7143 131.7848)" gradientUnits="userSpaceOnUse">
		<stop  offset="0" style="stop-color:#000000"/>
		<stop  offset="1" style="stop-color:#000000;stop-opacity:0"/>
	</radialGradient>
	<ellipse opacity="0.8" fill="url(#SVGID_1_)" cx="63" cy="141.5" rx="49.9" ry="1.9"/>
	
		<radialGradient id="SVGID_2_" cx="1643.309" cy="1307.4977" r="238.9056" gradientTransform="matrix(0.2081 0 0 7.456945e-03 -115.7143 131.7848)" gradientUnits="userSpaceOnUse">
		<stop  offset="0" style="stop-color:#000000"/>
		<stop  offset="1" style="stop-color:#000000;stop-opacity:0"/>
	</radialGradient>
	<ellipse opacity="0.8" fill="url(#SVGID_2_)" cx="226.3" cy="141.5" rx="49.9" ry="1.9"/>
	
		<radialGradient id="SVGID_3_" cx="630.0107" cy="665.0037" r="238.8907" gradientTransform="matrix(0.5899 0 0 1.392615e-02 -226.3174 132.2737)" gradientUnits="userSpaceOnUse">
		<stop  offset="0" style="stop-color:#000000"/>
		<stop  offset="1" style="stop-color:#000000;stop-opacity:0"/>
	</radialGradient>
	<ellipse opacity="0.8" fill="url(#SVGID_3_)" cx="145.3" cy="141.5" rx="141.5" ry="3.5"/>
	<g>
		<linearGradient id="SVGID_4_" gradientUnits="userSpaceOnUse" x1="133.113" y1="7.9732" x2="133.113" y2="24.3142">
			<stop  offset="3.451150e-03" style="stop-color:#FFE2A3"/>
			<stop  offset="1.453597e-02" style="stop-color:#FFE19E"/>
			<stop  offset="0.1215" style="stop-color:#FFDB74"/>
			<stop  offset="0.2344" style="stop-color:#FFD550"/>
			<stop  offset="0.3524" style="stop-color:#FFD033"/>
			<stop  offset="0.4772" style="stop-color:#FFCD1D"/>
			<stop  offset="0.6119" style="stop-color:#FFCA0C"/>
			<stop  offset="0.7637" style="stop-color:#FFC803"/>
			<stop  offset="0.9684" style="stop-color:#FFC800"/>
		</linearGradient>
		<polygon fill="url(#SVGID_4_)" points="124.8,23.5 128.2,9.6 136.8,9.6 141.5,23.5 		"/>
		<linearGradient id="SVGID_5_" gradientUnits="userSpaceOnUse" x1="133.4631" y1="20.3112" x2="133.4631" y2="30.8249">
			<stop  offset="0" style="stop-color:#5E5E5E"/>
			<stop  offset="0.2063" style="stop-color:#444444"/>
			<stop  offset="0.5138" style="stop-color:#232323"/>
			<stop  offset="0.7702" style="stop-color:#0F0F0F"/>
			<stop  offset="0.9423" style="stop-color:#080808"/>
		</linearGradient>
		<path fill="url(#SVGID_5_)" d="M145.5,28.3c0,1.1-0.9,1.9-1.9,1.9h-20.2c-1.1,0-1.9-0.9-1.9-1.9v-5c0-1.1,0.9-1.9,1.9-1.9h20.2
			c1.1,0,1.9,0.9,1.9,1.9V28.3z"/>
		<linearGradient id="SVGID_6_" gradientUnits="userSpaceOnUse" x1="172.2579" y1="69.7275" x2="209.4345" y2="38.5326">
			<stop  offset="5.650790e-02" style="stop-color:#FFFFFF"/>
			<stop  offset="7.970560e-02" style="stop-color:#FAFDFE"/>
			<stop  offset="0.2282" style="stop-color:#DCF0FA"/>
			<stop  offset="0.3556" style="stop-color:#CAE8F8"/>
			<stop  offset="0.4463" style="stop-color:#C3E5F7"/>
			<stop  offset="0.4961" style="stop-color:#D9EEFA"/>
			<stop  offset="0.555" style="stop-color:#EAF6FC"/>
			<stop  offset="0.6273" style="stop-color:#F6FBFE"/>
			<stop  offset="0.7265" style="stop-color:#FDFEFF"/>
			<stop  offset="0.9779" style="stop-color:#FFFFFF"/>
		</linearGradient>
		<path fill="url(#SVGID_6_)" d="M175.5,25.3c0,0,22.9,22.6,40,49.9h-38.7L175.5,25.3z"/>
		<linearGradient id="SVGID_7_" gradientUnits="userSpaceOnUse" x1="141.4651" y1="121.8564" x2="141.4651" y2="24.0732">
			<stop  offset="0" style="stop-color:#FFAF00"/>
			<stop  offset="0.1977" style="stop-color:#FFB800"/>
			<stop  offset="0.5798" style="stop-color:#FFC400"/>
			<stop  offset="0.9684" style="stop-color:#FFC800"/>
		</linearGradient>
		<path fill="url(#SVGID_7_)" d="M9.9,90.7c0-7.2,1.1-10.6,7.3-13c7.6-2.9,46-11.6,46-11.6s27.3-37.9,29.4-39.8
			c2.6-2.2,3-2.2,6.9-2.2c0,0,71.9,0,73.6,0c2.2,0,2.6,0.2,4,3.2c1.3,2.7,23.1,42,23.1,42s53,6,55.9,5.9c2.6,0,2.9,1.6,3.6,3.8
			c0.7,2.2,13.2,42.8,13.2,42.8h-18.9l-3.1-11.7h-48.8l-2.9,11.7H89.5l-3.2-10.6H37.9l-3.5,10.6H9.9C9.9,121.9,9.9,97.9,9.9,90.7z"
			/>
		<g>
			<defs>
				<path id="SVGID_8_" d="M9.9,90.7c0-7.2,1.1-10.6,7.3-13c7.6-2.9,46-11.6,46-11.6s27.3-37.9,29.4-39.8c2.6-2.2,3-2.2,6.9-2.2
					c0,0,71.9,0,73.6,0c2.2,0,2.6,0.2,4,3.2c1.3,2.7,23.1,42,23.1,42s52.6,6,55.9,5.9c2.6,0,2.9,1.6,3.6,3.8
					c0.7,2.2,13.2,42.8,13.2,42.8h-18.9l-3.1-11.7h-48.8l-2.9,11.7H89.5l-3.2-10.6H37.9l-3.5,10.6H9.9C9.9,121.9,9.9,97.9,9.9,90.7z
					"/>
			</defs>
			<clipPath id="SVGID_9_">
				<use xlink:href="#SVGID_8_"  overflow="visible"/>
			</clipPath>
			<g clip-path="url(#SVGID_9_)">
				<g>
					<rect x="8.4" y="82.4" width="5.4" height="5.4"/>
					<rect x="13.8" y="87.8" width="5.4" height="5.4"/>
					<rect x="8.4" y="87.8" fill="#FFFFFF" width="5.4" height="5.4"/>
					<rect x="13.8" y="82.4" fill="#FFFFFF" width="5.4" height="5.4"/>
				</g>
				<g>
					<rect x="19.1" y="82.4" width="5.4" height="5.4"/>
					<rect x="24.5" y="87.8" width="5.4" height="5.4"/>
					<rect x="19.1" y="87.8" fill="#FFFFFF" width="5.4" height="5.4"/>
					<rect x="24.5" y="82.4" fill="#FFFFFF" width="5.4" height="5.4"/>
				</g>
				<g>
					<rect x="29.9" y="82.4" width="5.4" height="5.4"/>
					<rect x="35.3" y="87.8" width="5.4" height="5.4"/>
					<rect x="29.9" y="87.8" fill="#FFFFFF" width="5.4" height="5.4"/>
					<rect x="35.3" y="82.4" fill="#FFFFFF" width="5.4" height="5.4"/>
				</g>
				<g>
					<rect x="40.7" y="82.4" width="5.4" height="5.4"/>
					<rect x="46.1" y="87.8" width="5.4" height="5.4"/>
					<rect x="40.7" y="87.8" fill="#FFFFFF" width="5.4" height="5.4"/>
					<rect x="46.1" y="82.4" fill="#FFFFFF" width="5.4" height="5.4"/>
				</g>
				<g>
					<rect x="51.5" y="82.4" width="5.4" height="5.4"/>
					<rect x="56.8" y="87.8" width="5.4" height="5.4"/>
					<rect x="51.5" y="87.8" fill="#FFFFFF" width="5.4" height="5.4"/>
					<rect x="56.8" y="82.4" fill="#FFFFFF" width="5.4" height="5.4"/>
				</g>
				<g>
					<rect x="62.2" y="82.4" width="5.4" height="5.4"/>
					<rect x="67.6" y="87.8" width="5.4" height="5.4"/>
					<rect x="62.2" y="87.8" fill="#FFFFFF" width="5.4" height="5.4"/>
					<rect x="67.6" y="82.4" fill="#FFFFFF" width="5.4" height="5.4"/>
				</g>
				<g>
					<rect x="73" y="82.4" width="5.4" height="5.4"/>
					<rect x="78.4" y="87.8" width="5.4" height="5.4"/>
					<rect x="73" y="87.8" fill="#FFFFFF" width="5.4" height="5.4"/>
					<rect x="78.4" y="82.4" fill="#FFFFFF" width="5.4" height="5.4"/>
				</g>
				<g>
					<rect x="83.8" y="82.4" width="5.4" height="5.4"/>
					<rect x="89.2" y="87.8" width="5.4" height="5.4"/>
					<rect x="83.8" y="87.8" fill="#FFFFFF" width="5.4" height="5.4"/>
					<rect x="89.2" y="82.4" fill="#FFFFFF" width="5.4" height="5.4"/>
				</g>
				<g>
					<rect x="94.5" y="82.4" width="5.4" height="5.4"/>
					<rect x="99.9" y="87.8" width="5.4" height="5.4"/>
					<rect x="94.5" y="87.8" fill="#FFFFFF" width="5.4" height="5.4"/>
					<rect x="99.9" y="82.4" fill="#FFFFFF" width="5.4" height="5.4"/>
				</g>
				<g>
					<rect x="105.3" y="82.4" width="5.4" height="5.4"/>
					<rect x="110.7" y="87.8" width="5.4" height="5.4"/>
					<rect x="105.3" y="87.8" fill="#FFFFFF" width="5.4" height="5.4"/>
					<rect x="110.7" y="82.4" fill="#FFFFFF" width="5.4" height="5.4"/>
				</g>
				<g>
					<rect x="116.1" y="82.4" width="5.4" height="5.4"/>
					<rect x="121.5" y="87.8" width="5.4" height="5.4"/>
					<rect x="116.1" y="87.8" fill="#FFFFFF" width="5.4" height="5.4"/>
					<rect x="121.5" y="82.4" fill="#FFFFFF" width="5.4" height="5.4"/>
				</g>
				<g>
					<rect x="126.9" y="82.4" width="5.4" height="5.4"/>
					<rect x="132.2" y="87.8" width="5.4" height="5.4"/>
					<rect x="126.9" y="87.8" fill="#FFFFFF" width="5.4" height="5.4"/>
					<rect x="132.2" y="82.4" fill="#FFFFFF" width="5.4" height="5.4"/>
				</g>
				<g>
					<rect x="137.6" y="82.4" width="5.4" height="5.4"/>
					<rect x="143" y="87.8" width="5.4" height="5.4"/>
					<rect x="137.6" y="87.8" fill="#FFFFFF" width="5.4" height="5.4"/>
					<rect x="143" y="82.4" fill="#FFFFFF" width="5.4" height="5.4"/>
				</g>
				<g>
					<rect x="148.4" y="82.4" width="5.4" height="5.4"/>
					<rect x="153.8" y="87.8" width="5.4" height="5.4"/>
					<rect x="148.4" y="87.8" fill="#FFFFFF" width="5.4" height="5.4"/>
					<rect x="153.8" y="82.4" fill="#FFFFFF" width="5.4" height="5.4"/>
				</g>
				<g>
					<rect x="159.2" y="82.4" width="5.4" height="5.4"/>
					<rect x="164.6" y="87.8" width="5.4" height="5.4"/>
					<rect x="159.2" y="87.8" fill="#FFFFFF" width="5.4" height="5.4"/>
					<rect x="164.6" y="82.4" fill="#FFFFFF" width="5.4" height="5.4"/>
				</g>
				<g>
					<rect x="169.8" y="82.4" width="5.4" height="5.4"/>
					<rect x="175.2" y="87.8" width="5.4" height="5.4"/>
					<rect x="169.8" y="87.8" fill="#FFFFFF" width="5.4" height="5.4"/>
					<rect x="175.2" y="82.4" fill="#FFFFFF" width="5.4" height="5.4"/>
				</g>
				<g>
					<rect x="180.5" y="82.4" width="5.4" height="5.4"/>
					<rect x="185.8" y="87.8" width="5.4" height="5.4"/>
					<rect x="180.5" y="87.8" fill="#FFFFFF" width="5.4" height="5.4"/>
					<rect x="185.8" y="82.4" fill="#FFFFFF" width="5.4" height="5.4"/>
				</g>
				<g>
					<rect x="191.1" y="82.4" width="5.4" height="5.4"/>
					<rect x="196.5" y="87.8" width="5.4" height="5.4"/>
					<rect x="191.1" y="87.8" fill="#FFFFFF" width="5.4" height="5.4"/>
					<rect x="196.5" y="82.4" fill="#FFFFFF" width="5.4" height="5.4"/>
				</g>
				<g>
					<rect x="201.8" y="82.4" width="5.4" height="5.4"/>
					<rect x="207.1" y="87.8" width="5.4" height="5.4"/>
					<rect x="201.8" y="87.8" fill="#FFFFFF" width="5.4" height="5.4"/>
					<rect x="207.1" y="82.4" fill="#FFFFFF" width="5.4" height="5.4"/>
				</g>
				<g>
					<rect x="212.4" y="82.4" width="5.4" height="5.4"/>
					<rect x="217.8" y="87.8" width="5.4" height="5.4"/>
					<rect x="212.4" y="87.8" fill="#FFFFFF" width="5.4" height="5.4"/>
					<rect x="217.8" y="82.4" fill="#FFFFFF" width="5.4" height="5.4"/>
				</g>
				<g>
					<rect x="223" y="82.4" width="5.4" height="5.4"/>
					<rect x="228.4" y="87.8" width="5.4" height="5.4"/>
					<rect x="223" y="87.8" fill="#FFFFFF" width="5.4" height="5.4"/>
					<rect x="228.4" y="82.4" fill="#FFFFFF" width="5.4" height="5.4"/>
				</g>
				<g>
					<rect x="233.7" y="82.4" width="5.4" height="5.4"/>
					<rect x="239.1" y="87.8" width="5.4" height="5.4"/>
					<rect x="233.7" y="87.8" fill="#FFFFFF" width="5.4" height="5.4"/>
					<rect x="239.1" y="82.4" fill="#FFFFFF" width="5.4" height="5.4"/>
				</g>
				<g>
					<rect x="244.3" y="82.4" width="5.4" height="5.4"/>
					<rect x="249.7" y="87.8" width="5.4" height="5.4"/>
					<rect x="244.3" y="87.8" fill="#FFFFFF" width="5.4" height="5.4"/>
					<rect x="249.7" y="82.4" fill="#FFFFFF" width="5.4" height="5.4"/>
				</g>
				<g>
					<rect x="255" y="82.4" width="5.4" height="5.4"/>
					<rect x="260.4" y="87.8" width="5.4" height="5.4"/>
					<rect x="255" y="87.8" fill="#FFFFFF" width="5.4" height="5.4"/>
					<rect x="260.4" y="82.4" fill="#FFFFFF" width="5.4" height="5.4"/>
				</g>
			</g>
		</g>
		<linearGradient id="SVGID_10_" gradientUnits="userSpaceOnUse" x1="139.515" y1="115.2672" x2="139.515" y2="78.3801">
			<stop  offset="0" style="stop-color:#F7F7F7"/>
			<stop  offset="0.8806" style="stop-color:#F7F7F7;stop-opacity:0"/>
		</linearGradient>
		<path opacity="0.5" fill="url(#SVGID_10_)" d="M259.8,79.1c-0.7-2.2-1-3.9-3.6-3.8c-3.3,0-55.9-5.9-55.9-5.9s-21.8-39.3-23.1-42
			c-1.4-3.1-1.8-3.2-4-3.2c-1.7,0-73.6,0-73.6,0c-4,0-4.4,0-6.9,2.2c-2.1,1.9-29.4,39.8-29.4,39.8s-38.4,8.7-46,11.6
			c-6.1,2.3-7.3,5.8-7.3,13c0,3.7,0,11.9,0,19h259.2C269.8,111.8,260.4,80.7,259.8,79.1z"/>
		<linearGradient id="SVGID_11_" gradientUnits="userSpaceOnUse" x1="137.7077" y1="71.104" x2="178.6947" y2="36.7119">
			<stop  offset="5.650790e-02" style="stop-color:#FFFFFF"/>
			<stop  offset="8.364039e-02" style="stop-color:#F7FCFF"/>
			<stop  offset="0.1597" style="stop-color:#E5F7FF"/>
			<stop  offset="0.2139" style="stop-color:#DEF5FF"/>
			<stop  offset="0.2297" style="stop-color:#E3F7FF"/>
			<stop  offset="0.2928" style="stop-color:#F3FBFF"/>
			<stop  offset="0.3651" style="stop-color:#FCFEFF"/>
			<stop  offset="0.466" style="stop-color:#FFFFFF"/>
			<stop  offset="0.6863" style="stop-color:#CAE1F9"/>
			<stop  offset="0.7986" style="stop-color:#E4EFFC"/>
			<stop  offset="0.9363" style="stop-color:#FFFFFF"/>
		</linearGradient>
		<path fill="url(#SVGID_11_)" d="M138.8,27.3v45h48.6c0,0-13.1-40-14.8-42.7c-1.5-2.4-1.6-2.4-5.6-2.4
			C164.1,27.3,166.1,27.3,138.8,27.3z"/>
		<linearGradient id="SVGID_12_" gradientUnits="userSpaceOnUse" x1="82.9482" y1="76.1745" x2="132.8475" y2="34.304">
			<stop  offset="0.3709" style="stop-color:#FFFFFF"/>
			<stop  offset="0.5601" style="stop-color:#CAE1F9"/>
			<stop  offset="0.6847" style="stop-color:#EBF4FD"/>
			<stop  offset="0.7757" style="stop-color:#FFFFFF"/>
			<stop  offset="0.8043" style="stop-color:#FDFEFF"/>
			<stop  offset="0.8146" style="stop-color:#F6FAFD"/>
			<stop  offset="0.8219" style="stop-color:#EBF3FB"/>
			<stop  offset="0.8226" style="stop-color:#E9F2FB"/>
			<stop  offset="0.8826" style="stop-color:#F7FBFE"/>
			<stop  offset="0.9373" style="stop-color:#FFFFFF"/>
		</linearGradient>
		<path fill="url(#SVGID_12_)" d="M127.2,27.3v45H80c0,0,16.7-37.7,19-41.9c1.7-3.1,1.7-3.1,7.2-3.1
			C108.7,27.3,127.2,27.3,127.2,27.3z"/>
		<g>
			<linearGradient id="SVGID_13_" gradientUnits="userSpaceOnUse" x1="195.0546" y1="84.2177" x2="176.8719" y2="59.1256">
				<stop  offset="0" style="stop-color:#F7F7F7"/>
				<stop  offset="0.3212" style="stop-color:#B0B0B0"/>
				<stop  offset="0.6423" style="stop-color:#6F6F6F"/>
				<stop  offset="0.875" style="stop-color:#474747"/>
				<stop  offset="0.9953" style="stop-color:#383838"/>
			</linearGradient>
			<path fill="url(#SVGID_13_)" d="M179,62.6l6.3,11.7c0,0,2.5,0,3-3.1l-9.3-9.7V62.6z"/>
			<linearGradient id="SVGID_14_" gradientUnits="userSpaceOnUse" x1="171.7228" y1="69.1859" x2="182.641" y2="55.8564">
				<stop  offset="0.4291" style="stop-color:#8C8C8C"/>
				<stop  offset="0.5658" style="stop-color:#8F8F8F"/>
				<stop  offset="0.672" style="stop-color:#999999"/>
				<stop  offset="0.768" style="stop-color:#AAAAAA"/>
				<stop  offset="0.858" style="stop-color:#C1C1C1"/>
				<stop  offset="0.943" style="stop-color:#DFDFDF"/>
				<stop  offset="1" style="stop-color:#F7F7F7"/>
			</linearGradient>
			<path fill="url(#SVGID_14_)" d="M176.4,69.1h0.8c1.5,0,2.7-0.8,2.7-1.8V56.9c0-1-1.2-1.8-2.7-1.8h-0.8V69.1z"/>
		</g>
		<g>
			<linearGradient id="SVGID_15_" gradientUnits="userSpaceOnUse" x1="88.9602" y1="81.9658" x2="88.9602" y2="76.4517">
				<stop  offset="0.2973" style="stop-color:#333333"/>
				<stop  offset="0.4749" style="stop-color:#787878"/>
				<stop  offset="0.6358" style="stop-color:#AFAFAF"/>
				<stop  offset="0.7736" style="stop-color:#D6D6D6"/>
				<stop  offset="0.8828" style="stop-color:#EEEEEE"/>
				<stop  offset="0.9499" style="stop-color:#F7F7F7"/>
			</linearGradient>
			<path fill="url(#SVGID_15_)" d="M95.5,78.5V78c0-1-0.8-1.7-1.7-1.7h-9.7c-1,0-1.7,0.8-1.7,1.7v0.5H95.5z"/>
			<linearGradient id="SVGID_16_" gradientUnits="userSpaceOnUse" x1="88.9602" y1="81.7393" x2="88.9602" y2="78.4707">
				<stop  offset="0" style="stop-color:#000000;stop-opacity:0"/>
				<stop  offset="0.8581" style="stop-color:#000000;stop-opacity:0.8581"/>
				<stop  offset="1" style="stop-color:#000000"/>
			</linearGradient>
			<rect x="82.4" y="78.5" opacity="0.2" fill="url(#SVGID_16_)" width="13.1" height="3.3"/>
		</g>
		<g>
			<linearGradient id="SVGID_17_" gradientUnits="userSpaceOnUse" x1="146.8601" y1="81.9658" x2="146.8601" y2="76.4517">
				<stop  offset="0.2973" style="stop-color:#333333"/>
				<stop  offset="0.4749" style="stop-color:#787878"/>
				<stop  offset="0.6358" style="stop-color:#AFAFAF"/>
				<stop  offset="0.7736" style="stop-color:#D6D6D6"/>
				<stop  offset="0.8828" style="stop-color:#EEEEEE"/>
				<stop  offset="0.9499" style="stop-color:#F7F7F7"/>
			</linearGradient>
			<path fill="url(#SVGID_17_)" d="M153.4,78.5V78c0-1-0.8-1.7-1.7-1.7H142c-1,0-1.7,0.8-1.7,1.7v0.5H153.4z"/>
			<linearGradient id="SVGID_18_" gradientUnits="userSpaceOnUse" x1="146.8601" y1="81.7393" x2="146.8601" y2="78.4707">
				<stop  offset="0" style="stop-color:#000000;stop-opacity:0"/>
				<stop  offset="0.8581" style="stop-color:#000000;stop-opacity:0.8581"/>
				<stop  offset="1" style="stop-color:#000000"/>
			</linearGradient>
			<rect x="140.3" y="78.5" opacity="0.2" fill="url(#SVGID_18_)" width="13.1" height="3.3"/>
		</g>
		<linearGradient id="SVGID_19_" gradientUnits="userSpaceOnUse" x1="141.4651" y1="121.8564" x2="141.4651" y2="109.6631">
			<stop  offset="0" style="stop-color:#7A6000"/>
			<stop  offset="0.1895" style="stop-color:#8E6900;stop-opacity:0.8102"/>
			<stop  offset="0.4118" style="stop-color:#9E7000;stop-opacity:0.5875"/>
			<stop  offset="0.6624" style="stop-color:#A87500;stop-opacity:0.3364"/>
			<stop  offset="0.9983" style="stop-color:#AB7600;stop-opacity:0"/>
		</linearGradient>
		<path fill="url(#SVGID_19_)" d="M9.9,109.7c0,6.6,0,12.2,0,12.2h24.5l3.5-10.6h48.4l3.2,10.6h109.8l2.9-11.7H251l3.1,11.7H273
			c0,0-1.7-5.4-3.9-12.2H9.9z"/>
		<g opacity="0.16">
			<path fill="#1D1D1B" d="M72.3,74.8c0,0,0,0.9,0.1,2.3c0,1.5,0.1,3.6,0.2,6.2c0,1.3,0.1,2.7,0.1,4.1c0,0.2,0-0.1,0-0.1
				c0,0,0.1,0.1,0.2,0.1c0.1,0.1,0.3,0.1,0.5,0.2c0.3,0.1,0.7,0.3,1,0.4c0.7,0.3,1.4,0.6,2.2,1c2.9,1.4,5.9,3.2,8.5,5.6
				c2.6,2.3,4.7,5.1,6.2,8c1.5,2.9,2.4,5.8,2.9,8.3c0.5,2.5,0.6,4.7,0.6,6.2c0,0.7,0,1.3,0,1.7c0,0.4,0,0.6,0,0.6s0-0.9-0.2-2.3
				c-0.1-1.5-0.4-3.6-1-6.1c-0.6-2.5-1.6-5.3-3.1-8c-1.5-2.8-3.6-5.4-6.1-7.7c-2.5-2.3-5.3-4.1-8.2-5.5c-0.7-0.4-1.4-0.7-2.1-1
				c-0.4-0.2-0.7-0.3-1-0.5c-0.2-0.1-0.3-0.2-0.5-0.3c-0.1-0.1-0.2-0.1-0.3-0.2c0,0-0.2-0.3-0.2-0.3l0,0c0,0,0-0.2,0-0.1l0,0l0-0.1
				c0-1.5,0.1-2.9,0.1-4.1c0-2.6,0.1-4.7,0.2-6.2C72.3,75.6,72.3,74.8,72.3,74.8z"/>
		</g>
		<g opacity="0.16">
			<path fill="#1D1D1B" d="M133.5,76.7c0,0,0,0.7,0.1,1.9c0,1.2,0.1,2.9,0.2,4.9c0,2,0.1,4.4,0.2,7c0,2.6,0,5.3,0.1,8
				c0,2.7,0,5.4-0.1,8c0,2.6-0.1,4.9-0.2,7c0,2-0.1,3.7-0.2,4.9c-0.1,1.2-0.1,1.9-0.1,1.9s0-0.7-0.1-1.9c0-1.2-0.1-2.9-0.2-4.9
				c0-2-0.1-4.4-0.2-7c0-2.6,0-5.3-0.1-8c0-2.7,0-5.4,0.1-8c0-2.6,0.1-4.9,0.2-7c0-2,0.1-3.7,0.2-4.9
				C133.4,77.4,133.5,76.7,133.5,76.7z"/>
		</g>
		<g opacity="0.16">
			<path fill="#1D1D1B" d="M190.3,76.7c0,0,0,0.7,0.1,1.9c0,1.2,0.1,2.9,0.2,4.9c0,2,0.1,4.4,0.2,7c0,2.6,0,5.3,0.1,8
				c0,2.7,0,5.4-0.1,8c0,2.6-0.1,4.9-0.2,7c0,2-0.1,3.7-0.2,4.9c-0.1,1.2-0.1,1.9-0.1,1.9s0-0.7-0.1-1.9c0-1.2-0.1-2.9-0.2-4.9
				c0-2-0.1-4.4-0.2-7c0-2.6,0-5.3-0.1-8c0-2.7,0-5.4,0.1-8c0-2.6,0.1-4.9,0.2-7c0-2,0.1-3.7,0.2-4.9
				C190.3,77.4,190.3,76.7,190.3,76.7z"/>
		</g>
		<linearGradient id="SVGID_20_" gradientUnits="userSpaceOnUse" x1="260.0102" y1="79.4318" x2="260.0102" y2="95.9133">
			<stop  offset="0" style="stop-color:#5E5E5E"/>
			<stop  offset="0.2063" style="stop-color:#444444"/>
			<stop  offset="0.5138" style="stop-color:#232323"/>
			<stop  offset="0.7702" style="stop-color:#0F0F0F"/>
			<stop  offset="0.9423" style="stop-color:#080808"/>
		</linearGradient>
		<path fill="url(#SVGID_20_)" d="M265.7,92.3c0,0.9,1.1,2.8-1.3,2.8h-9c-0.7,0-1.3-0.8-1.3-1.7V82.8c0-0.9,0.6-1.7,1.3-1.7h6
			c0.9,0,1.4,0.6,1.7,1.7L265.7,92.3z"/>
		<linearGradient id="SVGID_21_" gradientUnits="userSpaceOnUse" x1="261.1142" y1="81.8783" x2="261.1142" y2="92.6796">
			<stop  offset="0.1804" style="stop-color:#F7F7F7"/>
			<stop  offset="0.2647" style="stop-color:#F8F3DD"/>
			<stop  offset="1" style="stop-color:#FFD500"/>
		</linearGradient>
		<path fill="url(#SVGID_21_)" d="M265.3,90.9c0,0.7-0.4,1.2-0.9,1.2h-6.6c-0.5,0-0.9-0.5-0.9-1.2v-6.8c0-0.7,0.4-1.2,0.9-1.2h4.6
			c0.6,0,0.9,0.4,1.1,1.2L265.3,90.9z"/>
		<linearGradient id="SVGID_22_" gradientUnits="userSpaceOnUse" x1="260.1436" y1="98.1216" x2="260.1436" y2="118.4113">
			<stop  offset="0.1268" style="stop-color:#F7F7F7"/>
			<stop  offset="0.196" style="stop-color:#DFDFDF"/>
			<stop  offset="0.387" style="stop-color:#A3A3A3"/>
			<stop  offset="0.5621" style="stop-color:#727272"/>
			<stop  offset="0.7154" style="stop-color:#505050"/>
			<stop  offset="0.8412" style="stop-color:#3B3B3B"/>
			<stop  offset="0.9236" style="stop-color:#333333"/>
		</linearGradient>
		<polygon fill="url(#SVGID_22_)" points="245.6,104.2 271.4,104.2 274.7,112.8 250.4,112.8 		"/>
		<linearGradient id="SVGID_23_" gradientUnits="userSpaceOnUse" x1="29.6858" y1="98.1216" x2="29.6858" y2="118.4113">
			<stop  offset="0.1268" style="stop-color:#F7F7F7"/>
			<stop  offset="0.196" style="stop-color:#DFDFDF"/>
			<stop  offset="0.387" style="stop-color:#A3A3A3"/>
			<stop  offset="0.5621" style="stop-color:#727272"/>
			<stop  offset="0.7154" style="stop-color:#505050"/>
			<stop  offset="0.8412" style="stop-color:#3B3B3B"/>
			<stop  offset="0.9236" style="stop-color:#333333"/>
		</linearGradient>
		<polygon fill="url(#SVGID_23_)" points="16.3,104.2 43.2,104.2 38.8,112.8 16.2,112.8 		"/>
		<g>
			<linearGradient id="SVGID_24_" gradientUnits="userSpaceOnUse" x1="16.2639" y1="96.6077" x2="16.2639" y2="110.8057">
				<stop  offset="0" style="stop-color:#5E5E5E"/>
				<stop  offset="0.2063" style="stop-color:#444444"/>
				<stop  offset="0.5138" style="stop-color:#232323"/>
				<stop  offset="0.7702" style="stop-color:#0F0F0F"/>
				<stop  offset="0.9423" style="stop-color:#080808"/>
			</linearGradient>
			<path fill="url(#SVGID_24_)" d="M9.9,110.1V98c0,0,12.7-1.1,12.7,12H9.9z"/>
			<linearGradient id="SVGID_25_" gradientUnits="userSpaceOnUse" x1="14.9948" y1="99.2989" x2="14.9948" y2="110.6587">
				<stop  offset="0" style="stop-color:#E81508"/>
				<stop  offset="0.4625" style="stop-color:#E61508"/>
				<stop  offset="0.6291" style="stop-color:#DF1308"/>
				<stop  offset="0.7478" style="stop-color:#D41008"/>
				<stop  offset="0.8438" style="stop-color:#C30C08"/>
				<stop  offset="0.9251" style="stop-color:#AD0709"/>
				<stop  offset="0.9967" style="stop-color:#920009"/>
				<stop  offset="1" style="stop-color:#910009"/>
			</linearGradient>
			<path fill="url(#SVGID_25_)" d="M9.9,110.1v-9.6c0,0,10.2-0.9,10.2,9.6H9.9z"/>
			<linearGradient id="SVGID_26_" gradientUnits="userSpaceOnUse" x1="14.5195" y1="99.8637" x2="14.5195" y2="105.5432">
				<stop  offset="3.015020e-03" style="stop-color:#F7DE00"/>
				<stop  offset="0.2262" style="stop-color:#F6DA01"/>
				<stop  offset="0.464" style="stop-color:#F3CD02"/>
				<stop  offset="0.7086" style="stop-color:#EEB805"/>
				<stop  offset="0.9565" style="stop-color:#E79A08"/>
				<stop  offset="1" style="stop-color:#E69409"/>
			</linearGradient>
			<path fill="url(#SVGID_26_)" d="M19.1,105.2c-2.5-5.4-9.2-4.8-9.2-4.8v4.8H19.1z"/>
		</g>
		<g>
			<linearGradient id="SVGID_27_" gradientUnits="userSpaceOnUse" x1="20.8718" y1="106.9324" x2="20.8718" y2="121.8096">
				<stop  offset="0" style="stop-color:#5E5E5E"/>
				<stop  offset="0.2063" style="stop-color:#444444"/>
				<stop  offset="0.5138" style="stop-color:#232323"/>
				<stop  offset="0.7702" style="stop-color:#0F0F0F"/>
				<stop  offset="0.9423" style="stop-color:#080808"/>
			</linearGradient>
			<path fill="url(#SVGID_27_)" d="M37.1,109.7H9.9c-2.9,0-5.3,2.7-5.3,6.1c0,3.4,2.4,6.1,5.3,6.1h24.9L37.1,109.7z"/>
			
				<linearGradient id="SVGID_28_" gradientUnits="userSpaceOnUse" x1="14.0899" y1="106.9324" x2="14.0899" y2="121.8096" gradientTransform="matrix(-1 0 0 1 278.8584 0)">
				<stop  offset="0" style="stop-color:#5E5E5E"/>
				<stop  offset="0.2063" style="stop-color:#444444"/>
				<stop  offset="0.5138" style="stop-color:#232323"/>
				<stop  offset="0.7702" style="stop-color:#0F0F0F"/>
				<stop  offset="0.9423" style="stop-color:#080808"/>
			</linearGradient>
			<path fill="url(#SVGID_28_)" d="M251,109.7h22.3c2.9,0,5.3,2.7,5.3,6.1c0,3.4-2.4,6.1-5.3,6.1h-20.1L251,109.7z"/>
			<g>
				<g>
					
						<linearGradient id="SVGID_29_" gradientUnits="userSpaceOnUse" x1="226.2405" y1="132.9501" x2="226.2405" y2="90.4339" gradientTransform="matrix(1 -1.800000e-03 1.800000e-03 1 -0.2021 0.14)">
						<stop  offset="1.725580e-03" style="stop-color:#AB7600"/>
						<stop  offset="0.4961" style="stop-color:#916A00"/>
						<stop  offset="1" style="stop-color:#7A6000"/>
					</linearGradient>
					<path fill="url(#SVGID_29_)" d="M226.2,94.5c-15,0-27.1,11.6-27.1,25.8l54.2-0.1C253.3,106,241.2,94.5,226.2,94.5z"/>
					
						<linearGradient id="SVGID_30_" gradientUnits="userSpaceOnUse" x1="226.2406" y1="89.2503" x2="226.2406" y2="128.9147" gradientTransform="matrix(1 -1.800000e-03 1.800000e-03 1 -0.2021 0.14)">
						<stop  offset="3.451150e-03" style="stop-color:#FFE2A3"/>
						<stop  offset="1.453597e-02" style="stop-color:#FFE19E"/>
						<stop  offset="0.1215" style="stop-color:#FFDB74"/>
						<stop  offset="0.2344" style="stop-color:#FFD550"/>
						<stop  offset="0.3524" style="stop-color:#FFD033"/>
						<stop  offset="0.4772" style="stop-color:#FFCD1D"/>
						<stop  offset="0.6119" style="stop-color:#FFCA0C"/>
						<stop  offset="0.7637" style="stop-color:#FFC803"/>
						<stop  offset="0.9684" style="stop-color:#FFC800"/>
					</linearGradient>
					<path fill="url(#SVGID_30_)" d="M199.7,121.9c1.3-14.1,12.7-25.1,26.5-25.1c13.8,0,25.2,11,26.6,25.1h1.4c0,0,0,0,0,0
						c0-15.4-12.6-31-28-30.9c-15.4,0-27.9,15.5-27.9,30.9c0,0,0,0,0,0H199.7z"/>
				</g>
				<g>
					
						<radialGradient id="SVGID_31_" cx="228.8908" cy="114.2347" r="24.2193" gradientTransform="matrix(0.9998 2.190000e-02 -2.190000e-02 0.9998 -8.650453e-02 1.8511)" gradientUnits="userSpaceOnUse">
						<stop  offset="0" style="stop-color:#000000"/>
						<stop  offset="0.4223" style="stop-color:#020202"/>
						<stop  offset="0.637" style="stop-color:#0A0A0A"/>
						<stop  offset="0.8049" style="stop-color:#171717"/>
						<stop  offset="0.9477" style="stop-color:#2A2A2A"/>
						<stop  offset="1" style="stop-color:#333333"/>
					</radialGradient>
					<circle fill="url(#SVGID_31_)" cx="226.3" cy="121.1" r="20.5"/>
					
						<radialGradient id="SVGID_32_" cx="228.8909" cy="114.2347" r="14.1753" gradientTransform="matrix(0.9998 2.190000e-02 -2.190000e-02 0.9998 -8.650453e-02 1.8511)" gradientUnits="userSpaceOnUse">
						<stop  offset="0.2973" style="stop-color:#333333"/>
						<stop  offset="0.5033" style="stop-color:#757575"/>
						<stop  offset="0.7397" style="stop-color:#BBBBBB"/>
						<stop  offset="0.9105" style="stop-color:#E7E7E7"/>
						<stop  offset="0.997" style="stop-color:#F7F7F7"/>
					</radialGradient>
					<circle fill="url(#SVGID_32_)" cx="226.3" cy="121.1" r="12.3"/>
					<g>
						
							<radialGradient id="SVGID_33_" cx="228.7079" cy="105.9402" r="2.4327" gradientTransform="matrix(0.9998 2.190000e-02 -2.190000e-02 0.9998 -8.650453e-02 1.8511)" gradientUnits="userSpaceOnUse">
							<stop  offset="0" style="stop-color:#000000"/>
							<stop  offset="0.4223" style="stop-color:#020202"/>
							<stop  offset="0.637" style="stop-color:#0A0A0A"/>
							<stop  offset="0.8049" style="stop-color:#171717"/>
							<stop  offset="0.9477" style="stop-color:#2A2A2A"/>
							<stop  offset="1" style="stop-color:#333333"/>
						</radialGradient>
						<circle fill="url(#SVGID_33_)" cx="226.3" cy="112.8" r="2.4"/>
						
							<radialGradient id="SVGID_34_" cx="229.0713" cy="122.5293" r="2.4328" gradientTransform="matrix(0.9998 2.190000e-02 -2.190000e-02 0.9998 -8.650453e-02 1.8511)" gradientUnits="userSpaceOnUse">
							<stop  offset="0" style="stop-color:#000000"/>
							<stop  offset="0.4223" style="stop-color:#020202"/>
							<stop  offset="0.637" style="stop-color:#0A0A0A"/>
							<stop  offset="0.8049" style="stop-color:#171717"/>
							<stop  offset="0.9477" style="stop-color:#2A2A2A"/>
							<stop  offset="1" style="stop-color:#333333"/>
						</radialGradient>
						<circle fill="url(#SVGID_34_)" cx="226.3" cy="129.4" r="2.4"/>
						
							<radialGradient id="SVGID_35_" cx="80.9324" cy="618.2482" r="2.4328" gradientTransform="matrix(2.190000e-02 -0.9998 0.9998 2.190000e-02 -401.9385 188.4523)" gradientUnits="userSpaceOnUse">
							<stop  offset="0" style="stop-color:#000000"/>
							<stop  offset="0.4223" style="stop-color:#020202"/>
							<stop  offset="0.637" style="stop-color:#0A0A0A"/>
							<stop  offset="0.8049" style="stop-color:#171717"/>
							<stop  offset="0.9477" style="stop-color:#2A2A2A"/>
							<stop  offset="1" style="stop-color:#333333"/>
						</radialGradient>
						<circle fill="url(#SVGID_35_)" cx="218" cy="121.1" r="2.4"/>
						
							<radialGradient id="SVGID_36_" cx="81.2958" cy="634.8376" r="2.4327" gradientTransform="matrix(2.190000e-02 -0.9998 0.9998 2.190000e-02 -401.9385 188.4523)" gradientUnits="userSpaceOnUse">
							<stop  offset="0" style="stop-color:#000000"/>
							<stop  offset="0.4223" style="stop-color:#020202"/>
							<stop  offset="0.637" style="stop-color:#0A0A0A"/>
							<stop  offset="0.8049" style="stop-color:#171717"/>
							<stop  offset="0.9477" style="stop-color:#2A2A2A"/>
							<stop  offset="1" style="stop-color:#333333"/>
						</radialGradient>
						<circle fill="url(#SVGID_36_)" cx="234.6" cy="121.1" r="2.4"/>
					</g>
					<g>
						
							<radialGradient id="SVGID_37_" cx="260.6876" cy="393.3082" r="2.4331" gradientTransform="matrix(0.7224 -0.6915 0.6915 0.7224 -239.9049 11.3486)" gradientUnits="userSpaceOnUse">
							<stop  offset="0" style="stop-color:#000000"/>
							<stop  offset="0.4223" style="stop-color:#020202"/>
							<stop  offset="0.637" style="stop-color:#0A0A0A"/>
							<stop  offset="0.8049" style="stop-color:#171717"/>
							<stop  offset="0.9477" style="stop-color:#2A2A2A"/>
							<stop  offset="1" style="stop-color:#333333"/>
						</radialGradient>
						<circle fill="url(#SVGID_37_)" cx="220.4" cy="115.2" r="2.4"/>
						
							<radialGradient id="SVGID_38_" cx="261.0504" cy="409.8978" r="2.4331" gradientTransform="matrix(0.7224 -0.6915 0.6915 0.7224 -239.9049 11.3486)" gradientUnits="userSpaceOnUse">
							<stop  offset="0" style="stop-color:#000000"/>
							<stop  offset="0.4223" style="stop-color:#020202"/>
							<stop  offset="0.637" style="stop-color:#0A0A0A"/>
							<stop  offset="0.8049" style="stop-color:#171717"/>
							<stop  offset="0.9477" style="stop-color:#2A2A2A"/>
							<stop  offset="1" style="stop-color:#333333"/>
						</radialGradient>
						<circle fill="url(#SVGID_38_)" cx="232.1" cy="126.9" r="2.4"/>
						
							<radialGradient id="SVGID_39_" cx="-206.0855" cy="651.0538" r="2.4331" gradientTransform="matrix(-0.6915 -0.7224 0.7224 -0.6915 -392.4409 428.2699)" gradientUnits="userSpaceOnUse">
							<stop  offset="0" style="stop-color:#000000"/>
							<stop  offset="0.4223" style="stop-color:#020202"/>
							<stop  offset="0.637" style="stop-color:#0A0A0A"/>
							<stop  offset="0.8049" style="stop-color:#171717"/>
							<stop  offset="0.9477" style="stop-color:#2A2A2A"/>
							<stop  offset="1" style="stop-color:#333333"/>
						</radialGradient>
						<circle fill="url(#SVGID_39_)" cx="220.4" cy="126.9" r="2.4"/>
						
							<radialGradient id="SVGID_40_" cx="-205.7233" cy="667.6434" r="2.4331" gradientTransform="matrix(-0.6915 -0.7224 0.7224 -0.6915 -392.4409 428.2699)" gradientUnits="userSpaceOnUse">
							<stop  offset="0" style="stop-color:#000000"/>
							<stop  offset="0.4223" style="stop-color:#020202"/>
							<stop  offset="0.637" style="stop-color:#0A0A0A"/>
							<stop  offset="0.8049" style="stop-color:#171717"/>
							<stop  offset="0.9477" style="stop-color:#2A2A2A"/>
							<stop  offset="1" style="stop-color:#333333"/>
						</radialGradient>
						<circle fill="url(#SVGID_40_)" cx="232.1" cy="115.2" r="2.4"/>
					</g>
					<circle fill="#CFCFCF" cx="226.3" cy="121.1" r="7.5"/>
					
						<radialGradient id="SVGID_41_" cx="228.8911" cy="114.2347" r="4.6712" gradientTransform="matrix(0.9998 2.190000e-02 -2.190000e-02 0.9998 -8.650453e-02 1.8511)" gradientUnits="userSpaceOnUse">
						<stop  offset="0.3884" style="stop-color:#333333"/>
						<stop  offset="0.5465" style="stop-color:#2D2D2D"/>
						<stop  offset="0.75" style="stop-color:#1D1D1D"/>
						<stop  offset="0.9775" style="stop-color:#030303"/>
						<stop  offset="1" style="stop-color:#000000"/>
					</radialGradient>
					<circle opacity="0.6" fill="url(#SVGID_41_)" cx="226.3" cy="121.1" r="4.7"/>
				</g>
			</g>
			<g>
				<g>
					
						<linearGradient id="SVGID_42_" gradientUnits="userSpaceOnUse" x1="62.3768" y1="132.6551" x2="62.3768" y2="90.1389" gradientTransform="matrix(1 -1.800000e-03 1.800000e-03 1 -0.2021 0.14)">
						<stop  offset="1.725580e-03" style="stop-color:#AB7600"/>
						<stop  offset="0.4961" style="stop-color:#916A00"/>
						<stop  offset="1" style="stop-color:#7A6000"/>
					</linearGradient>
					<path fill="url(#SVGID_42_)" d="M62.3,94.5c-15,0-27.1,11.6-27.1,25.8l54.2-0.1C89.5,106,77.3,94.5,62.3,94.5z"/>
					
						<linearGradient id="SVGID_43_" gradientUnits="userSpaceOnUse" x1="62.3769" y1="88.9554" x2="62.3769" y2="128.6197" gradientTransform="matrix(1 -1.800000e-03 1.800000e-03 1 -0.2021 0.14)">
						<stop  offset="3.451150e-03" style="stop-color:#FFE2A3"/>
						<stop  offset="1.453597e-02" style="stop-color:#FFE19E"/>
						<stop  offset="0.1215" style="stop-color:#FFDB74"/>
						<stop  offset="0.2344" style="stop-color:#FFD550"/>
						<stop  offset="0.3524" style="stop-color:#FFD033"/>
						<stop  offset="0.4772" style="stop-color:#FFCD1D"/>
						<stop  offset="0.6119" style="stop-color:#FFCA0C"/>
						<stop  offset="0.7637" style="stop-color:#FFC803"/>
						<stop  offset="0.9684" style="stop-color:#FFC800"/>
					</linearGradient>
					<path fill="url(#SVGID_43_)" d="M35.8,121.9c1.3-14.1,12.7-25.1,26.5-25.1c13.8,0,25.2,11,26.6,25.1h1.4c0,0,0,0,0,0
						c0-15.4-12.6-31-28-30.9c-15.4,0-27.9,15.5-27.9,30.9c0,0,0,0,0,0H35.8z"/>
				</g>
				<g>
					
						<radialGradient id="SVGID_44_" cx="65.0724" cy="117.8231" r="24.2193" gradientTransform="matrix(0.9998 2.190000e-02 -2.190000e-02 0.9998 -8.650453e-02 1.8511)" gradientUnits="userSpaceOnUse">
						<stop  offset="0" style="stop-color:#000000"/>
						<stop  offset="0.4223" style="stop-color:#020202"/>
						<stop  offset="0.637" style="stop-color:#0A0A0A"/>
						<stop  offset="0.8049" style="stop-color:#171717"/>
						<stop  offset="0.9477" style="stop-color:#2A2A2A"/>
						<stop  offset="1" style="stop-color:#333333"/>
					</radialGradient>
					<circle fill="url(#SVGID_44_)" cx="62.4" cy="121.1" r="20.5"/>
					
						<radialGradient id="SVGID_45_" cx="65.0726" cy="117.8231" r="14.1751" gradientTransform="matrix(0.9998 2.190000e-02 -2.190000e-02 0.9998 -8.650453e-02 1.8511)" gradientUnits="userSpaceOnUse">
						<stop  offset="0.2973" style="stop-color:#333333"/>
						<stop  offset="0.5033" style="stop-color:#757575"/>
						<stop  offset="0.7397" style="stop-color:#BBBBBB"/>
						<stop  offset="0.9105" style="stop-color:#E7E7E7"/>
						<stop  offset="0.997" style="stop-color:#F7F7F7"/>
					</radialGradient>
					<circle fill="url(#SVGID_45_)" cx="62.4" cy="121.1" r="12.3"/>
					<g>
						
							<radialGradient id="SVGID_46_" cx="64.8895" cy="109.5285" r="2.4327" gradientTransform="matrix(0.9998 2.190000e-02 -2.190000e-02 0.9998 -8.650453e-02 1.8511)" gradientUnits="userSpaceOnUse">
							<stop  offset="0" style="stop-color:#000000"/>
							<stop  offset="0.4223" style="stop-color:#020202"/>
							<stop  offset="0.637" style="stop-color:#0A0A0A"/>
							<stop  offset="0.8049" style="stop-color:#171717"/>
							<stop  offset="0.9477" style="stop-color:#2A2A2A"/>
							<stop  offset="1" style="stop-color:#333333"/>
						</radialGradient>
						<circle fill="url(#SVGID_46_)" cx="62.4" cy="112.8" r="2.4"/>
						
							<radialGradient id="SVGID_47_" cx="65.2529" cy="126.1176" r="2.4327" gradientTransform="matrix(0.9998 2.190000e-02 -2.190000e-02 0.9998 -8.650453e-02 1.8511)" gradientUnits="userSpaceOnUse">
							<stop  offset="0" style="stop-color:#000000"/>
							<stop  offset="0.4223" style="stop-color:#020202"/>
							<stop  offset="0.637" style="stop-color:#0A0A0A"/>
							<stop  offset="0.8049" style="stop-color:#171717"/>
							<stop  offset="0.9477" style="stop-color:#2A2A2A"/>
							<stop  offset="1" style="stop-color:#333333"/>
						</radialGradient>
						<circle fill="url(#SVGID_47_)" cx="62.4" cy="129.4" r="2.4"/>
						
							<radialGradient id="SVGID_48_" cx="77.3441" cy="454.4301" r="2.4327" gradientTransform="matrix(2.190000e-02 -0.9998 0.9998 2.190000e-02 -401.9385 188.4523)" gradientUnits="userSpaceOnUse">
							<stop  offset="0" style="stop-color:#000000"/>
							<stop  offset="0.4223" style="stop-color:#020202"/>
							<stop  offset="0.637" style="stop-color:#0A0A0A"/>
							<stop  offset="0.8049" style="stop-color:#171717"/>
							<stop  offset="0.9477" style="stop-color:#2A2A2A"/>
							<stop  offset="1" style="stop-color:#333333"/>
						</radialGradient>
						<circle fill="url(#SVGID_48_)" cx="54.1" cy="121.1" r="2.4"/>
						
							<radialGradient id="SVGID_49_" cx="77.7075" cy="471.0192" r="2.4327" gradientTransform="matrix(2.190000e-02 -0.9998 0.9998 2.190000e-02 -401.9385 188.4523)" gradientUnits="userSpaceOnUse">
							<stop  offset="0" style="stop-color:#000000"/>
							<stop  offset="0.4223" style="stop-color:#020202"/>
							<stop  offset="0.637" style="stop-color:#0A0A0A"/>
							<stop  offset="0.8049" style="stop-color:#171717"/>
							<stop  offset="0.9477" style="stop-color:#2A2A2A"/>
							<stop  offset="1" style="stop-color:#333333"/>
						</radialGradient>
						<circle fill="url(#SVGID_49_)" cx="70.7" cy="121.1" r="2.4"/>
					</g>
					<g>
						
							<radialGradient id="SVGID_50_" cx="142.3162" cy="280.0001" r="2.4331" gradientTransform="matrix(0.7224 -0.6915 0.6915 0.7224 -239.9049 11.3486)" gradientUnits="userSpaceOnUse">
							<stop  offset="0" style="stop-color:#000000"/>
							<stop  offset="0.4223" style="stop-color:#020202"/>
							<stop  offset="0.637" style="stop-color:#0A0A0A"/>
							<stop  offset="0.8049" style="stop-color:#171717"/>
							<stop  offset="0.9477" style="stop-color:#2A2A2A"/>
							<stop  offset="1" style="stop-color:#333333"/>
						</radialGradient>
						<circle fill="url(#SVGID_50_)" cx="56.5" cy="115.2" r="2.4"/>
						
							<radialGradient id="SVGID_51_" cx="142.6789" cy="296.5895" r="2.4331" gradientTransform="matrix(0.7224 -0.6915 0.6915 0.7224 -239.9049 11.3486)" gradientUnits="userSpaceOnUse">
							<stop  offset="0" style="stop-color:#000000"/>
							<stop  offset="0.4223" style="stop-color:#020202"/>
							<stop  offset="0.637" style="stop-color:#0A0A0A"/>
							<stop  offset="0.8049" style="stop-color:#171717"/>
							<stop  offset="0.9477" style="stop-color:#2A2A2A"/>
							<stop  offset="1" style="stop-color:#333333"/>
						</radialGradient>
						<circle fill="url(#SVGID_51_)" cx="68.3" cy="126.9" r="2.4"/>
						
							<radialGradient id="SVGID_52_" cx="-92.7774" cy="532.6824" r="2.4331" gradientTransform="matrix(-0.6915 -0.7224 0.7224 -0.6915 -392.4409 428.2699)" gradientUnits="userSpaceOnUse">
							<stop  offset="0" style="stop-color:#000000"/>
							<stop  offset="0.4223" style="stop-color:#020202"/>
							<stop  offset="0.637" style="stop-color:#0A0A0A"/>
							<stop  offset="0.8049" style="stop-color:#171717"/>
							<stop  offset="0.9477" style="stop-color:#2A2A2A"/>
							<stop  offset="1" style="stop-color:#333333"/>
						</radialGradient>
						<circle fill="url(#SVGID_52_)" cx="56.5" cy="126.9" r="2.4"/>
						
							<radialGradient id="SVGID_53_" cx="-92.415" cy="549.2719" r="2.4331" gradientTransform="matrix(-0.6915 -0.7224 0.7224 -0.6915 -392.4409 428.2699)" gradientUnits="userSpaceOnUse">
							<stop  offset="0" style="stop-color:#000000"/>
							<stop  offset="0.4223" style="stop-color:#020202"/>
							<stop  offset="0.637" style="stop-color:#0A0A0A"/>
							<stop  offset="0.8049" style="stop-color:#171717"/>
							<stop  offset="0.9477" style="stop-color:#2A2A2A"/>
							<stop  offset="1" style="stop-color:#333333"/>
						</radialGradient>
						<circle fill="url(#SVGID_53_)" cx="68.3" cy="115.2" r="2.4"/>
					</g>
					<circle fill="#CFCFCF" cx="62.4" cy="121.1" r="7.5"/>
					
						<radialGradient id="SVGID_54_" cx="65.0727" cy="117.8231" r="4.6712" gradientTransform="matrix(0.9998 2.190000e-02 -2.190000e-02 0.9998 -8.650453e-02 1.8511)" gradientUnits="userSpaceOnUse">
						<stop  offset="0.3884" style="stop-color:#333333"/>
						<stop  offset="0.5465" style="stop-color:#2D2D2D"/>
						<stop  offset="0.75" style="stop-color:#1D1D1D"/>
						<stop  offset="0.9775" style="stop-color:#030303"/>
						<stop  offset="1" style="stop-color:#000000"/>
					</radialGradient>
					<circle opacity="0.6" fill="url(#SVGID_54_)" cx="62.4" cy="121.1" r="4.7"/>
				</g>
			</g>
		</g>
	</g>
</g>
</svg>
